SplineFontDB: 3.0
FontName: Damion
FullName: Damion
FamilyName: Damion
Weight: Book
Copyright: Copyright (c) 2011 by vernon adams. All rights reserved.
Version: 1.000
ItalicAngle: 0
UnderlinePosition: -103
UnderlineWidth: 102
Ascent: 1638
Descent: 410
sfntRevision: 0x00010000
LayerCount: 2
Layer: 0 0 "Back"  1
Layer: 1 0 "Fore"  0
XUID: [1021 759 1887733602 699802]
FSType: 0
OS2Version: 2
OS2_WeightWidthSlopeOnly: 0
OS2_UseTypoMetrics: 1
CreationTime: 1303069801
ModificationTime: 1367527262
PfmFamily: 17
TTFWeight: 400
TTFWidth: 5
LineGap: 0
VLineGap: 0
Panose: 2 0 0 0 0 0 0 0 0 0
OS2TypoAscent: -103
OS2TypoAOffset: 1
OS2TypoDescent: -183
OS2TypoDOffset: 1
OS2TypoLinegap: 0
OS2WinAscent: -533
OS2WinAOffset: 1
OS2WinDescent: -153
OS2WinDOffset: 1
HheadAscent: -533
HheadAOffset: 1
HheadDescent: 153
HheadDOffset: 1
OS2SubXSize: 1434
OS2SubYSize: 1331
OS2SubXOff: 0
OS2SubYOff: 287
OS2SupXSize: 1434
OS2SupYSize: 1331
OS2SupXOff: 0
OS2SupYOff: 977
OS2StrikeYSize: 102
OS2StrikeYPos: 512
OS2Vendor: 'newt'
OS2CodePages: 00000093.00000000
OS2UnicodeRanges: 8000006f.4000004b.00000000.00000000
Lookup: 258 0 0 "'kern' Horizontal Kerning lookup 0"  {"'kern' Horizontal Kerning lookup 0 subtable"  } ['kern' ('    ' <'dflt' > 'latn' <'dflt' > ) ]
MarkAttachClasses: 1
DEI: 91125
TtTable: prep
PUSHW_1
 511
SCANCTRL
PUSHB_1
 4
SCANTYPE
EndTTInstrs
ShortTable: maxp 16
  1
  0
  268
  152
  5
  175
  4
  1
  0
  0
  0
  0
  0
  0
  3
  1
EndShort

StartChar: exclam
Encoding: 4 33 4
Width: 959
GlyphClass: 2
Flags: W
HStem: -16 270<521.463 709.227>
VStem: 487 258<19.9151 218.631> 781 211<1067.23 1255.87>
LayerCount: 2
Fore
SplineSet
487 118 m 0
 487 193 546 254 621 254 c 0
 680 254 728 213 740 155 c 0
 740 151 742 152 742 148 c 0
 744 139 745 130 745 121 c 0
 745 45 686 -16 611 -16 c 0
 543 -16 487 41 487 118 c 0
679 440 m 0
 653 440 625 452 625 484 c 0
 625 489 626 494 627 498 c 0
 679 736 729 962 781 1200 c 0
 792 1246 838 1274 903 1274 c 0
 943 1274 992 1259 992 1213 c 0
 992 1209 991 1204 990 1200 c 0
 913 953 839 745 762 498 c 0
 752 467 720 440 679 440 c 0
EndSplineSet
EndChar

StartChar: quotedbl
Encoding: 5 34 5
Width: 852
GlyphClass: 2
Flags: W
HStem: 755 676
VStem: 501 203<1246.22 1418.96> 793 211<1263.2 1417.73>
LayerCount: 2
Fore
SplineSet
906 1431 m 0
 944 1431 1004 1419 1004 1377 c 0
 1004 1373 1003 1370 1001 1368 c 1
 930 1176 840 993 760 809 c 0
 748 782 720 755 681 755 c 0
 660 755 638 764 634 785 c 0
 632 794 637 801 637 809 c 1
 690 994 745 1182 793 1368 c 1
 805 1409 846 1431 906 1431 c 0
606 1431 m 0
 644 1431 704 1419 704 1377 c 0
 704 1373 703 1370 701 1368 c 1
 639 1180 567 994 500 809 c 0
 490 782 466 755 429 755 c 0
 408 755 384 765 384 788 c 0
 384 795 387 802 387 809 c 1
 424 995 465 1183 501 1368 c 1
 511 1408 550 1431 606 1431 c 0
EndSplineSet
EndChar

StartChar: numbersign
Encoding: 6 35 6
Width: 1381
GlyphClass: 2
Flags: W
HStem: 451 118<303.308 543 703 920 1080 1309.17> 823 123<415.727 660 818 1037 1195 1422.44>
LayerCount: 2
Fore
SplineSet
1037 823 m 1
 779 823 l 1
 754 738 728 654 703 569 c 1
 961 569 l 1
 986 654 1012 738 1037 823 c 1
439 823 m 2
 417 823 408 842 408 866 c 0
 408 896 425 922 439 936 c 0
 445 943 451 946 458 946 c 2
 695 946 l 1
 739 1085 783 1231 828 1368 c 0
 834 1388 869 1398 899 1398 c 0
 920 1398 946 1393 950 1375 c 0
 950 1372 952 1369 951 1368 c 0
 914 1227 862 1083 818 946 c 1
 1076 946 l 1
 1117 1084 1162 1232 1205 1368 c 0
 1211 1388 1245 1399 1275 1399 c 0
 1297 1399 1322 1394 1326 1375 c 0
 1326 1372 1327 1370 1327 1368 c 0
 1286 1230 1238 1084 1195 946 c 1
 1400 946 l 2
 1421 946 1432 930 1432 906 c 0
 1432 875 1413 848 1398 833 c 0
 1391 826 1384 823 1377 823 c 2
 1159 823 l 1
 1133 738 1106 654 1080 569 c 1
 1284 569 l 2
 1305 569 1316 553 1316 529 c 0
 1316 497 1293 451 1264 451 c 2
 1043 451 l 1
 998 302 956 143 904 0 c 1
 898 -20 862 -31 832 -31 c 0
 810 -31 786 -27 782 -8 c 0
 782 -7 781 -4 782 0 c 0
 827 148 875 302 920 451 c 1
 662 451 l 1
 617 303 575 141 524 0 c 1
 516 -19 486 -29 455 -29 c 0
 434 -29 409 -26 405 -8 c 0
 405 -7 404 -4 405 0 c 0
 444 149 497 304 543 451 c 1
 318 451 l 2
 302 451 297 467 297 486 c 0
 297 518 314 569 342 569 c 2
 580 569 l 1
 607 655 633 737 660 823 c 1
 439 823 l 2
EndSplineSet
EndChar

StartChar: dollar
Encoding: 7 36 7
Width: 1300
GlyphClass: 2
Flags: W
HStem: -12 184<544.538 625 814 973.75> 397 160<552.142 691.505> 1204 179<1177.43 1244.2>
VStem: 300 208<208.373 353.903> 557 194<843.863 1036.45> 1091 143<1581.14 1630.37> 1097 232<281.052 468.46> 1108 314<978 1180>
LayerCount: 2
Fore
SplineSet
769 1001 m 0xf8
 759 985 751 967 751 947 c 0
 751 869 808 826 862 795 c 1
 897 915 933 1031 968 1151 c 1
 888 1116 808 1068 769 1001 c 0xf8
1075 310 m 0
 1086 330 1097 356 1097 382 c 0xfa
 1097 387 1096 393 1095 398 c 0
 1095 402 1093 401 1093 404 c 0
 1082 456 1037 482 997 506 c 0
 978 518 954 532 926 547 c 1
 870 359 l 2
 852 296 832 233 814 170 c 1
 935 182 1032 233 1075 310 c 0
647 557 m 2
 681 557 700 513 700 475 c 0
 700 428 665 414 624 397 c 0
 584 380 553 359 533 334 c 0
 516 313 508 293 508 274 c 0
 508 243 526 224 556 206 c 0
 583 190 624 178 680 172 c 1
 722 320 766 463 809 611 c 1
 740 648 679 688 632 740 c 0
 592 785 557 844 557 927 c 0
 557 989 581 1038 607 1080 c 0
 690 1212 846 1311 1028 1360 c 1
 1091 1573 l 1
 1099 1606 1120 1635 1161 1635 c 0
 1193 1635 1228 1621 1234 1590 c 0xfc
 1234 1587 1235 1584 1235 1581 c 2
 1235 1573 l 1
 1217 1508 1197 1447 1177 1383 c 1
 1186 1383 l 2
 1314 1383 1422 1328 1422 1180 c 0
 1422 1140 1412 1102 1393 1064 c 0
 1366 1011 1318 963 1254 918 c 0
 1228 900 1204 891 1183 891 c 0
 1139 891 1108 928 1108 978 c 0xf9
 1108 1024 1138 1057 1175 1077 c 0
 1205 1093 1230 1117 1242 1148 c 1
 1256 1190 1224 1204 1190 1204 c 0
 1165 1204 1144 1201 1121 1197 c 1
 1074 1040 1027 885 981 730 c 1
 1132 646 l 1
 1220 603 1304 543 1326 441 c 0
 1328 429 1329 418 1329 407 c 0
 1329 404 1329 400 1329 397 c 0
 1329 276 1260 179 1179 114 c 0
 1085 38 943 -20 761 -20 c 2
 756 -20 l 1
 700 -205 l 1
 693 -238 675 -267 637 -267 c 0
 605 -267 557 -248 569 -205 c 2
 625 -12 l 1
 480 5 339 51 305 187 c 0
 302 202 300 216 300 230 c 0
 300 302 339 360 378 404 c 0
 438 472 530 530 641 557 c 1
 647 557 l 2
EndSplineSet
EndChar

StartChar: percent
Encoding: 8 37 8
Width: 1769
GlyphClass: 2
Flags: W
HStem: -40 127<1304.99 1481.66> 407 123<386.807 562.605> 525 123<1332.06 1512.59> 980 119<407.922 588.035>
VStem: 208 134<574.463 910.245> 627 134<601.049 842.425> 1121 144<127.353 446.755> 1547 143<159.862 493.779>
LayerCount: 2
Fore
SplineSet
1265 278 m 0xbf
 1265 184 1304 87 1388 87 c 0
 1461 87 1500 146 1521 196 c 0
 1537 234 1547 283 1547 338 c 0
 1547 439 1519 525 1423 525 c 0
 1355 525 1316 467 1295 420 c 0
 1278 383 1265 333 1265 278 c 0xbf
342 738 m 0
 342 642 379 530 466 530 c 0xdf
 539 530 579 586 601 636 c 0
 616 673 627 722 627 776 c 0
 627 876 595 980 507 980 c 0
 432 980 392 928 369 878 c 0
 353 842 342 792 342 738 c 0
1153 127 m 1
 1134 175 1121 242 1121 303 c 0
 1121 443 1179 552 1267 610 c 0
 1306 636 1351 648 1402 648 c 0xbf
 1543 648 1650 557 1677 431 c 0
 1686 389 1690 349 1690 312 c 0
 1690 168 1629 57 1538 -2 c 0
 1498 -28 1451 -40 1398 -40 c 0
 1317 -40 1253 -6 1208 42 c 1
 1044 -16 912 -77 794 -148 c 0
 745 -178 706 -206 677 -233 c 1
 670 -249 654 -259 629 -259 c 0
 573 -259 506 -210 533 -143 c 1
 1049 932 l 1
 967 882 876 854 750 841 c 1
 758 804 761 770 761 737 c 0
 761 598 697 494 606 441 c 0
 567 418 525 407 480 407 c 0
 335 407 247 520 217 665 c 0
 210 696 208 725 208 753 c 0
 208 837 234 909 268 962 c 0
 314 1033 394 1099 516 1099 c 0
 621 1099 689 1030 728 939 c 1
 899 985 1007 1070 1129 1159 c 1
 1146 1176 1169 1192 1201 1192 c 0
 1259 1192 1302 1130 1282 1060 c 1
 796 22 l 1
 910 61 1032 99 1153 127 c 1
EndSplineSet
EndChar

StartChar: ampersand
Encoding: 9 38 9
Width: 1119
GlyphClass: 2
Flags: W
HStem: -28 183<430.985 638.955> 994 152<626.103 823.441>
VStem: 244 183<162.196 310.246> 347 180<668.574 895.817>
LayerCount: 2
Fore
SplineSet
427 219 m 0xe0
 427 171 473 155 514 155 c 0
 577 155 616 182 659 214 c 0
 681 231 709 253 743 282 c 1
 588 442 l 1
 566 413 541 386 517 361 c 0
 456 301 427 253 427 219 c 0xe0
460 566 m 1
 403 633 347 711 347 826 c 0
 347 921 398 988 452 1036 c 0
 519 1095 612 1146 743 1146 c 0
 856 1146 945 1099 1001 1017 c 0
 1020 990 1032 961 1032 920 c 0
 1032 880 1019 844 1006 816 c 0
 987 775 960 733 935 700 c 1
 920 686 901 676 874 676 c 0
 827 676 742 724 778 782 c 0
 795 810 815 841 828 874 c 0
 854 940 803 994 745 994 c 0
 678 994 622 951 589 916 c 0
 561 886 527 839 527 784 c 0xd0
 527 775 528 766 530 757 c 0
 540 709 570 661 619 613 c 2
 832 406 l 1
 852 441 871 484 885 521 c 1
 1059 521 l 1
 1039 425 1002 343 953 266 c 1
 1012 194 1067 135 1132 68 c 0
 1146 53 1159 34 1159 8 c 0
 1159 -27 1134 -54 1097 -54 c 0
 1055 -54 1022 -27 993 2 c 1
 860 142 l 1
 798 87 752 50 721 30 c 0
 660 -9 600 -28 543 -28 c 0
 393 -28 278 62 247 193 c 0
 245 201 244 211 244 220 c 0
 244 238 248 258 255 280 c 0
 288 386 364 489 449 553 c 0
 456 558 460 563 460 566 c 1
EndSplineSet
EndChar

StartChar: quotesingle
Encoding: 10 39 10
Width: 251
GlyphClass: 2
Flags: W
HStem: 755 676<253 430>
VStem: 322 210<1246.1 1419.25>
LayerCount: 2
Fore
SplineSet
253 755 m 0
 228 755 203 768 203 797 c 0
 203 801 204 805 205 809 c 0
 245 994 286 1183 322 1368 c 1
 332 1409 371 1431 430 1431 c 0
 469 1431 532 1418 532 1376 c 0
 532 1372 532 1370 530 1368 c 1
 470 1178 395 994 328 809 c 0
 318 781 292 755 253 755 c 0
EndSplineSet
EndChar

StartChar: parenleft
Encoding: 11 40 11
Width: 914
GlyphClass: 2
Flags: W
VStem: 457 183<227.145 938.791> 577 212<-132.667 -30>
LayerCount: 2
Fore
SplineSet
861 1609 m 0x80
 897 1609 954 1583 954 1543 c 0
 954 1540 953 1537 951 1535 c 0
 775 1267 640 960 640 558 c 0x80
 640 317 702 53 783 -115 c 0
 785 -121 789 -130 789 -140 c 0
 789 -175 757 -196 719 -196 c 0
 635 -196 606 -107 577 -30 c 0x40
 516 133 457 368 457 579 c 0
 457 690 470 793 490 892 c 0
 539 1131 635 1336 755 1535 c 0
 779 1575 806 1609 861 1609 c 0x80
EndSplineSet
EndChar

StartChar: parenright
Encoding: 12 41 12
Width: 680
GlyphClass: 2
Flags: W
VStem: 495 181<1450.97 1599.02> 646 185<480.368 1203.6>
LayerCount: 2
Fore
SplineSet
397 -217 m 0x40
 358 -217 324 -188 324 -146 c 0
 324 -133 329 -123 336 -115 c 1
 512 153 646 464 646 869 c 0x40
 646 1121 586 1339 504 1535 c 1
 498 1545 495 1556 495 1569 c 0
 495 1604 523 1628 560 1628 c 0
 613 1628 654 1586 676 1535 c 0x80
 763 1323 831 1100 831 836 c 0
 831 724 817 622 796 522 c 0
 746 286 650 84 532 -115 c 1
 507 -153 483 -179 460 -194 c 0
 437 -209 416 -217 397 -217 c 0x40
EndSplineSet
EndChar

StartChar: asterisk
Encoding: 13 42 13
Width: 696
GlyphClass: 2
Flags: W
HStem: 721 647
VStem: 293 671
LayerCount: 2
Fore
SplineSet
964 1053 m 1
 691 995 l 1
 815 791 l 1
 679 721 l 1
 590 950 l 1
 405 721 l 1
 311 823 l 1
 531 1008 l 1
 293 1077 l 1
 376 1217 l 1
 589 1106 l 1
 631 1368 l 1
 786 1368 l 1
 688 1094 l 1
 949 1192 l 1
 964 1053 l 1
EndSplineSet
EndChar

StartChar: plus
Encoding: 14 43 14
Width: 1277
GlyphClass: 2
Flags: W
HStem: 640 128<376 728 888 1240>
LayerCount: 2
Fore
SplineSet
1240 640 m 1
 856 640 l 1
 752 256 l 1
 624 256 l 1
 728 640 l 1
 344 640 l 1
 376 768 l 1
 760 768 l 1
 864 1152 l 1
 992 1152 l 1
 888 768 l 1
 1272 768 l 1
 1240 640 l 1
EndSplineSet
EndChar

StartChar: comma
Encoding: 15 44 15
Width: 737
GlyphClass: 2
Flags: W
HStem: -275 593<278 442>
VStem: 308 252<145.318 295.75>
LayerCount: 2
Fore
SplineSet
278 -275 m 0
 257 -275 236 -262 236 -238 c 0
 236 -235 236 -232 237 -229 c 0
 261 -71 284 75 308 233 c 0
 316 287 370 318 442 318 c 0
 491 318 560 301 560 247 c 0
 560 242 560 238 558 233 c 0
 485 75 412 -70 340 -229 c 1
 328 -252 310 -275 278 -275 c 0
EndSplineSet
EndChar

StartChar: hyphen
Encoding: 16 45 16
Width: 822
GlyphClass: 2
Flags: W
HStem: 253.981 165.25<319.961 653.087> 261.346 142.434<443.5 827.257>
VStem: 308.39 527.854<275.013 396.281>
LayerCount: 2
UndoRedoHistory
Layer: 0
Undoes
EndUndoes
Redoes
EndRedoes
EndUndoRedoHistory
UndoRedoHistory
Layer: 1
Undoes
EndUndoes
Redoes
EndRedoes
EndUndoRedoHistory
Fore
SplineSet
390.84208601 253.980892661 m 0xa0
 343.730432057 253.980892661 308.389930242 296.320097153 308.389930242 341.831432634 c 0
 308.389930242 387.291426087 350.691441781 419.230394672 403.756431068 419.230394672 c 0xa0
 406.346405575 419.230394672 408.962020638 419.154310257 411.599609375 419 c 2
 679.174804688 403.345703125 l 2
 685.397692659 402.981637481 691.626434049 402.849439249 697.825419055 402.849439249 c 0
 714.269717211 402.849439249 730.504618737 403.77972241 745.865380498 403.77972241 c 0
 789.325914718 403.77972241 836.244420053 387.353435444 836.244420053 340.687391535 c 0
 836.244420053 286.176238008 785.212573979 262.518102687 731.174804688 261.345703125 c 2x60
 392.599609375 254 l 2
 392.010971751 253.98722896 391.425126446 253.980892661 390.84208601 253.980892661 c 0xa0
  Spiro
    402.453 419.275 o
    405.446 419.245 o
    408.502 419.152 o
    411.6 419 [
    679.175 403.346 ]
    681.87 403.218 o
    684.61 403.145 o
    687.376 403.122 o
    705.123 403.798 o
    723.253 405.059 o
    740.828 405.735 o
    822 378 o
    826 304 o
    731.175 261.346 [
    392.6 254 ]
    391.935 253.988 o
    391.273 253.981 o
    390.617 253.979 o
    320 299 o
    344 405 o
    0 0 z
  EndSpiro
EndSplineSet
EndChar

StartChar: period
Encoding: 17 46 17
Width: 732
GlyphClass: 2
Flags: W
HStem: -16 270<365.875 540.845>
VStem: 323 257<27.25 214.203>
LayerCount: 2
Fore
SplineSet
323 135 m 0
 323 205 370 254 442 254 c 0
 516 254 580 191 580 105 c 0
 580 36 535 -16 465 -16 c 0
 390 -16 323 49 323 135 c 0
EndSplineSet
EndChar

StartChar: slash
Encoding: 18 47 18
Width: 892
GlyphClass: 2
Flags: W
VStem: 314 157<-175.033 -38.9487>
LayerCount: 2
Fore
SplineSet
403 -185 m 0
 364 -185 314 -161 314 -116 c 0
 314 -113 314 -111 315 -109 c 0
 515 435 709 966 909 1510 c 0
 919 1536 944 1554 982 1554 c 0
 1029 1554 1078 1527 1078 1476 c 1
 876 937 673 399 471 -140 c 1
 462 -167 440 -185 403 -185 c 0
EndSplineSet
EndChar

StartChar: zero
Encoding: 19 48 19
Width: 896
GlyphClass: 2
Flags: W
HStem: -25 153<425.387 637.518> 734 171<484.481 698.001>
VStem: 172 187<201.426 588.631> 746 189<264.243 684.832>
LayerCount: 2
Fore
SplineSet
359 399 m 0
 359 274 402 128 517 128 c 0
 596 128 643 169 674 214 c 0
 721 281 746 380 746 486 c 0
 746 606 717 734 614 734 c 0
 510 734 446 665 409 600 c 0
 380 548 359 479 359 399 c 0
521 -25 m 0
 311 -25 172 167 172 407 c 0
 172 522 209 618 251 694 c 0
 311 802 419 905 588 905 c 0
 769 905 887 764 923 601 c 0
 931 561 935 523 935 486 c 0
 935 427 926 373 913 324 c 0
 877 184 798 63 664 4 c 0
 621 -15 574 -25 521 -25 c 0
EndSplineSet
EndChar

StartChar: one
Encoding: 20 49 20
Width: 736
GlyphClass: 2
Flags: W
LayerCount: 2
Fore
SplineSet
629 879 m 0
 683 879 718 841 718 776 c 0
 718 767 717 759 715 750 c 0
 658 542 619 305 562 99 c 0
 545 40 500 -24 416 -24 c 0
 373 -24 337 -2 327 42 c 0
 323 63 322 82 328 97 c 0
 371 201 398 308 435 416 c 2
 520 665 l 1
 461 640 384 603 322 581 c 0
 319 579 312 578 308 578 c 0
 280 578 255 609 255 644 c 0
 255 675 274 697 294 717 c 1
 363 771 431 818 519 854 c 0
 550 867 588 879 629 879 c 0
EndSplineSet
EndChar

StartChar: two
Encoding: 21 50 21
Width: 896
GlyphClass: 2
Flags: W
HStem: -24 174<560.895 938.542> 737 168<412.819 634.454>
VStem: 654 206<477.993 719.732>
LayerCount: 2
Fore
SplineSet
238 600 m 0
 195 600 145 642 145 694 c 0
 145 733 182 762 209 783 c 0
 276 834 373 876 475 896 c 0
 507 902 537 905 565 905 c 0
 718 905 820 825 852 670 c 0
 858 643 860 618 860 596 c 0
 860 538 843 492 817 446 c 0
 758 343 665 271 546 195 c 1
 597 174 674 150 736 150 c 0
 810 150 863 158 924 168 c 0
 926 168 928 169 930 169 c 0
 965 169 991 135 991 95 c 0
 991 10 868 -24 775 -24 c 0
 634 -24 541 27 430 82 c 1
 378 44 347 20 304 -7 c 0
 289 -16 286 -21 271 -21 c 0
 217 -21 140 73 197 119 c 1
 351 214 508 322 602 466 c 0
 628 506 654 555 654 614 c 0
 654 691 620 737 554 737 c 0
 477 737 420 696 371 668 c 0
 337 648 302 626 270 610 c 0
 257 603 246 600 238 600 c 0
EndSplineSet
EndChar

StartChar: three
Encoding: 22 51 22
Width: 800
GlyphClass: 2
Flags: W
HStem: -261 135<153.968 343.83> 355 129<270.239 400.922> 736 167<268.35 565.956>
VStem: 574 190<64.3574 318.896> 576 168<573.787 725.431>
LayerCount: 2
Fore
SplineSet
226 686 m 0xe8
 187 686 137 717 137 762 c 0
 137 773 141 784 148 797 c 1
 216 857 337 903 467 903 c 0
 607 903 710 841 740 700 c 0
 742 687 744 674 744 662 c 0xe8
 744 624 732 587 707 552 c 0
 674 506 617 469 542 441 c 1
 641 419 729 364 753 253 c 0
 760 219 764 187 764 158 c 0
 764 -9 656 -105 536 -168 c 0
 457 -209 362 -241 259 -259 c 0
 251 -260 243 -261 236 -261 c 0
 193 -261 148 -241 148 -195 c 0
 148 -160 179 -136 212 -126 c 1
 348 -96 465 -28 529 64 c 0
 553 99 574 142 574 196 c 0xf0
 574 314 507 360 402 360 c 0
 379 360 356 355 331 355 c 0
 296 355 266 383 266 421 c 0
 266 459 309 477 350 484 c 0
 431 497 493 531 532 574 c 0
 551 595 576 625 576 657 c 0
 576 704 531 736 491 736 c 0
 403 736 343 713 279 694 c 0
 262 689 244 686 226 686 c 0xe8
EndSplineSet
EndChar

StartChar: four
Encoding: 23 52 23
Width: 976
GlyphClass: 2
Flags: W
HStem: 0 167<378 511 736 961.987>
VStem: 720 167<609.841 858.764>
LayerCount: 2
Fore
SplineSet
244 0 m 2
 193 0 157 12 157 70 c 0
 157 95 166 117 174 143 c 0
 242 349 304 578 345 806 c 1
 352 852 383 883 438 883 c 0
 478 883 529 862 538 825 c 1
 538 818 539 812 538 806 c 0
 494 587 433 374 378 167 c 1
 395 168 410 168 424 168 c 2
 538 168 l 1
 568 167 l 1
 572 196 l 1
 612 383 670 585 720 768 c 1
 729 808 743 838 761 856 c 0
 779 874 796 883 813 883 c 0
 860 883 887 831 887 774 c 0
 887 756 885 739 881 723 c 0
 836 537 784 346 736 163 c 1
 915 163 l 2
 951 163 970 123 970 83 c 0
 970 34 939 0 884 0 c 2
 701 0 l 1
 619 -341 l 1
 608 -377 585 -406 538 -406 c 0
 484 -406 436 -367 443 -306 c 1
 511 0 l 1
 244 0 l 2
EndSplineSet
EndChar

StartChar: five
Encoding: 24 53 24
Width: 884
GlyphClass: 2
Flags: W
HStem: 366 157<392.895 617.025> 703 176<424.743 901.145>
VStem: 665 200<67.4441 318.331>
LayerCount: 2
Fore
SplineSet
837 879 m 2
 882 879 915 831 915 780 c 0
 915 731 879 703 822 703 c 2
 437 703 l 1
 414 622 386 537 362 458 c 1
 412 495 473 523 555 523 c 0
 743 523 865 369 865 171 c 0
 865 1 759 -98 641 -164 c 0
 564 -208 468 -241 364 -259 c 0
 356 -260 348 -261 341 -261 c 0
 298 -261 253 -241 253 -195 c 0
 253 -160 284 -136 317 -126 c 1
 451 -95 564 -23 624 70 c 0
 647 105 665 148 665 202 c 0
 665 317 588 366 488 366 c 0
 424 366 353 351 316 324 c 0
 300 312 284 290 258 290 c 0
 209 290 170 336 170 390 c 0
 170 397 171 405 173 412 c 2
 264 789 l 2
 277 841 292 879 366 879 c 2
 837 879 l 2
EndSplineSet
EndChar

StartChar: six
Encoding: 25 54 25
Width: 980
GlyphClass: 2
Flags: W
HStem: -24 172<478.512 707.638> 568 150<515.038 791.929>
VStem: 227 191<211.987 468.08> 819 192<273.718 540.773>
LayerCount: 2
Fore
SplineSet
819 428 m 0
 819 523 771 568 687 568 c 0
 576 568 495 516 434 470 c 1
 423 429 418 390 418 354 c 0
 418 328 421 304 426 280 c 0
 442 201 512 148 593 148 c 0
 678 148 734 209 767 261 c 0
 794 302 819 362 819 428 c 0
735 1244 m 0
 783 1244 842 1200 842 1144 c 0
 842 1122 831 1107 816 1095 c 0
 689 997 588 883 524 744 c 0
 509 712 497 685 488 663 c 1
 549 693 629 718 720 718 c 0
 899 718 1011 592 1011 386 c 0
 1011 278 972 194 923 130 c 0
 861 48 763 -24 608 -24 c 0
 411 -24 275 123 237 300 c 0
 230 334 227 367 227 399 c 0
 227 455 236 508 248 559 c 0
 313 846 489 1078 704 1234 c 0
 712 1241 722 1244 735 1244 c 0
EndSplineSet
EndChar

StartChar: seven
Encoding: 26 55 26
Width: 870
GlyphClass: 2
Flags: W
HStem: 705 176<188.393 656> 723 158<132.659 652.531>
LayerCount: 2
Fore
SplineSet
714 880 m 2x80
 802 880 900 868 900 786 c 0
 900 766 895 744 883 720 c 0
 868 689 846 656 816 621 c 1
 788 578 759 510 732 450 c 0
 674 321 609 174 548 48 c 0
 514 -21 482 -95 431 -132 c 0
 409 -148 386 -156 367 -156 c 0
 309 -156 245 -86 288 -25 c 1
 403 195 511 434 627 654 c 0
 639 677 649 694 656 706 c 1
 434 705 l 2
 407 705 381 705 357 705 c 0x80
 291 705 237 707 186 723 c 0x40
 147 736 125 761 125 812 c 0
 125 867 182 881 246 881 c 0
 263 881 278 879 291 879 c 2
 714 880 l 2x80
EndSplineSet
EndChar

StartChar: eight
Encoding: 27 56 27
Width: 964
GlyphClass: 2
Flags: W
HStem: -25 145<434.521 713.622> 950 155<594.291 857.392>
VStem: 321 186<671.735 866.234> 756 177<164.008 372.081> 883 187<750.606 918.514>
LayerCount: 2
Fore
SplineSet
406 215 m 1xf0
 420 147 500 120 575 120 c 0
 665 120 728 158 749 216 c 0
 753 228 756 241 756 254 c 0
 756 263 754 272 752 282 c 0
 734 367 676 422 616 467 c 1
 562 416 505 369 459 319 c 0
 434 291 400 258 406 215 c 1xf0
883 853 m 0xe8
 883 906 826 929 792 940 c 0
 770 947 749 950 728 950 c 0
 620 950 547 880 518 814 c 0
 510 798 507 783 507 769 c 0
 507 763 508 757 509 751 c 0
 521 696 562 647 637 602 c 1
 738 642 831 716 871 804 c 0
 879 822 883 838 883 853 c 0xe8
487 540 m 1
 406 603 321 682 321 817 c 0
 321 897 358 955 401 998 c 0
 459 1057 547 1105 672 1105 c 0
 756 1105 850 1076 911 1049 c 0
 984 1017 1070 966 1070 859 c 0xe8
 1070 806 1046 762 1024 726 c 0
 978 652 904 584 828 538 c 0
 807 526 792 518 780 515 c 1
 860 459 908 387 926 298 c 0
 930 276 933 255 933 236 c 0xf0
 933 161 901 105 858 65 c 0
 801 11 706 -25 585 -25 c 0
 452 -25 340 26 274 110 c 0
 244 148 227 187 227 245 c 0
 227 287 240 326 267 362 c 0
 285 385 357 445 487 540 c 1
EndSplineSet
EndChar

StartChar: nine
Encoding: 28 57 28
Width: 1037
GlyphClass: 2
Flags: W
HStem: 103 150<440.499 684.876> 733 172<546.744 774.231>
VStem: 216 190<283.548 572.853> 817 191<366.939 691.024>
LayerCount: 2
Fore
SplineSet
406 408 m 0
 406 316 450 253 529 253 c 0
 612 253 675 289 727 322 c 0
 750 336 770 353 790 371 c 1
 808 436 817 497 817 552 c 0
 817 569 817 585 815 601 c 1
 813 607 816 611 814 617 c 0
 800 688 735 733 662 733 c 0
 600 733 557 700 524 669 c 0
 462 609 406 518 406 408 c 0
407 -403 m 0
 363 -403 311 -362 311 -311 c 0
 311 -286 323 -267 341 -254 c 0
 478 -160 593 -52 672 80 c 0
 691 111 706 137 718 158 c 1
 655 128 574 103 482 103 c 0
 310 103 216 239 216 434 c 0
 216 558 263 656 319 728 c 0
 391 819 503 905 665 905 c 0
 873 905 1008 740 1008 521 c 0
 1008 473 1000 427 988 369 c 0
 948 173 843 6 717 -144 c 0
 642 -232 550 -315 439 -393 c 1
 432 -402 422 -403 407 -403 c 0
EndSplineSet
EndChar

StartChar: colon
Encoding: 29 58 29
Width: 815
GlyphClass: 2
Flags: W
HStem: -16 270<405.049 584.06> 426 266<543.115 724.513>
VStem: 367 254<20.5 215.951> 504 259<466.365 652.568>
LayerCount: 2
Fore
SplineSet
367 114 m 0xe0
 367 193 428 254 507 254 c 0
 576 254 621 205 621 127 c 0
 621 49 565 -16 486 -16 c 0
 420 -16 367 38 367 114 c 0xe0
504 551 m 0xd0
 504 630 567 692 647 692 c 0
 715 692 763 641 763 564 c 0
 763 502 723 459 678 438 c 0
 661 430 643 426 623 426 c 0
 557 426 504 475 504 551 c 0xd0
EndSplineSet
EndChar

StartChar: semicolon
Encoding: 30 59 30
Width: 711
GlyphClass: 2
Flags: W
HStem: 426 262<406.032 596.719>
VStem: 374 255<459.701 657.041>
LayerCount: 2
Fore
SplineSet
573 233 m 1
 278 -279 l 1
 175 -279 l 1
 323 233 l 1
 573 233 l 1
374 558 m 0
 374 632 431 688 505 688 c 0
 566 688 611 652 624 590 c 0
 624 586 626 586 626 582 c 0
 628 573 629 564 629 556 c 0
 629 484 570 426 498 426 c 0
 429 426 374 480 374 558 c 0
EndSplineSet
EndChar

StartChar: less
Encoding: 31 60 31
Width: 1329
GlyphClass: 2
Flags: W
HStem: 179 186<1172 1310.88>
LayerCount: 2
Fore
SplineSet
1326 270 m 0
 1326 224 1293 179 1249 179 c 0
 1240 179 1234 181 1230 184 c 0
 952 326 675 467 397 610 c 0
 370 624 350 646 350 682 c 0
 350 724 383 750 418 766 c 0
 736 908 1046 1049 1363 1192 c 0
 1371 1195 1379 1197 1385 1197 c 0
 1416 1197 1437 1167 1437 1130 c 0
 1437 1090 1411 1062 1389 1041 c 0
 1376 1029 1359 1018 1338 1008 c 0
 1090 900 848 796 600 688 c 1
 819 580 1035 473 1254 365 c 1
 1291 346 1326 322 1326 270 c 0
EndSplineSet
EndChar

StartChar: equal
Encoding: 32 61 32
Width: 1510
GlyphClass: 2
Flags: W
HStem: 494 121<508.692 1469.35> 870 121<594.313 1582.1>
LayerCount: 2
Fore
SplineSet
1475 565 m 0
 1475 524 1439 494 1389 494 c 2
 553 494 l 2
 524 494 504 516 504 546 c 0
 504 587 538 615 588 615 c 2
 1423 615 l 2
 1453 615 1475 595 1475 565 c 0
1590 945 m 0
 1590 903 1550 870 1500 870 c 2
 664 870 l 2
 629 870 592 895 591 930 c 1
 591 972 638 991 698 991 c 2
 1534 991 l 2
 1567 991 1590 974 1590 945 c 0
EndSplineSet
EndChar

StartChar: greater
Encoding: 33 62 33
Width: 1355
GlyphClass: 2
Flags: W
HStem: 1012 183<417.997 550.121>
LayerCount: 2
Fore
SplineSet
365 181 m 0
 329 181 295 213 295 255 c 0
 295 315 342 343 400 365 c 1
 646 473 884 580 1130 688 c 1
 908 796 689 904 467 1012 c 0
 431 1030 404 1060 404 1113 c 0
 404 1156 424 1195 467 1195 c 0
 473 1195 479 1194 485 1192 c 2
 1331 766 l 2
 1357 752 1390 730 1390 694 c 0
 1390 682 1385 669 1376 657 c 0
 1364 641 1343 625 1314 610 c 1
 1001 467 695 327 383 184 c 0
 377 182 371 181 365 181 c 0
EndSplineSet
EndChar

StartChar: question
Encoding: 34 63 34
Width: 903
GlyphClass: 2
Flags: W
HStem: -16 270<367.274 527.116> 1037 151<608.669 810.367>
VStem: 318 257<31.8156 204.625> 424 122<359.065 493.741> 820 177<855.453 1031.07>
LayerCount: 2
Fore
SplineSet
428 -16 m 0xe8
 364 -16 318 32 318 103 c 0
 318 168 363 216 407 238 c 0
 427 248 448 254 470 254 c 0
 534 254 575 209 575 139 c 0
 575 92 553 56 529 30 c 0
 508 6 474 -16 428 -16 c 0xe8
430 831 m 0
 391 831 346 851 346 894 c 0
 346 912 356 925 364 938 c 0
 428 1044 532 1133 671 1172 c 0
 710 1183 749 1188 785 1188 c 0
 910 1188 997 1118 997 975 c 0
 997 920 978 880 950 841 c 0
 893 763 811 707 721 640 c 1
 658 587 601 524 566 450 c 0
 556 429 550 409 546 390 c 0
 541 370 510 357 482 357 c 0
 457 357 430 369 424 394 c 1
 424 405 l 1xd8
 427 455 444 505 477 555 c 0
 510 605 552 653 603 699 c 1
 673 751 750 815 797 884 c 0
 812 906 820 924 820 949 c 0
 820 1005 792 1037 742 1037 c 0
 688 1037 638 1012 602 988 c 0
 552 956 506 911 478 860 c 0
 467 841 451 831 430 831 c 0
EndSplineSet
EndChar

StartChar: at
Encoding: 35 64 35
Width: 1856
GlyphClass: 2
Flags: W
HStem: -155 139<718.507 1323.09> 199 131<783.766 1095.4 1453 1596.59> 1008 120<1003.91 1371.4> 1317 139<895.898 1453.44>
VStem: 228 160<272.079 775.309> 568 156<389.581 729.732> 1756 159<565.484 1056.14>
LayerCount: 2
Fore
SplineSet
1373 987 m 1
 1323 997 1257 1008 1198 1008 c 0
 1064 1008 960 951 888 888 c 0
 796 807 724 685 724 527 c 0
 724 396 793 330 928 330 c 0
 1072 330 1156 399 1218 485 c 0
 1310 612 1352 785 1373 987 c 1
1756 838 m 0
 1756 1202 1477 1317 1165 1317 c 0
 933 1317 762 1232 644 1122 c 1
 504 994 415 805 392 578 c 0
 389 551 388 524 388 497 c 0
 388 360 426 235 522 142 c 0
 636 32 809 -16 1018 -16 c 0
 1211 -16 1359 27 1467 94 c 0
 1492 110 1503 118 1519 134 c 1
 1602 42 l 1
 1478 -81 1266 -155 995 -155 c 0
 727 -155 515 -85 379 64 c 0
 273 180 228 331 228 489 c 0
 228 519 230 548 233 578 c 0
 269 941 460 1205 752 1354 c 0
 866 1412 1004 1456 1172 1456 c 0
 1397 1456 1586 1397 1722 1284 c 0
 1832 1193 1915 1051 1915 844 c 0
 1915 739 1895 634 1871 566 c 0
 1822 426 1737 314 1607 248 c 0
 1552 220 1489 199 1413 199 c 0
 1361 199 1325 217 1324 271 c 0
 1324 285 1324 300 1326 316 c 2
 1350 548 l 1
 1309 410 1211 292 1070 232 c 0
 1019 210 961 199 897 199 c 0
 700 199 568 315 568 536 c 0
 568 663 621 769 674 845 c 0
 755 961 875 1059 1037 1106 c 0
 1087 1121 1141 1128 1195 1128 c 0
 1269 1128 1355 1116 1422 1104 c 0
 1470 1096 1492 1074 1506 1027 c 0
 1509 1014 1516 1001 1521 987 c 1
 1453 317 l 1
 1553 317 1609 361 1651 420 c 0
 1711 506 1738 622 1752 758 c 0
 1755 786 1756 813 1756 838 c 0
EndSplineSet
EndChar

StartChar: A
Encoding: 36 65 36
Width: 1522
GlyphClass: 2
Flags: W
HStem: -129 163<555.759 852.557> -105 142<1320.49 1516.81> 1146 154<969.67 1293.49>
VStem: 214 210<184.572 596.865> 1136 158<62.5529 221.08>
LayerCount: 2
Back
SplineSet
1341.64743637 -192.586122491 m 4
 1268.24627774 -192.586122491 1224.18329823 -125.378663 1224.18329823 -54.6642727257 c 4
 1224.18329823 -44.2925822459 1225.12353354 -33.6915714852 1227.08470784 -23 c 6
 1297.21674345 359.333007812 l 5
 1184.44843931 322.097123302 1052.24458565 310.690894405 914.082762171 310.690894405 c 4
 761.487938435 310.690894405 601.62533442 324.604688544 452.652913906 333 c 5
 336.01168013 65 l 6
 306.78255662 -2.15811250372 283.684145054 -130.656160883 191.089863926 -130.656160883 c 4
 115.651547274 -130.656160883 66.2366334802 -70.3499739139 66.2366334802 -0.56703483392 c 4
 66.2366334802 22.5824223023 71.5544064616 46.91218517 83.0853617905 70.6083984375 c 6
 490.573471448 908 l 6
 606.907742747 1147.06793708 779.038811653 1438.60820216 1116.17069342 1438.60820216 c 4x76
 1438.34859218 1438.60820216 1618.81457273 1167.7035591 1618.81457273 843.993365319 c 4
 1618.81457273 756.850314341 1607.80670853 669.799012383 1593.75530676 583.684602728 c 4
 1558.65040111 368.543204364 1527.62266529 142.391232317 1461.75592815 -61.6345426812 c 4
 1444.83223871 -114.056584569 1409.44091854 -192.586122491 1341.64743637 -192.586122491 c 4
  Spiro
    972.445 299.19 o
    914.282 299.928 o
    855.925 302.418 o
    797.762 306.205 o
    740.153 310.795 o
    682.39 315.797 o
    624.798 320.774 o
    567.493 325.363 o
    509.996 329.471 o
    452.653 333 v
    336.012 65 ]
    326.34 42.139 o
    296.894 -42.8314 o
    205.48 -125.716 o
    71.7455 41.9861 o
    78.185 59.9545 o
    83.0854 70.6084 [
    490.573 908 ]
    1099.66 1438.37 o
    1538.03 1187.73 o
    1473.27 -23.2248 o
    1461.76 -61.6345 o
    1363.51 -187.584 o
    1250.44 -143.431 o
    1224.49 -44.3674 o
    1226.35 -27.2593 o
    1227.08 -23 [
    1297.22 359.333 v
    1258.38 346.308 o
    1137.62 310.384 o
    0 0 z
  EndSpiro
1385.44135421 919.038937372 m 4
 1385.44135421 1103.7893947 1286.37319986 1262.20633914 1100.74980236 1262.20633914 c 4x2e
 875.124393052 1262.20633914 744.854985174 1041.6822423 673.5859375 879 c 6
 503.169921875 490 l 5
 1316.2421875 451.885742188 l 5
 1330.56347656 536 l 6
 1352.25053412 663.371703858 1385.44135421 788.037457224 1385.44135421 919.038937372 c 4
  Spiro
    673.586 879 v
    503.17 490 v
    1316.24 451.886 v
    1330.56 536 ]
    1225.89 1231.2 o
    849.365 1152.99 o
    0 0 z
  EndSpiro
EndSplineSet
Fore
SplineSet
673 -129 m 0xb8
 379 -129 214 103 214 366 c 0
 214 858 708 1300 1193 1300 c 0
 1260 1300 1284 1300 1298 1241 c 0
 1308 1201 1389 1218 1426 1203 c 0
 1475 1183 1501 1142 1501 1085 c 0
 1501 1068 1499 1051 1494 1032 c 2
 1321 309 l 2
 1310 263 1294 208 1294 160 c 0
 1294 95 1333 37 1414 37 c 0
 1522 37 1599 173 1647 239 c 0
 1664 263 1686 273 1707 273 c 0
 1750 273 1792 232 1792 190 c 0
 1792 170 1782 149 1758 132 c 1
 1695 22 1544 -105 1384 -105 c 0x78
 1249 -105 1136 -19 1136 120 c 0
 1136 152 1140 186 1146 223 c 1
 1085 69 917 -129 673 -129 c 0xb8
424 372 m 0
 424 210 515 34 685 34 c 0xb8
 937 34 1083 302 1137 504 c 2
 1305 1129 l 1
 1263 1141 1222 1146 1182 1146 c 0
 806 1146 424 753 424 372 c 0
EndSplineSet
EndChar

StartChar: B
Encoding: 37 66 37
Width: 1616
GlyphClass: 2
Flags: W
HStem: -132 184<817.064 1158.43> 820 57<1039 1327.5> 1362 166<807.733 1237.59>
VStem: 1362 179<991.241 1252.71> 1380 227<237.101 562.614>
LayerCount: 2
UndoRedoHistory
Layer: 0
Undoes
EndUndoes
Redoes
EndRedoes
EndUndoRedoHistory
Back
SplineSet
945.189453125 83.3740234375 m 4xf4
 1169.53125 83.3740234375 1378.34179688 181.352539062 1378.34179688 412.580078125 c 4
 1378.34179688 620.759765625 1201.51171875 711.38671875 1020 745 c 6
 993 750 l 5
 814 93 l 5
 858.940429688 86.626953125 902.896484375 83.3740234375 945.189453125 83.3740234375 c 4xf4
  Spiro
    993 750 v
    814 93 v
    1235.61 153.956 [
    1375 455 o
    1020 745 [
    0 0 z
  EndSpiro
1047.88183594 875.907226562 m 4
 1260.93652344 875.907226562 1361.76171875 1014.24707031 1361.76171875 1116.76074219 c 4
 1361.76171875 1240.75390625 1244.46386719 1365.70117188 1039.00585938 1365.70117188 c 4
 780.579101562 1365.70117188 606.14453125 1204.72070312 482 1094 c 4
 456.36328125 1071.13574219 420.955078125 1036.03613281 373.45703125 1036.03613281 c 4
 317.767578125 1036.03613281 279.037109375 1077.9296875 279.037109375 1130.28710938 c 4
 279.037109375 1186.94628906 317.254882812 1221.76953125 350 1251 c 4
 514.430664062 1397.78320312 735.931640625 1524.24707031 1021.328125 1524.24707031 c 4
 1276.61523438 1524.24707031 1538.28125 1384.90625 1538.28125 1124.81542969 c 4xf8
 1538.28125 963.21875 1409.39160156 820.525390625 1239.62011719 820.525390625 c 4
 1219.265625 820.525390625 1198.91894531 822.646484375 1179 827 c 5
 1387.23535156 785.282226562 1607 674.655273438 1607 428.018554688 c 4
 1606.99121094 49.7353515625 1200.41601562 -138.72265625 825.213867188 -138.72265625 c 4
 673.357421875 -138.72265625 520.90625 -107.885742188 380 -51 c 4
 334.734375 -32.7255859375 269.81640625 -1.6328125 269.81640625 63.064453125 c 4
 269.81640625 126.546875 316.774414062 151.8828125 373.202148438 151.8828125 c 4
 388.171875 151.8828125 404 150 420 147 c 6
 611 113 l 5
 848 905 l 6
 871.2890625 982.885742188 904.99609375 1016.96972656 936.658203125 1016.96972656 c 4
 1004.02050781 1016.96972656 1021.39746094 980.126953125 1021.39746094 956.591796875 c 4
 1021.39746094 936.999023438 1014.09863281 916.48828125 1014.09863281 901.049804688 c 4
 1014.09863281 886.100585938 1020.94238281 875.907226562 1047.88183594 875.907226562 c 4
EndSplineSet
UndoRedoHistory
Layer: 1
Undoes
EndUndoes
Redoes
EndRedoes
EndUndoRedoHistory
Fore
SplineSet
902 52 m 0xe8
 1152 52 1380 152 1380 405 c 0
 1380 608 1210 710 1020 745 c 2
 993 750 l 1
 814 55 l 1
 844 53 874 52 902 52 c 0xe8
946 1019 m 0
 995 1019 1028 976 1028 941 c 0
 1028 927 1026 913 1026 902 c 0
 1026 887 1029 877 1049 877 c 0
 1059 877 1073 879 1092 885 c 0
 1230 925 1362 951 1362 1127 c 0
 1362 1294 1199 1362 1031 1362 c 0
 751 1362 611 1194 453 1069 c 0
 427 1049 401 1040 377 1040 c 0
 324 1040 281 1082 281 1135 c 0
 281 1162 292 1191 317 1219 c 0
 457 1374 723 1528 1005 1528 c 0
 1266 1528 1541 1384 1541 1128 c 0xf0
 1541 964 1413 820 1242 820 c 0
 1228 820 1214 821 1199 823 c 1
 1403 779 1607 668 1607 423 c 0
 1607 27 1238 -132 863 -132 c 0
 728 -132 593 -111 473 -74 c 0
 409 -54 264 -18 264 52 c 0
 264 94 296 158 367 158 c 0
 383 158 400 154 420 147 c 2
 611 75 l 1
 848 905 l 2
 862 953 891 1019 946 1019 c 0
EndSplineSet
EndChar

StartChar: C
Encoding: 38 67 38
Width: 1639
GlyphClass: 2
Flags: W
HStem: -91 185<836.677 1230.24> 646 159<1020.54 1326.33> 1352 170<978.939 1342.75>
VStem: 372 234<347.702 886.575> 1474 180<930.973 1219.98>
LayerCount: 2
UndoRedoHistory
Layer: 0
Undoes
EndUndoes
Redoes
EndRedoes
EndUndoRedoHistory
Back
SplineSet
1733.1796875 349.190429688 m 0
 1734.91015625 354.379882812 1735.77539062 358.705078125 1735.77539062 363.030273438 c 0
 1735.77539062 394.169921875 1699.4453125 413.200195312 1674.36035156 413.200195312 c 0
 1663.11523438 413.200195312 1652.73535156 410.60546875 1644.08496094 402.8203125 c 0
 1459.83984375 222.900390625 1286.83984375 31.7353515625 981.495117188 31.7353515625 c 0
 765.245117188 31.7353515625 664.905273438 176.190429688 664.905273438 410.60546875 c 0
 664.905273438 766.985351562 895.860351562 1332.6953125 1273.86523438 1332.6953125 c 0
 1398.42480469 1332.6953125 1467.625 1261.76464844 1467.625 1138.93457031 c 0
 1467.625 957.28515625 1327.49511719 806.775390625 1150.16992188 806.775390625 c 0
 1062.8046875 806.775390625 1003.12011719 797.259765625 1003.12011719 728.924804688 c 0
 1003.12011719 632.044921875 1055.01953125 613.014648438 1164.00976562 613.014648438 c 0
 1429.56542969 613.014648438 1661.38476562 883.759765625 1661.38476562 1155.37011719 c 0
 1661.38476562 1375.08007812 1518.66015625 1526.45507812 1304.13964844 1526.45507812 c 0
 778.219726562 1526.45507812 415.78515625 924.415039062 415.78515625 393.3046875 c 0
 415.78515625 -15.83984375 652.794921875 -175 927 -175 c 0
 1253.96972656 -175 1634.5703125 50.7646484375 1733.1796875 349.190429688 c 0
EndSplineSet
UndoRedoHistory
Layer: 1
Undoes
EndUndoes
Redoes
EndRedoes
EndUndoRedoHistory
Fore
SplineSet
1622 512 m 5
 1631 518 1640 521 1649 521 c 4
 1687 521 1736 472 1736 435 c 4
 1736 431 1736 427 1735 424 c 4
 1627 85 1299 -91 1005 -91 c 4
 621 -91 372 199 372 581 c 4
 372 1059 689 1522 1174 1522 c 4
 1419 1522 1654 1369 1654 1117 c 4
 1654 864 1446 721 1251 663 c 4
 1214 651 1172 646 1134 646 c 4
 1054 646 966 676 966 762 c 4
 966 804 999 837 1043 837 c 4
 1095 837 1144 805 1199 805 c 4
 1347 805 1474 923 1474 1072 c 4
 1474 1239 1341 1352 1180 1352 c 4
 817 1352 606 960 606 599 c 4
 606 325 734 94 1028 94 c 4
 1399 94 1596 485 1622 512 c 5
EndSplineSet
EndChar

StartChar: D
Encoding: 39 68 39
Width: 1594
GlyphClass: 2
Flags: W
HStem: 1312 164<693.115 1155.92>
VStem: 1415 232<630.119 1058.43>
LayerCount: 2
UndoRedoHistory
Layer: 0
Undoes
EndUndoes
Redoes
EndRedoes
EndUndoRedoHistory
Back
SplineSet
357 877 m 4
 314 877 242 929 242 981 c 4
 242 986 243 991 244 996 c 4
 284 1144 448 1447 925 1447 c 4
 1298 1447 1514 1244 1560 1029 c 0
 1566 1001 1568 973 1568 945 c 0
 1568 731 1398 530 1042 527 c 0
 1040 527 1039 526 1037 526 c 0
 994 526 949 530 903 537 c 1
 787 74 l 1
 769 -14 718 -51 667 -51 c 0
 602 -51 538 8 538 97 c 0
 538 118 543 141 550 165 c 2
 782 936 l 2
 808 1011 856 1040 892 1040 c 0
 945 1040 991 987 977 912 c 2
 929 657 l 1
 1196 657 1342 822 1342 983 c 0
 1342 1001 1341 1018 1337 1035 c 0
 1309 1167 1176 1283 920 1283 c 4
 509 1283 492 978 386 887 c 4
 378 880 368 877 357 877 c 4
1635 327 m 0
 1670 327 1692 297 1692 256 c 0
 1692 226 1681 192 1654 160 c 0
 1526 9 1409 -53 1300 -53 c 0
 1077 -53 911 218 741 547 c 1
 794 561 839 549 891 570 c 1
 1047 307 1176 127 1299 127 c 0
 1378 127 1459 179 1554 281 c 0
 1585 314 1612 327 1635 327 c 0
EndSplineSet
UndoRedoHistory
Layer: 1
Undoes
EndUndoes
Redoes
EndRedoes
EndUndoRedoHistory
Fore
SplineSet
1647 838 m 4
 1647 304.737304688 1216.12988281 -38 552 -38 c 0
 488 -38 436 17 436 88 c 0
 436 115 444 140 452 160 c 2
 783 1003 l 6
 801 1050 845 1076 885 1076 c 4
 926 1076 963 1049 963 989 c 4
 963 975 961 959 956 941 c 4
 917.728515625 802.83203125 759.177734375 237.69140625 722 139 c 1
 1168.89746094 187.002929688 1415 545.981445312 1415 858 c 4
 1415 1100 1258 1312 921 1312 c 4
 495.451171875 1312 445.751953125 983.893554688 336 886 c 0
 328 879 318 876 307 876 c 0
 264 876 192 928 192 980 c 0
 192 985 193 990 194 995 c 0
 235.092773438 1154.97753906 447.749023438 1476 946 1476 c 4
 1348 1476 1647 1225 1647 838 c 4
EndSplineSet
EndChar

StartChar: E
Encoding: 40 69 40
Width: 1555
GlyphClass: 2
Flags: W
HStem: -45.8516 155.154<614.182 1279.03> -11.1348 83.248<461.496 560.927> 582.535 181.022<783.219 1226.34> 1302.56 178.062<1030.05 1566.72>
VStem: 748.755 130<1107 1161.9> 1604.85 217.151<1071.76 1259.15>
LayerCount: 2
UndoRedoHistory
Layer: 0
Undoes
EndUndoes
Redoes
EndRedoes
EndUndoRedoHistory
UndoRedoHistory
Layer: 1
Undoes
EndUndoes
Redoes
EndRedoes
EndUndoRedoHistory
Fore
SplineSet
478.747070312 1084 m 4x3c
 454.770507812 1073.56542969 435.247070312 1065 420.747070312 1065 c 4
 379.747070312 1065 331.747070312 1102.37597656 331.747070312 1144 c 4
 331.747070312 1159 338.774414062 1177.96289062 360.747070312 1194 c 4
 485.139648438 1288.99121094 1012.17285156 1480.62109375 1397.80273438 1480.62109375 c 4
 1637.16308594 1480.62109375 1822 1406.67089844 1822 1189.66308594 c 4
 1822 1102.10351562 1781.4921875 1028 1670.74707031 1028 c 4
 1604.28027344 1028 1587.52441406 1047.93554688 1587.52441406 1076.6796875 c 4
 1587.52441406 1105.90820312 1604.84863281 1144.24511719 1604.84863281 1179.9921875 c 4
 1604.84863281 1268.99121094 1511.98046875 1302.55859375 1377.75488281 1302.55859375 c 4
 1109.55859375 1302.55859375 681.5078125 1176.94921875 478.747070312 1084 c 4x3c
1424.41308594 -3.412109375 m 0
 1424.41308594 -58.509765625 1382.25292969 -96.6328125 1333.58007812 -96.6328125 c 0
 1297.86523438 -96.6328125 1260.01660156 -87.0234375 1226.19921875 -77.5810546875 c 0
 1181.1640625 -64.228515625 1135.30859375 -51.9716796875 1087.66210938 -45.8515625 c 0xbc
 868.56640625 -39.7177734375 626.780273438 -41.5478515625 403.802734375 -37.537109375 c 0
 370.05078125 -35.55078125 282.969726562 -22.919921875 282.969726562 -1.263671875 c 0
 282.969726562 7.5703125 286.529296875 17.2138671875 294.912109375 27.6357421875 c 0
 321.825195312 62.34375 363.294921875 72.11328125 409.546875 72.11328125 c 0x7c
 464.65234375 72.11328125 526.369140625 70.6474609375 579.013671875 70.357421875 c 1
 694.098632812 78.291015625 919.999023438 109.302734375 1109.86621094 109.302734375 c 0xbc
 1241.95703125 109.302734375 1356.60839844 94.29296875 1404.37207031 46.0595703125 c 1
 1418.19726562 30.43359375 1424.41308594 13.2294921875 1424.41308594 -3.412109375 c 0
1256.95898438 694.609375 m 0
 1256.80664062 613.3203125 1165.48828125 582.53515625 1087.95703125 582.53515625 c 0
 959.546875 582.53515625 833.4765625 594.521484375 716.508789062 607.717773438 c 0
 674.123046875 614.029296875 630.995117188 612.3359375 584.754882812 616 c 0
 523.037109375 619.625976562 510.142578125 653.981445312 508.754882812 702 c 1
 707.642578125 730.524414062 1080.91894531 761.463867188 1159.23828125 763.463867188 c 0
 1161.34082031 763.525390625 1163.43359375 763.557617188 1165.515625 763.557617188 c 0
 1214.49707031 763.557617188 1256.95898438 745.96484375 1256.95898438 694.609375 c 0
878.754882812 1110 m 1
 860.846679688 1043.58203125 699.512695312 396.14453125 604.754882812 42 c 0
 595.041015625 4.08203125 560.926757812 -11.134765625 523.859375 -11.134765625 c 0x7c
 461.49609375 -11.134765625 401.598632812 17.1796875 401.598632812 67.708984375 c 0
 401.598632812 69.8984375 401.421875 72.029296875 401.421875 74.1767578125 c 0
 401.421875 76.7216796875 401.669921875 79.2880859375 402.754882812 82 c 2
 748.754882812 1107 l 1
 761.416992188 1150.01171875 789.962890625 1166.52539062 817.110351562 1166.52539062 c 0
 850.5546875 1166.52539062 881.875 1141.46191406 878.754882812 1110 c 1
EndSplineSet
EndChar

StartChar: F
Encoding: 41 70 41
Width: 1327
GlyphClass: 2
Flags: W
HStem: 676.224 173.091<798.855 1218.46> 685.965 105.035<337.113 564.37> 1302.56 178.062<980.052 1516.72>
VStem: 1554.85 217.151<1071.76 1259.15>
LayerCount: 2
UndoRedoHistory
Layer: 0
Undoes
EndUndoes
Redoes
EndRedoes
EndUndoRedoHistory
Back
SplineSet
673.252929688 362 m 1
 604.252929688 63 l 2
 597.252929688 31 587.766601562 -1.2421875 578.610351562 -33.1162109375 c 0
 576.078125 -41.9326171875 573.23046875 -50.716796875 568.974609375 -58.8427734375 c 0
 564.717773438 -66.96875 558.916015625 -74.369140625 551.5546875 -79.841796875 c 0
 545.83203125 -84.095703125 539.2578125 -87.15234375 532.388671875 -89.06640625 c 0
 525.520507812 -90.98046875 518.380859375 -91.796875 511.252929688 -92 c 0
 487.64453125 -92.671875 464.123046875 -88.3984375 441.178710938 -82.7958984375 c 0
 417.778320312 -77.0830078125 394.41015625 -69.337890625 374.680664062 -55.51953125 c 0
 367.16796875 -50.2568359375 360.30078125 -43.955078125 355.07421875 -36.4169921875 c 0
 349.84765625 -28.87890625 346.399414062 -20.1005859375 345.252929688 -11 c 0
 344.259765625 -3.11328125 344.94921875 4.916015625 346.538085938 12.705078125 c 0
 348.126953125 20.494140625 350.537109375 28.0888671875 352.979492188 35.6533203125 c 0
 358.485351562 52.703125 363.7890625 69.8251953125 369.86328125 86.6796875 c 0
 375.525390625 102.387695312 381.438476562 118.012695312 386.252929688 134 c 2
 626.252929688 931 l 2
 633.349609375 952.736328125 644.009765625 973.391601562 658.290039062 991.25 c 0
 669.108398438 1004.77929688 682.201171875 1016.69921875 697.552734375 1024.72460938 c 0
 709.489257812 1030.96582031 722.784179688 1034.85253906 736.252929688 1035 c 0
 748.547851562 1035.13476562 761.043945312 1031.83789062 770.965820312 1024.57617188 c 0
 780.71484375 1017.44042969 787.51953125 1006.8046875 791.525390625 995.407226562 c 0
 796.510742188 981.225585938 798.025390625 966.030273438 798.252929688 951 c 0
 798.32421875 946.310546875 798.200195312 941.619140625 797.883789062 936.940429688 c 0
 797.5546875 932.083984375 797.08203125 927.23828125 796.62109375 922.392578125 c 0
 796.129882812 917.219726562 795.252929688 912 794.252929688 907 c 2
 673.252929688 362 l 1
  Spiro
    673.253 362 v
    604.253 63 ]
    578.611 -33.1163 o
    551.555 -79.8417 o
    511.253 -92 o
    441.179 -82.7961 o
    374.681 -55.5195 o
    345.253 -11 o
    352.98 35.6536 o
    369.864 86.6801 o
    386.253 134 [
    626.253 931 v
    658.29 991.25 o
    697.552 1024.72 o
    736.253 1035 o
    770.966 1024.58 o
    791.526 995.407 o
    798.253 951 o
    797.883 936.94 o
    796.622 922.393 o
    794.253 907 [
    0 0 z
  EndSpiro
EndSplineSet
UndoRedoHistory
Layer: 1
Undoes
EndUndoes
Redoes
EndRedoes
EndUndoRedoHistory
Fore
SplineSet
428.747070312 1084 m 0x30
 404.770507812 1073.56542969 385.247070312 1065 370.747070312 1065 c 0
 329.747070312 1065 281.747070312 1102.37597656 281.747070312 1144 c 0
 281.747070312 1159 288.774414062 1177.96289062 310.747070312 1194 c 0
 435.139648438 1288.99121094 962.172851562 1480.62109375 1347.80273438 1480.62109375 c 0
 1587.16308594 1480.62109375 1772 1406.67089844 1772 1189.66308594 c 0
 1772 1102.10351562 1731.4921875 1028 1620.74707031 1028 c 0
 1554.28027344 1028 1537.52441406 1047.93554688 1537.52441406 1076.6796875 c 0
 1537.52441406 1105.90820312 1554.84863281 1144.24511719 1554.84863281 1179.9921875 c 0
 1554.84863281 1268.99121094 1461.98046875 1302.55859375 1327.75488281 1302.55859375 c 0
 1059.55859375 1302.55859375 631.5078125 1176.94921875 428.747070312 1084 c 0x30
1100.86035156 676.223632812 m 0xb0
 993.655273438 676.223632812 901.698242188 717.997070312 793.809570312 717.997070312 c 0
 656.1015625 717.997070312 528.939453125 685.96484375 406.236328125 685.96484375 c 0
 368.444335938 685.96484375 335.868164062 702.345703125 335.868164062 742.237304688 c 0
 335.868164062 776.344726562 385.0546875 787.499023438 420 791 c 0x70
 644.481445312 828.551757812 889.18359375 849.314453125 1127.51464844 849.314453125 c 0
 1196.02734375 849.314453125 1266.78515625 834.94921875 1266.78515625 779.706054688 c 0
 1266.78515625 745.0859375 1241.7421875 717.81640625 1220 704 c 0
 1187.29589844 683.216796875 1145.46972656 676.223632812 1100.86035156 676.223632812 c 0xb0
823 1051 m 1
 742.141601562 687.831054688 659.637695312 326.36328125 578 -36 c 1
 563.09765625 -75.0322265625 527.139648438 -90.4521484375 487.579101562 -90.4521484375 c 0
 419.3046875 -90.4521484375 340.303710938 -44.525390625 340.303710938 5.2109375 c 0
 340.303710938 17.4521484375 345.08984375 29.9248046875 356 42 c 1
 677 1075 l 1
 688.625976562 1123.43945312 710.262695312 1140.38574219 733.491210938 1140.38574219 c 0
 776.717773438 1140.38574219 825.45703125 1081.70605469 825.45703125 1058.09472656 c 0
 825.45703125 1055.10351562 824.674804688 1052.67480469 823 1051 c 1
EndSplineSet
EndChar

StartChar: G
Encoding: 42 71 42
Width: 1486
GlyphClass: 2
Flags: W
HStem: -40 181<665.41 980.469> 1292 163<935.93 1311.73>
VStem: 308 218<292.257 788.049> 1316 184<706.988 820.805>
LayerCount: 2
UndoRedoHistory
Layer: 0
Undoes
EndUndoes
Redoes
EndRedoes
EndUndoRedoHistory
Back
SplineSet
1220.1796875 613.080078125 m 0
 1394.90039062 613.080078125 1469.78027344 549.120117188 1469.78027344 376.740234375 c 0
 1469.78027344 19.5 1378.51953125 -307.3203125 1137.5 -425.879882812 c 0
 1087.58007812 -450.83984375 1029.86035156 -463.3203125 965.120117188 -463.3203125 c 0
 871.51953125 -463.3203125 720.200195312 -436.799804688 720.200195312 -345.540039062 c 0
 720.200195312 -294.83984375 754.51953125 -233.219726562 806 -233.219726562 c 0
 887.900390625 -233.219726562 932.360351562 -288.599609375 1020.5 -288.599609375 c 0
 1160.90039062 -288.599609375 1232.66015625 10.1396484375 1261.51953125 130.259765625 c 1
 1149.98046875 28.080078125 1023.62011719 -39 806 -39 c 0
 517.400390625 -39 346.580078125 197.33984375 346.580078125 486.719726562 c 0
 346.580078125 885.299804688 540.799804688 1168.44042969 781.040039062 1330.6796875 c 0
 885.559570312 1400.87988281 1017.37988281 1460.16015625 1176.5 1460.16015625 c 0
 1371.5 1460.16015625 1469 1335.36035156 1469 1137.24023438 c 0
 1469 1050.66015625 1422.98046875 939.900390625 1342.63964844 939.900390625 c 0
 1295.05957031 939.900390625 1266.20019531 990.599609375 1266.20019531 1038.95996094 c 0
 1266.20019531 1084.20019531 1295.05957031 1109.94042969 1295.05957031 1156.74023438 c 0
 1295.05957031 1245.66015625 1256.05957031 1312.74023438 1174.94042969 1312.74023438 c 0
 996.3203125 1312.74023438 865.280273438 1194.1796875 777.139648438 1088.87988281 c 0
 656.240234375 945.360351562 571.219726562 741.780273438 571.219726562 478.919921875 c 0
 571.219726562 282.360351562 661.700195312 160.6796875 856.700195312 160.6796875 c 0
 1034.54003906 160.6796875 1166.36035156 212.940429688 1278.6796875 287.040039062 c 1
 1285.70019531 312.780273438 1294.28027344 341.639648438 1294.28027344 371.280273438 c 0
 1294.28027344 425.099609375 1268.54003906 438.360351562 1215.5 438.360351562 c 0
 1153.09960938 438.360351562 1094.59960938 468 1094.59960938 528.059570312 c 0
 1094.59960938 588.900390625 1156.21972656 613.080078125 1220.1796875 613.080078125 c 0
EndSplineSet
UndoRedoHistory
Layer: 1
Undoes
EndUndoes
Redoes
EndRedoes
EndUndoRedoHistory
Fore
SplineSet
1396 840 m 0
 1458 840 1500 792 1500 716 c 0
 1500 690 1496 663 1493 637 c 0
 1468 444 1430 183 1398 -9 c 0
 1375 -147 1378 -233 1296 -233 c 0
 1237 -233 1166 -227 1166 -146 c 0
 1166 -133 1168 -119 1172 -102 c 0
 1191 -18 1236 165 1250 238 c 1
 1140 106 1011 -40 778 -40 c 0
 451 -40 308 224 308 516 c 0
 308 644 336 777 388 897 c 0
 501 1158 747 1455 1114 1455 c 0
 1269 1455 1420 1383 1522 1303 c 0
 1554 1277 1623 1216 1623 1158 c 0
 1623 1122 1585 1080 1545 1080 c 0
 1468 1080 1394 1194 1353 1223 c 0
 1295 1264 1215 1292 1142 1292 c 0
 852 1292 686 1079 599 867 c 0
 555 761 526 631 526 510 c 0
 526 310 606 141 830 141 c 0
 1093 141 1224 356 1273 577 c 2
 1316 772 l 2
 1326 819 1360 840 1396 840 c 0
EndSplineSet
EndChar

StartChar: H
Encoding: 43 72 43
Width: 1683
GlyphClass: 2
Flags: W
HStem: 574 156<446.068 539 1085 1198.14> 585 108<1263.86 1395.11>
VStem: 706 185<864.487 1402.54> 1209 255<-28.8993 89>
LayerCount: 2
UndoRedoHistory
Layer: 0
Undoes
EndUndoes
Redoes
EndRedoes
EndUndoRedoHistory
Back
SplineSet
329 -83 m 4
 267 -83 216 -40 216 19 c 4
 216 129 345 149 417 190 c 4
 546 264 590 434 637 583 c 4
 687 743 757 914 757 1109 c 4
 757 1179 743 1250 743 1320 c 4
 743 1378 761 1444 825 1443 c 5
 824 1442 l 5
 825 1442 826 1442 827 1442 c 4
 889 1442 911 1393 931 1347 c 4
 1071 1021 1196 632 1336 302 c 5
 1624 1240 l 6
 1653 1335 1732 1492 1862 1492 c 4
 1925 1492 1977 1448 1977 1383 c 4
 1977 1304 1874 1268 1823 1229 c 4
 1748 1172 1717 1059 1685 958 c 4
 1602 693 1533 414 1454 141 c 4
 1431 62 1392 -27 1292 -27 c 4
 1240 -27 1197 6 1181 43 c 4
 1110 210 1058 384 992 552 c 6
 841 937 l 5
 817 748 781 584 724 416 c 4
 667 248 582 63 445 -38 c 4
 416 -60 376 -83 329 -83 c 4
EndSplineSet
UndoRedoHistory
Layer: 1
Undoes
EndUndoes
Redoes
EndRedoes
EndUndoRedoHistory
Fore
SplineSet
1377 693 m 0x70
 1085 730 l 0
 992.814453125 730 910.333007812 730 823 730 c 2
 539 728 l 1
 495 726 433 708 433 667 c 0
 433 613.947265625 472 583.631835938 506 571 c 1
 709.314453125 571.75 912.62890625 572.75 1119 574 c 1xb0
 1212.375 574 1274.625 585 1368 585 c 0
 1414 588 1455 602 1455 637 c 0
 1455 676 1411 686 1377 693 c 0x70
1319 394 m 1
 1209 89 l 2
 1176.73535156 -6.8017578125 1235.06054688 -72 1312 -72 c 0
 1399 -72 1450.73144531 -9.8681640625 1464 51 c 0
 1533.2578125 348.999023438 1648.70214844 808.40234375 1709 1040 c 0
 1790 1316 1976 1264 1976 1376 c 0
 1976 1451.55859375 1925.91796875 1490 1847 1490 c 0
 1766.44140625 1490 1664.12109375 1449.52832031 1598 1271 c 0
 1548.55761719 1137.50488281 1328.54101562 394 1319 394 c 1
788 382 m 1
 856.666992188 634.521484375 891 910.221679688 891 1203 c 4
 891 1311 867 1443 773 1443 c 0
 732 1443 708 1420 706 1384 c 0
 676.547851562 909.499023438 641.459960938 357.094726562 440 206 c 0
 372.735351562 155.551757812 218 143 218 0 c 0
 218 -60.8583984375 277.165039062 -112 332 -112 c 0
 484.819335938 -112 575.974609375 -27.779296875 643 54 c 0
 709 143 755 262 788 382 c 1
EndSplineSet
EndChar

StartChar: I
Encoding: 44 73 44
Width: 1066
GlyphClass: 2
Flags: W
HStem: -51 203<665.428 986.439> -9 156<219.923 455 664 910.847> 1202 230<569.013 749.919> 1262 217<1000 1294.19>
LayerCount: 2
UndoRedoHistory
Layer: 0
Undoes
EndUndoes
Redoes
EndRedoes
EndUndoRedoHistory
UndoRedoHistory
Layer: 1
Undoes
EndUndoes
Redoes
EndRedoes
EndUndoRedoHistory
Fore
SplineSet
500 -9 m 0x40
 438 -9 378 -16 316 -16 c 0
 256 -16 195 -5 195 51 c 0
 195 144 366 148 455 149 c 1
 797 1260 l 1
 745 1252 662 1202 597 1202 c 0
 551 1202 507 1242 507 1297 c 0
 507 1377 619 1423 695 1432 c 0x60
 760 1440 825 1438 890 1443 c 0
 966 1449 1072 1479 1161 1479 c 0
 1237 1479 1327 1445 1327 1360 c 0
 1327 1284 1200 1262 1090 1262 c 0
 1057 1262 1028 1266 1000 1266 c 1
 664 147 l 1
 670 147 677 147 683 147 c 0x50
 733 147 788 152 839 152 c 0
 930 152 1016 131 1016 24 c 0
 1016 -34 971 -51 914 -51 c 0x80
 847 -51 763 -28 714 -22 c 0
 646 -14 573 -9 500 -9 c 0x40
EndSplineSet
EndChar

StartChar: J
Encoding: 45 74 45
Width: 1656
GlyphClass: 2
Flags: W
HStem: -88.0625 153.219<525.63 819.86> 1302.56 178.062<1183.96 1734.72>
VStem: 205.544 207.45<179.372 407.523> 1200.32 135.744<1016.64 1154.21> 1772.85 217.151<1071.76 1259.15>
LayerCount: 2
UndoRedoHistory
Layer: 0
Undoes
EndUndoes
Redoes
EndRedoes
EndUndoRedoHistory
Back
SplineSet
1876.203125 1026 m 4
 1832.53808594 1026 1774.14550781 1039.53417969 1774.14550781 1091.81835938 c 4
 1774.14550781 1127.60351562 1807.203125 1160.90917969 1807.203125 1200 c 4
 1807.203125 1276 1646.203125 1284 1553.203125 1284 c 7
 1142.203125 1284 852.203125 1190 563.203125 1053 c 4
 559.203125 1051 554.203125 1051 551.203125 1051 c 4
 510.203125 1051 462.203125 1095 462.203125 1144 c 4
 462.203125 1159 469.203125 1178 491.203125 1194 c 4
 710.203125 1350 1140.203125 1443 1509.203125 1443 c 4
 1682.203125 1443 1894.203125 1412 1978.203125 1308 c 4
 2003.203125 1277 2025.203125 1242 2025.203125 1197 c 4
 2025.203125 1112 1964.203125 1026 1876.203125 1026 c 4
206 300.732421875 m 4
 206 370.067382812 252.264648438 436.166992188 325.416992188 436.166992188 c 4
 371.165039062 436.166992188 402.19140625 397.15625 413.450195312 358 c 4
 427.301757812 313.452148438 423.92578125 265.206054688 435.450195312 220 c 5
 461.35546875 130.896484375 559.234375 65.15625 679.111328125 65.15625 c 4
 863.573242188 65.15625 927.203125 222 975.450195312 370 c 6
 1200.77929688 1060.57617188 l 6
 1228.73828125 1146.26269531 1244.72753906 1166 1276.203125 1166 c 4
 1309.1640625 1166 1336.5234375 1139.77734375 1336.5234375 1083.56054688 c 4
 1336.5234375 1075.51660156 1335.96386719 1066.859375 1334.77929688 1057.57617188 c 5
 1149.45019531 326 l 6
 1090.203125 92 963.01953125 -88.0625 664.903320312 -88.0625 c 4
 443.530273438 -88.0625 206 70.537109375 206 300.732421875 c 4
EndSplineSet
UndoRedoHistory
Layer: 1
Undoes
EndUndoes
Redoes
EndRedoes
EndUndoRedoHistory
Fore
SplineSet
205.543945312 300.732421875 m 0
 205.543945312 370.067382812 251.80859375 436.166992188 324.9609375 436.166992188 c 0
 370.708984375 436.166992188 401.735351562 397.15625 412.994140625 358 c 0
 426.845703125 313.452148438 423.469726562 265.206054688 434.994140625 220 c 1
 460.899414062 130.896484375 558.778320312 65.15625 678.655273438 65.15625 c 0
 863.1171875 65.15625 926.747070312 222 974.994140625 370 c 2
 1200.32324219 1060.57617188 l 2
 1228.28222656 1146.26269531 1244.27148438 1166 1275.74707031 1166 c 0
 1308.70800781 1166 1336.06738281 1139.77734375 1336.06738281 1083.56054688 c 0
 1336.06738281 1075.51660156 1335.5078125 1066.859375 1334.32324219 1057.57617188 c 1
 1148.99414062 326 l 2
 1089.74707031 92 962.563476562 -88.0625 664.447265625 -88.0625 c 0
 443.07421875 -88.0625 205.543945312 70.537109375 205.543945312 300.732421875 c 0
608.747070312 1084 m 4
 584.770507812 1073.56542969 565.247070312 1065 550.747070312 1065 c 4
 509.747070312 1065 461.747070312 1102.37597656 461.747070312 1144 c 4
 461.747070312 1159 468.774414062 1177.96289062 490.747070312 1194 c 4
 619.697265625 1288.99121094 1166.04199219 1480.62109375 1565.80273438 1480.62109375 c 4
 1805.16308594 1480.62109375 1990 1406.67089844 1990 1189.66308594 c 4
 1990 1102.10351562 1949.4921875 1028 1838.74707031 1028 c 4
 1772.28027344 1028 1755.52441406 1047.93554688 1755.52441406 1076.6796875 c 4
 1755.52441406 1105.90820312 1772.84863281 1144.24511719 1772.84863281 1179.9921875 c 4
 1772.84863281 1268.99121094 1679.98046875 1302.55859375 1545.75488281 1302.55859375 c 4
 1266.22167969 1302.55859375 820.078125 1176.94921875 608.747070312 1084 c 4
EndSplineSet
EndChar

StartChar: K
Encoding: 46 75 46
Width: 1596
GlyphClass: 2
Flags: W
HStem: -64 180<27.5113 321.159 1210.56 1466.11> 1250 129<463.568 654>
VStem: 19 232<824.673 1051.77>
LayerCount: 2
Back
SplineSet
969.057248299 1374.36748218 m 4
 1050.36644772 1374.36748218 1121.67098593 1331.49792816 1121.67098593 1252.77188097 c 4
 1121.67098593 1244.14913981 1120.79475219 1235.221313 1119 1226 c 6
 1032 779 l 5
 1642 1367 l 5
 1657.9065105 1386.11352084 1679.05244947 1394.13823668 1700.69667111 1394.13823668 c 4
 1749.27303148 1394.13823668 1800.35920729 1353.71829697 1800.35920729 1307.51622495 c 4
 1800.35920729 1289.53940168 1792.62516779 1270.6872097 1774 1253 c 6
 1079 593 l 5
 1589 -12 l 5
 1601.78467728 -29.535913198 1607.27779984 -47.7255830686 1607.27779984 -65.2568767029 c 4
 1607.27779984 -121.142709323 1551.45715976 -170.338179119 1498.07411811 -170.338179119 c 4
 1466.52110103 -170.338179119 1435.8196872 -153.151171602 1418 -110 c 5
 964 469 l 5
 923.848243536 211.926608218 879.294269767 -140.014402992 583.287575655 -140.014402992 c 4
 515.944157327 -140.014402992 434.893397113 -98.3322904699 434.893397113 -31.3529412759 c 4
 434.893397113 85.523284058 561.212395414 55.2060196582 632.74566882 94.1051797201 c 4
 671.27230056 115.05562059 698.456406703 154.085429965 706.487672186 205.221670131 c 6
 880 1310 l 6
 887.351218863 1356.80628403 925.729245519 1374.36748218 969.057248299 1374.36748218 c 4
  Spiro
    580 -140 o
    574.502 77.8235 o
    632.746 94.1052 o
    680.519 138.817 o
    706.488 205.222 [
    880 1310 ]
    902.19 1349.11 o
    943.315 1369.45 o
    988.701 1375.24 o
    1052.48 1360.19 o
    1101.96 1317.82 o
    1121.74 1252.81 o
    1121.44 1244.11 o
    1120.53 1235.16 o
    1119 1226 [
    1032 779 v
    1642 1367 v
    1661.05 1384.02 o
    1681.77 1393.66 o
    1703.16 1396.68 o
    1749.35 1383.58 o
    1784.63 1350.31 o
    1798.6 1306.29 o
    1796.07 1288.04 o
    1788.07 1270.06 o
    1774 1253 [
    1079 593 v
    1589 -12 v
    1600.55 -31.6686 o
    1607.16 -51.0004 o
    1609.25 -69.6294 o
    1593.13 -119.24 o
    1552.96 -154.082 o
    1501.5 -167.158 o
    1469.21 -161.367 o
    1440.31 -142.825 o
    1418 -110 v
    964 469 v
    901.65 161.076 o
    734.785 -94.5637 o
    0 0 z
  EndSpiro
EndSplineSet
Fore
SplineSet
1275 -64 m 4
 914 -64 836 406 772 601 c 5
 696 287 571 -64 214 -64 c 4
 139 -64 -36 -52 -36 16 c 4
 -36 66 17 145 67 145 c 4
 105 145 140 116 186 116 c 4
 437 116 520 470 567 683 c 4
 602 838 627 1013 645 1183 c 5
 654 1250 l 5
 421 1250 251 1099 251 871 c 4
 251 828 200 812 151 812 c 4
 87 812 19 825 19 882 c 6
 19 889 l 6
 19 1246 406 1379 762 1379 c 4
 821 1379 864 1357 864 1301 c 4
 864 1121 842 949 806 786 c 5
 1096 961 1224 1060 1365 1224 c 4
 1431 1301 1452 1362 1512 1362 c 4
 1570 1362 1623 1324 1623 1267 c 4
 1623 1238 1605 1204 1595 1180 c 4
 1531 1038 1343 861 928 680 c 5
 1058 433 1136 113 1316 113 c 6
 1317 113 l 6
 1418 113 1508 185 1570 234 c 4
 1588 248 1603 253 1616 253 c 4
 1659 253 1672 187 1672 140 c 4
 1672 117 1669 97 1664 92 c 4
 1562 -1 1437 -64 1275 -64 c 4
EndSplineSet
EndChar

StartChar: L
Encoding: 47 76 47
Width: 1198
GlyphClass: 2
Flags: W
HStem: 10 181<547.543 1208.48>
LayerCount: 2
UndoRedoHistory
Layer: 0
Undoes
EndUndoes
Redoes
EndRedoes
EndUndoRedoHistory
UndoRedoHistory
Layer: 1
Undoes
EndUndoes
Redoes
EndRedoes
EndUndoRedoHistory
Fore
SplineSet
789 10 m 0
 688 10 586 -11 484 -11 c 0
 401 -11 339 13 339 111 c 0
 339 214 387 297 421 376 c 0
 512 588 596 805 665 1025 c 0
 707 1159 744 1360 849 1437 c 0
 870 1453 891 1460 911 1460 c 0
 972 1460 1020 1396 1020 1326 c 0
 1020 1281 1006 1240 990 1199 c 0
 930 1043 856 889 793 741 c 2
 542 156 l 1
 690 172 840 191 999 191 c 0
 1126 191 1300 199 1300 69 c 0
 1300 -10 1237 -32 1156 -32 c 0
 1020 -32 907 10 789 10 c 0
EndSplineSet
EndChar

StartChar: M
Encoding: 48 77 48
Width: 2001
GlyphClass: 2
Flags: W
HStem: -118 215<12.8653 372.834>
VStem: 992 171<859.61 1221> 1008 185<397 820.39>
LayerCount: 2
UndoRedoHistory
Layer: 0
Undoes
EndUndoes
Redoes
EndRedoes
EndUndoRedoHistory
UndoRedoHistory
Layer: 1
Undoes
EndUndoes
Redoes
EndRedoes
EndUndoRedoHistory
Fore
SplineSet
1855 1404 m 6xa0
 1932 1404 1993 1343 1993 1266 c 4
 1993 1247 1989 1231 1984 1217 c 5
 1846 209 l 2
 1827 72 1844 -128 1683 -128 c 0
 1611 -128 1554 -82 1554 -9 c 0
 1554 84 1614 161 1631 243 c 0
 1678.18421053 467.90397351 1794 1182 1794 1182 c 5
 1227 183 l 2
 1204 142 1175 91 1111 91 c 0
 1037 91 1009 161 1008 233 c 2xa0
 992 1221 l 5
 644 226 l 2
 626 175 608 125 578 80 c 0
 501 -35 338 -118 170 -118 c 0
 78 -118 -25 -86 -25 7 c 0
 -25 76 38 103 107 103 c 0
 145 103 183 97 221 97 c 0
 397 97 464 220 515 347 c 2
 889 1274 l 6
 916 1341 955 1416 1048 1416 c 4
 1126 1416 1159 1361 1163 1283 c 6xc0
 1193 397 l 1
 1726 1318 l 5
 1746 1364 1791 1404 1855 1404 c 6xa0
EndSplineSet
EndChar

StartChar: N
Encoding: 49 78 49
Width: 1599
GlyphClass: 2
Flags: W
HStem: -83 273<238.358 358.213>
VStem: 661 188<1253.75 1419.74>
LayerCount: 2
UndoRedoHistory
Layer: 0
Undoes
EndUndoes
Redoes
EndRedoes
EndUndoRedoHistory
UndoRedoHistory
Layer: 1
Undoes
EndUndoes
Redoes
EndRedoes
EndUndoRedoHistory
Fore
SplineSet
247 -83 m 4
 185 -83 134 -40 134 19 c 4
 134 129 263 149 335 190 c 4
 464 264 508 434 555 583 c 4
 605 743 675 914 675 1109 c 4
 675 1179 661 1250 661 1320 c 4
 661 1378 679 1444 743 1443 c 5
 742 1442 l 5
 743 1442 744 1442 745 1442 c 4
 807 1442 829 1393 849 1347 c 4
 989 1021 1114 632 1254 302 c 5
 1542 1240 l 6
 1571 1335 1650 1492 1780 1492 c 4
 1843 1492 1895 1448 1895 1383 c 4
 1895 1304 1792 1268 1741 1229 c 4
 1666 1172 1635 1059 1603 958 c 4
 1520 693 1451 414 1372 141 c 4
 1349 62 1310 -27 1210 -27 c 4
 1158 -27 1115 6 1099 43 c 4
 1028 210 976 384 910 552 c 6
 759 937 l 5
 735 748 699 584 642 416 c 4
 585 248 500 63 363 -38 c 4
 334 -60 294 -83 247 -83 c 4
EndSplineSet
EndChar

StartChar: O
Encoding: 50 79 50
Width: 1421
GlyphClass: 2
Flags: W
HStem: -91.5996 165.359<752.932 1050.06> 1292.64 182<900.704 1311.72>
VStem: 282.45 220.4<374.986 850.34> 1237.2 241.11<389.61 763.433>
LayerCount: 2
UndoRedoHistory
Layer: 0
Undoes
EndUndoes
Redoes
EndRedoes
EndUndoRedoHistory
Back
SplineSet
1620.20019531 1103 m 4
 1620.20019531 1095 1624.20019531 1083 1624.20019531 1074 c 4
 1624.20019531 1039 1602.20019531 1014 1567.20019531 1014 c 4
 1548.20019531 1014 1524.84082031 1021.10839844 1507.20019531 1045 c 4
 1422.52734375 1159.67285156 1349.55957031 1267 1146.20019531 1267 c 4
 809.815429688 1267 556.200195312 955.071289062 556.200195312 627 c 4
 556.200195312 384.15234375 665.90234375 165 888.200195312 165 c 4
 1163.75585938 165 1265.20019531 424.05859375 1265.20019531 699 c 4
 1265.20019531 806 1242.20019531 945 1217.20019531 1052 c 4
 1214.20019531 1065 1213.20019531 1077 1213.20019531 1089 c 4
 1213.20019531 1123 1225.20019531 1149 1256.20019531 1149 c 4
 1368.20019531 1149 1411.20019531 1010 1435.20019531 896 c 4
 1453.20019531 810 1461.20019531 730 1461.20019531 656 c 4
 1461.20019531 287.869140625 1257.62597656 -23 890.200195312 -23 c 4
 530.200195312 -23 318.200195312 261 318.200195312 643 c 4
 318.200195312 1081.69726562 646.623046875 1443 1084.20019531 1443 c 4
 1336.20019531 1443 1535.20019531 1329 1617.20019531 1112 c 4
 1618.20019531 1109 1620.20019531 1106 1620.20019531 1103 c 4
EndSplineSet
UndoRedoHistory
Layer: 1
Undoes
EndUndoes
Redoes
EndRedoes
EndUndoRedoHistory
Fore
SplineSet
906.600585938 73.759765625 m 4
 1077.60058594 73.759765625 1237.20019531 237.040039062 1237.20019531 427.360351562 c 4
 1237.20019531 594.80078125 1149.80078125 753.919921875 1149.80078125 917.200195312 c 4
 1149.80078125 1014.95996094 1186.85058594 1118.95996094 1264.75 1118.95996094 c 4
 1423.734375 1118.95996094 1478.31054688 836.010742188 1478.31054688 690.854492188 c 4
 1478.31054688 260.866210938 1234.69238281 -91.599609375 814.450195312 -91.599609375 c 4
 477.200195312 -91.599609375 282.450195312 236 282.450195312 579.200195312 c 4
 282.450195312 1075.28027344 635.850585938 1474.63964844 1089 1474.63964844 c 4
 1336.95019531 1474.63964844 1522.20019531 1326.95996094 1595.35058594 1131.44042969 c 4
 1600.10058594 1118.95996094 1602 1107.52050781 1602 1097.12011719 c 4
 1602 1056.56054688 1573.5 1027.44042969 1540.25 1027.44042969 c 4
 1477.55078125 1027.44042969 1458.55078125 1112.72070312 1430.05078125 1154.3203125 c 4
 1366.40039062 1248.95996094 1230.55078125 1292.63964844 1109.90039062 1292.63964844 c 4
 764.100585938 1292.63964844 502.850585938 979.599609375 502.850585938 604.16015625 c 4
 502.850585938 340 670.05078125 73.759765625 906.600585938 73.759765625 c 4
EndSplineSet
EndChar

StartChar: P
Encoding: 51 80 51
Width: 1482
GlyphClass: 2
Flags: W
HStem: 526 131<949 1160.27> 1283 164<722.022 1202.42>
VStem: 538 269<-26.8611 131.22> 811 186<866 942.897> 1381 227<840.507 1133.76>
LayerCount: 2
UndoRedoHistory
Layer: 0
Undoes
EndUndoes
Redoes
EndRedoes
EndUndoRedoHistory
Back
SplineSet
993.868164062 531 m 0
 957.174804688 531 921.606445312 531.962890625 888.868164062 537 c 1
 820.987304688 386.948242188 763.680664062 203.991210938 675.368164062 73.5 c 0
 653.03515625 40.5 630.03515625 13.6669921875 606.368164062 -7 c 0
 582.701171875 -27.6669921875 558.53515625 -38 533.868164062 -38 c 0
 468.368164062 -38 431.868164062 -2.0625 431.868164062 61 c 0
 431.868164062 96.33203125 444.9921875 131.418945312 457.868164062 156 c 2
 840.868164062 861 l 1
 867.165039062 907.282226562 892.508789062 943.702148438 930.368164062 967 c 0
 950.073242188 979.125976562 965.38671875 984 989.868164062 984 c 0
 1021.14746094 984 1037.86816406 962.295898438 1037.86816406 926 c 0
 1037.86816406 904.666992188 1032.20117188 875.333007812 1020.86816406 838 c 0
 1009.53515625 800.666992188 988.53515625 752.666992188 957.868164062 694 c 1
 1122.12890625 706.635742188 1271.59472656 761.119140625 1345.86816406 864.5 c 0
 1370.53515625 898.833007812 1382.86816406 938.666992188 1382.86816406 984 c 0
 1382.86816406 1122.44726562 1312.03613281 1216.77050781 1213.86816406 1260.5 c 0
 1177.20117188 1276.83300781 1134.86816406 1285 1086.86816406 1285 c 0
 915.110351562 1285 790.989257812 1238.61035156 712.868164062 1149 c 0
 670.981445312 1100.953125 638.901367188 1048.54296875 610.868164062 991 c 0
 588.00390625 944.068359375 563.397460938 900.915039062 524.868164062 873.5 c 0
 507.53515625 861.166992188 486.201171875 855 460.868164062 855 c 0
 397.005859375 855 364.868164062 888.213867188 364.868164062 951 c 0
 364.868164062 1034.515625 415.046875 1106.21386719 460.868164062 1161 c 0
 562.975585938 1283.08496094 715.81640625 1374.04492188 898.368164062 1418.5 c 0
 962.701171875 1434.16699219 1030.53515625 1442 1101.86816406 1442 c 0
 1330.30761719 1442 1493.90332031 1341.34082031 1571.36816406 1185.5 c 0
 1599.70117188 1128.5 1613.86816406 1061.66699219 1613.86816406 985 c 0
 1613.86816406 828.411132812 1526.84667969 720.564453125 1427.36816406 652.5 c 0
 1320.71484375 579.526367188 1168.22265625 531 993.868164062 531 c 0
EndSplineSet
UndoRedoHistory
Layer: 1
Undoes
EndUndoes
Redoes
EndRedoes
EndUndoRedoHistory
Fore
SplineSet
705 -53 m 0
 634 -53 538 -38 538 47 c 0
 538 68 562 141 570 165 c 2
 811 866 l 2
 837 941 876 970 912 970 c 0
 957 970 997 922 997 863 c 0
 997 852 996 841 993 830 c 2
 949 657 l 1
 1226 657 1381 826 1381 988 c 0
 1381 1164 1230 1283 960 1283 c 0
 536 1283 516 978 406 887 c 0
 398 880 388 877 377 877 c 0
 334 877 262 929 262 981 c 0
 262 986 263 991 264 996 c 0
 306 1144 475 1447 965 1447 c 0
 1338 1447 1555 1248 1599 1035 c 0
 1605 1007 1608 979 1608 951 c 0
 1608 735 1429 530 1062 527 c 0
 1060 527 1059 526 1057 526 c 0
 1014 526 969 530 923 537 c 1
 807 74 l 1
 791 -5 757 -53 705 -53 c 0
EndSplineSet
EndChar

StartChar: Q
Encoding: 52 81 52
Width: 1492
GlyphClass: 2
Flags: W
HStem: -427 182<1268.23 1580.25> -91.5996 165.359<783.481 1080.61> 1292.64 182<931.253 1342.27>
VStem: 313 220.4<374.986 850.34> 1267.75 241.11<389.61 763.433>
LayerCount: 2
UndoRedoHistory
Layer: 0
Undoes
EndUndoes
Redoes
EndRedoes
EndUndoRedoHistory
UndoRedoHistory
Layer: 1
Undoes
EndUndoes
Redoes
EndRedoes
EndUndoRedoHistory
Fore
SplineSet
1097.20019531 37 m 1
 1154.20019531 -97 1240.20019531 -245 1413.20019531 -245 c 0
 1505.20019531 -245 1588.20019531 -209 1625.20019531 -163 c 1
 1632.20019531 -160 1635.20019531 -155 1644.20019531 -155 c 0
 1674.20019531 -155 1697.20019531 -193 1697.20019531 -229 c 0
 1697.20019531 -257 1682.20019531 -276 1667.20019531 -297 c 0
 1618.20019531 -365 1550.20019531 -427 1435.20019531 -427 c 0
 1334.20019531 -427 1248.20019531 -380 1178.20019531 -324 c 0
 1083.20019531 -248 1003.20019531 -140 938.200195312 -16 c 1
 857.200195312 165 l 1
 849.200195312 183 838.200195312 206 838.200195312 231 c 0
 838.200195312 272 868.200195312 299 913.200195312 299 c 0
 964.200195312 299 1006.20019531 264 1030.20019531 220 c 1
 1097.20019531 37 l 1
EndSplineSet
Refer: 50 79 N 1 0 0 1 30.5498 0 2
EndChar

StartChar: R
Encoding: 53 82 53
Width: 1578
GlyphClass: 2
Flags: W
HStem: -126 182<1162.86 1394.25> 522 130<904.081 1116.2> 1278 164<686.022 1164.29>
VStem: 244 174<907.158 985.518> 784 172<883.393 1004.45> 1344 226<838.232 1124.81>
LayerCount: 2
UndoRedoHistory
Layer: 0
Undoes
EndUndoes
Redoes
EndRedoes
EndUndoRedoHistory
Back
SplineSet
357 877 m 4
 314 877 242 929 242 981 c 4
 242 986 243 991 244 996 c 4
 284 1144 448 1447 925 1447 c 4
 1298 1447 1514 1244 1560 1029 c 4
 1566 1001 1568 973 1568 945 c 4
 1568 731 1398 530 1042 527 c 4
 1040 527 1039 526 1037 526 c 4
 994 526 949 530 903 537 c 5
 787 74 l 5
 769 -14 718 -51 667 -51 c 4
 602 -51 538 8 538 97 c 4
 538 118 543 141 550 165 c 6
 782 936 l 5
 808 1011 856 1040 892 1040 c 4
 945 1040 991 987 977 912 c 6
 929 657 l 5
 1196 657 1342 822 1342 983 c 4
 1342 1001 1341 1018 1337 1035 c 4
 1309 1167 1176 1283 920 1283 c 4
 509 1283 492 978 386 887 c 4
 378 880 368 877 357 877 c 4
  Spiro
    357 877 o
    308.125 892.379 o
    262.222 930.972 o
    242 981 o
    242.296 985.995 o
    243.038 991.005 o
    244 996 o
    332.19 1178.5 o
    545.623 1363.11 o
    925 1447 o
    1244.92 1386.52 o
    1457.97 1232.74 o
    1560 1029 o
    1564.74 1001.03 o
    1567.26 972.972 o
    1568 945 o
    1510.86 742.37 o
    1336.36 589.034 o
    1042 527 o
    1040.26 526.741 o
    1038.74 526.259 o
    1037 526 o
    993.415 527.294 o
    948.584 531.042 o
    903 537 v
    787 74 v
    759.259 2.53705 o
    716.73 -38.1744 o
    667 -51 o
    604.724 -32.4435 o
    556.964 19.1399 o
    538 97 o
    539.553 118.607 o
    543.783 141.394 o
    550 165 [
    782 936 v
    814.037 996.25 o
    853.299 1029.72 o
    892 1040 o
    940.661 1023.51 o
    972.983 978.462 o
    977 912 [
    929 657 v
    1154.56 705.65 o
    1294.35 827.071 o
    1342 983 o
    1341.59 1000.69 o
    1340.07 1017.98 o
    1337 1035 o
    1273.43 1157.85 o
    1135.49 1248.1 o
    920 1283 o
    622.647 1200.7 o
    480.122 1029.94 o
    386 887 o
    377.38 881.301 o
    367.619 878.035 o
    0 0 z
  EndSpiro
1635 327 m 4
 1670 327 1692 297 1692 256 c 4
 1692 226 1681 192 1654 160 c 4
 1526 9 1409 -53 1300 -53 c 4
 1077 -53 911 218 741 547 c 5
 794 561 839 549 891 570 c 5
 1047 307 1176 127 1299 127 c 4
 1378 127 1459 179 1554 281 c 4
 1585 314 1612 327 1635 327 c 4
  Spiro
    1635 327 o
    1665.31 317.722 o
    1685.01 292.598 o
    1692 256 o
    1688.16 224.921 o
    1675.83 192.412 o
    1654 160 o
    1529.68 37.7614 o
    1411.66 -31.3776 o
    1300 -53 o
    1093.93 29.2875 o
    911.752 245.489 o
    741 547 v
    791.84 554.515 o
    840.827 557.82 o
    891 570 v
    1038.64 338.456 o
    1173.35 183.298 o
    1299 127 o
    1379.03 144.225 o
    1463.31 195.809 o
    1554 281 o
    1583.64 307.572 o
    1610.69 322.417 o
    0 0 z
  EndSpiro
EndSplineSet
UndoRedoHistory
Layer: 1
Undoes
EndUndoes
Redoes
EndRedoes
EndUndoRedoHistory
Fore
SplineSet
669 -92 m 4
 608 -92 503 -64 503 -11 c 4
 503 31 531 91 544 134 c 6
 784 931 l 5
 810 1006 858 1035 894 1035 c 4
 936 1035 956 1002 956 951 c 4
 956 937 955 923 952 907 c 6
 904 652 l 5
 1171 652 1344 817 1344 978 c 0
 1344 1156 1191 1278 922 1278 c 0
 543 1278 484 1040 418 882 c 4
 411 866 399 860 383 860 c 0
 330 860 244 935 244 976 c 0
 244 981 245 986 246 991 c 0
 286 1139 450 1442 927 1442 c 0
 1300 1442 1516 1239 1562 1024 c 0
 1568 996 1570 968 1570 940 c 0
 1570 718 1341 522 1012 522 c 0
 971 522 929 525 886 531 c 5
 1063 137 1175 56 1293 56 c 0
 1372 56 1461 154 1556 256 c 0
 1587 289 1614 302 1637 302 c 0
 1672 302 1694 272 1694 231 c 0
 1694 201 1683 167 1656 135 c 0
 1528 -16 1402 -112 1294 -124 c 0
 1284 -125 1275 -126 1265 -126 c 0
 1103 -126 956 32 831 362 c 5
 762 63 l 6
 733 -63 720 -92 669 -92 c 4
EndSplineSet
EndChar

StartChar: S
Encoding: 54 83 54
Width: 1322
GlyphClass: 2
Flags: W
HStem: -135 137<605.279 973.617> 1337 138<849.604 1156.88>
VStem: 293 220<84.1036 323.363> 489 212<968.804 1208.25> 1152 229<155.585 428.744> 1188 176<1144.77 1302.76>
LayerCount: 2
UndoRedoHistory
Layer: 0
Undoes
EndUndoes
Redoes
EndRedoes
EndUndoRedoHistory
Back
SplineSet
1174 951 m 4xea
 1124 951 1079 999 1079 1056 c 4
 1079 1119 1146 1136 1174 1178 c 4
 1185 1195 1190 1211 1186 1227 c 4
 1180 1258 1105 1264 1075 1264 c 4
 828.446289062 1264 700.252929688 1191.11523438 700.252929688 1088.046875 c 4xea
 700.252929688 1023.39453125 750.692382812 946.866210938 854 869 c 6
 1124 666 l 6
 1228.52148438 587.26953125 1375 522.912109375 1375 341 c 4
 1375 98.1474609375 1135.19726562 -20 876 -20 c 4
 639.927734375 -20 368 35.6796875 368 267 c 4
 368 330 396 381 428 420 c 4
 477 482 557 532 653 557 c 5
 695 557 727 508 727 460 c 4
 727 422 696 412 665 397 c 4
 621.134765625 377.061523438 567.915039062 335.990234375 567.915039062 276.977539062 c 4
 567.915039062 200.749023438 700.9765625 149.487304688 838.8671875 149.487304688 c 4
 987.142578125 149.487304688 1141 208.760742188 1141 360 c 4xf4
 1141 462.954101562 1051.35253906 493.94140625 979 547 c 6
 693 756 l 6
 552.978515625 858.323242188 488.75390625 975.728515625 488.75390625 1084.19628906 c 4
 488.75390625 1277.84082031 693.452148438 1443 1037 1443 c 4
 1187 1443 1364 1365 1364 1191 c 4
 1364 1095 1306 1029 1240 978 c 4
 1218 960 1196 951 1174 951 c 4xea
EndSplineSet
UndoRedoHistory
Layer: 1
Undoes
EndUndoes
Redoes
EndRedoes
EndUndoRedoHistory
Fore
SplineSet
1381 278 m 0xd8
 1381 -15 1066 -135 790 -135 c 0
 582 -135 405 -74 328 68 c 0
 304 113 293 156 293 197 c 0
 293 345 427 465 523 524 c 0
 546 538 576 553 608 553 c 0
 651 553 690 524 690 480 c 0
 690 414 618 385 582 352 c 0
 547 320 513 267 513 204 c 0
 513 66 645 2 773 2 c 0
 958 2 1152 107 1152 299 c 0xe8
 1152 419 1054 492 979 547 c 2
 693 756 l 2
 597 826 489 920 489 1075 c 0
 489 1328 744 1475 988 1475 c 0
 1173 1475 1364 1376 1364 1180 c 0
 1364 1072 1290 955 1178 955 c 0
 1124 955 1076 989 1076 1044 c 0
 1076 1139 1188 1132 1188 1223 c 0xd4
 1188 1301 1101 1337 1027 1337 c 0
 884 1337 701 1245 701 1090 c 0
 701 983 788 918 854 869 c 2
 1124 666 l 2
 1240 579 1381 472 1381 278 c 0xd8
EndSplineSet
EndChar

StartChar: T
Encoding: 55 84 55
Width: 1595
GlyphClass: 2
Flags: W
HStem: 1302.56 178.062<1077.87 1722.29>
VStem: 942 171.553<1057 1168.5> 1763.1 217.151<1071.76 1258.02>
LayerCount: 2
UndoRedoHistory
Layer: 0
Undoes
EndUndoes
Redoes
EndRedoes
EndUndoRedoHistory
UndoRedoHistory
Layer: 1
Undoes
EndUndoes
Redoes
EndRedoes
EndUndoRedoHistory
Fore
SplineSet
390 1055 m 0
 366.0234375 1044.56542969 346.5 1036 332 1036 c 0
 291 1036 243 1073.37597656 243 1115 c 0
 243 1130 250.02734375 1148.96289062 272 1165 c 0
 423.620117188 1269.6015625 986 1480.62109375 1536.05566406 1480.62109375 c 0
 1786.70117188 1480.62109375 1980.25292969 1406.67089844 1980.25292969 1189.66308594 c 0
 1980.25292969 1102.10351562 1939.74511719 1028 1829 1028 c 0
 1762.53320312 1028 1745.77734375 1047.93554688 1745.77734375 1076.6796875 c 0
 1745.77734375 1105.90820312 1763.1015625 1144.24511719 1763.1015625 1179.9921875 c 0
 1763.1015625 1268.99121094 1662.0546875 1302.55859375 1516.0078125 1302.55859375 c 4
 1088 1302.55859375 643.958007812 1160.28320312 390 1055 c 0
1049 1208 m 0
 1089.86816406 1208 1113.55273438 1174.20703125 1113.55273438 1122.2265625 c 0
 1113.55273438 1105.52246094 1111.10742188 1086.94140625 1106 1067 c 2
 843 47 l 2
 827 -14 779 -74 692 -74 c 0
 643.344726562 -74 586.673828125 -31.73828125 586.673828125 24.7958984375 c 0
 586.673828125 34.4912109375 588.33984375 44.6064453125 592 55 c 2
 942 1057 l 2
 976 1153 990 1208 1049 1208 c 0
EndSplineSet
EndChar

StartChar: U
Encoding: 56 85 56
Width: 1241
GlyphClass: 2
Flags: W
HStem: -26 183<565.959 832.056>
VStem: 269 215<247.342 741.515> 507 209<1241.96 1420.59> 1163 197<678.698 1344.65>
LayerCount: 2
Fore
SplineSet
662 -26 m 0
 427 -26 269 182 269 429 c 0
 269 481 278 535 283 582 c 0
 318 876 410 1110 507 1355 c 0
 527 1407 558 1443 620 1443 c 0
 681 1443 716 1411 716 1348 c 0
 716 1299 701 1268 682 1227 c 0
 581 1005 514 739 485 462 c 0
 485 456 484 450 484 444 c 0
 484 289 540 157 680 157 c 0
 755 157 824 184 888 238 c 0
 1082 402 1163 733 1163 1097 c 0
 1163 1216 1115 1396 1248 1396 c 0
 1361 1396 1360 1114 1360 995 c 0
 1360 714 1292 488 1185 314 c 0
 1083 147 920 -26 662 -26 c 0
EndSplineSet
EndChar

StartChar: V
Encoding: 57 86 57
Width: 968
GlyphClass: 2
Flags: W
VStem: 176 243<885.516 1276.73>
LayerCount: 2
Fore
SplineSet
176 1143 m 0
 176 1236 229 1328 320 1328 c 0
 421 1328 417 1107 420 1012 c 1
 419 989 l 1
 420 960 428 927 436 891 c 0
 481 677 553 448 626 262 c 1
 696 387 761 546 805 699 c 0
 844 833 876 980 918 1113 c 0
 953 1227 999 1282 1050 1282 c 0
 1102 1282 1139 1266 1139 1208 c 0
 1139 1193 1136 1179 1131 1155 c 0
 1096 967 1031 781 970 608 c 0
 902 415 820 212 722 57 c 1
 731 44 737 33 737 15 c 0
 737 -54 610 -69 532 -69 c 0
 488 -69 455 -46 455 2 c 0
 455 28 468 46 487 55 c 1
 387 338 270 637 202 961 c 0
 188 1027 176 1090 176 1143 c 0
EndSplineSet
EndChar

StartChar: W
Encoding: 58 87 58
Width: 1372
GlyphClass: 2
Flags: W
VStem: 140 324<946.576 1138.71> 838 223<853.211 1139.86> 1356 174<797.814 1275.87>
LayerCount: 2
Fore
SplineSet
262 937 m 1
 242 905 214 860 180 860 c 0
 146 860 140 912 140 947 c 0
 140 1102 224 1234 314 1312 c 0
 320 1317 329 1320 339 1320 c 0
 411 1320 467 1209 467 1127 c 0
 467 1105 464 1086 464 1062 c 0
 464 1060 464 1057 464 1055 c 0
 464 806 530 496 577 212 c 1
 648 329 707 484 756 616 c 1
 766 641 l 1
 789 765 814 885 838 1007 c 0
 855 1090 882 1191 963 1191 c 0
 1026 1191 1061 1168 1061 1101 c 0
 1061 975 1004 871 1004 739 c 0
 1004 639 1030 570 1049 479 c 0
 1068 392 1087 294 1113 215 c 1
 1196 387 1273 577 1322 778 c 0
 1343 862 1359 953 1359 1048 c 0
 1359 1053 1359 1059 1359 1064 c 2
 1356 1139 l 1
 1354 1144 1358 1150 1356 1155 c 1
 1356 1162 1356 1168 1356 1175 c 0
 1356 1233 1363 1284 1432 1284 c 0
 1520 1284 1530 1247 1530 1157 c 0
 1530 983 1486 760 1406 487 c 0
 1365 348 1336 221 1283 112 c 0
 1249 44 1212 -16 1124 -16 c 0
 1060 -16 1029 17 997 72 c 0
 934 179 905 302 861 460 c 1
 706 133 l 2
 671 58 639 -25 522 -25 c 0
 462 -25 412 12 400 73 c 0
 336 375 293 653 262 937 c 1
EndSplineSet
EndChar

StartChar: X
Encoding: 59 88 59
Width: 1222
GlyphClass: 2
Flags: W
VStem: 404 262<1193.93 1426.43>
LayerCount: 2
UndoRedoHistory
Layer: 0
Undoes
EndUndoes
Redoes
EndRedoes
EndUndoRedoHistory
UndoRedoHistory
Layer: 1
Undoes
EndUndoes
Redoes
EndRedoes
EndUndoRedoHistory
Fore
SplineSet
1372 1457 m 0
 1404 1457 1421 1445 1421 1412 c 0
 1421 1374 1397 1332 1383 1306 c 0
 1363 1268 1332 1220 1309 1188 c 0
 1182 1002 1061 826 935 655 c 1
 1015 492 1088 358 1187 226 c 0
 1238 158 1284 99 1341 27 c 0
 1347 20 1351 12 1351 2 c 0
 1351 -28 1306 -41 1273 -41 c 0
 1247 -41 1219 -32 1190 -14 c 0
 1161 4 1128 33 1092 74 c 0
 989 190 908 325 810 486 c 1
 714 358 630 249 538 142 c 0
 482 77 437 26 373 -16 c 0
 337 -39 306 -53 253 -53 c 0
 212 -53 181 -24 181 27 c 0
 181 101 273 126 314 161 c 1
 380 213 437 281 495 352 c 0
 570 445 642 547 714 652 c 1
 605 850 526 1021 434 1222 c 0
 416 1262 404 1285 404 1320 c 0
 404 1361 429 1401 448 1426 c 0
 470 1455 508 1497 556 1497 c 0
 577 1497 596 1486 616 1464 c 0
 636 1442 651 1405 663 1352 c 0
 665 1342 666 1334 666 1328 c 0
 666 1311 660 1303 655 1286 c 0
 655 1284 654 1280 656 1273 c 0
 662 1248 680 1200 711 1129 c 0
 742 1058 785 967 839 854 c 0
 839 853 841 850 843 846 c 1
 889 917 l 1
 1002 1063 1070 1232 1197 1367 c 1
 1231 1410 1296 1457 1372 1457 c 0
EndSplineSet
EndChar

StartChar: Y
Encoding: 60 89 60
Width: 969
GlyphClass: 2
Flags: W
VStem: 313 224<1075.74 1407.23> 447 236<-69.8087 195.312> 1147 214<1090.89 1393.12>
LayerCount: 2
Fore
SplineSet
683 47 m 0x60
 683 -33 640 -99 560 -99 c 0
 496 -99 447 -49 447 26 c 0x60
 447 46 452 61 459 84 c 0
 464 102 471 129 480 164 c 1
 640 665 l 1
 545 754 450 864 393 997 c 1
 360 1062 337 1124 321 1198 c 0
 315 1225 313 1251 313 1275 c 0xa0
 313 1366 355 1444 447 1444 c 0x60
 505 1444 539 1404 539 1336 c 0
 539 1319 537 1301 537 1284 c 0
 537 1276 537 1266 537 1257 c 0xa0
 537 1230 538 1201 544 1172 c 0
 581 992 685 859 797 760 c 1
 861 808 l 2
 928 857 998 912 1048 974 c 1
 1092 1043 1131 1120 1147 1206 c 1
 1163 1286 1135 1380 1214 1405 c 0
 1233 1411 1259 1414 1294 1414 c 0
 1339 1414 1361 1358 1361 1298 c 0
 1361 1276 1358 1254 1354 1227 c 0
 1338 1123 1298 1035 1239 945 c 1
 1138 824 1002 732 867 639 c 1
 827 613 l 1
 705 231 l 1
 690 179 677 150 677 105 c 1
 681 85 683 65 683 47 c 0x60
EndSplineSet
EndChar

StartChar: Z
Encoding: 61 90 61
Width: 1646
GlyphClass: 2
Flags: W
HStem: -21 200<1076.41 1347.72> 1064 152<902.559 1189.5> 1137 166<500.937 851.667>
VStem: 1538 172<414.764 549>
LayerCount: 2
Fore
SplineSet
1595 571 m 0xd0
 1642 571 1699 537 1710 497 c 0
 1710 495 1710 493 1710 490 c 0
 1710 285 1550 91 1386 18 c 0
 1328 -8 1263 -21 1193 -21 c 0
 1155 -21 1120 -1 1089 16 c 0
 1006 62 920 122 802 122 c 0
 696 122 648 69 596 26 c 0
 574 8 550 -10 528 -28 c 0
 520 -34 512 -37 503 -37 c 0
 462 -37 421 9 413 51 c 0
 409 74 413 87 425 99 c 0
 467 139 504 180 545 221 c 1
 635 293 688 384 753 486 c 0
 872 674 984 862 1107 1070 c 1
 1081 1067 1059 1064 1031 1064 c 0xd0
 883 1064 757 1137 608 1137 c 0
 559 1137 520 1107 491 1086 c 0
 467 1068 434 1035 398 1035 c 0
 371 1035 347 1058 347 1091 c 0
 347 1107 352 1121 360 1132 c 0
 404 1201 476 1260 567 1289 c 0
 596 1298 627 1303 657 1303 c 0xb0
 670 1303 682 1302 694 1300 c 0
 835 1281 939 1250 1062 1224 c 0
 1088 1219 1112 1216 1137 1216 c 0
 1242 1216 1314 1225 1362 1270 c 0
 1371 1278 1383 1282 1396 1282 c 0
 1435 1282 1481 1246 1481 1200 c 0
 1481 1174 1467 1156 1450 1141 c 0
 1404 1101 1358 1049 1319 1003 c 1
 1151 783 1010 533 860 297 c 1
 916 284 972 252 1023 228 c 0
 1069 206 1123 179 1181 179 c 0
 1299 179 1367 225 1418 286 c 0
 1475 354 1508 445 1538 538 c 1
 1548 557 1566 571 1595 571 c 0xd0
EndSplineSet
EndChar

StartChar: bracketleft
Encoding: 62 91 62
Width: 966
GlyphClass: 2
Flags: W
HStem: -205 135<579 818.728> 1434 139<1016.97 1314.45>
LayerCount: 2
Fore
SplineSet
776 -70 m 2
 807 -70 827 -93 827 -128 c 0
 827 -174 785 -205 734 -205 c 2
 366 -205 l 1
 542 389 717 980 894 1573 c 1
 1262 1573 l 2
 1297 1573 1322 1548 1322 1509 c 0
 1322 1461 1275 1434 1220 1434 c 2
 1024 1434 l 1
 874 929 729 435 579 -70 c 1
 776 -70 l 2
EndSplineSet
EndChar

StartChar: backslash
Encoding: 63 92 63
Width: 892
GlyphClass: 2
Flags: W
VStem: 314 157<-175.033 -38.9487>
LayerCount: 2
Fore
SplineSet
403 -185 m 0
 364 -185 314 -161 314 -116 c 0
 314 -113 314 -111 315 -109 c 0
 515 435 709 966 909 1510 c 0
 919 1536 944 1554 982 1554 c 0
 1029 1554 1078 1527 1078 1476 c 1
 876 937 673 399 471 -140 c 1
 462 -167 440 -185 403 -185 c 0
EndSplineSet
EndChar

StartChar: bracketright
Encoding: 64 93 64
Width: 784
GlyphClass: 2
Flags: W
HStem: -205 135<98.55 396.891> 1434 139<572.656 832>
LayerCount: 2
Fore
SplineSet
148 -205 m 2
 113 -205 88 -188 88 -150 c 0
 88 -101 140 -70 194 -70 c 2
 390 -70 l 1
 537 433 685 934 832 1434 c 1
 635 1434 l 2
 595 1434 563 1453 563 1495 c 0
 563 1546 619 1573 677 1573 c 2
 1046 1573 l 1
 872 980 694 388 520 -205 c 1
 148 -205 l 2
EndSplineSet
EndChar

StartChar: asciicircum
Encoding: 65 94 65
Width: 1070
GlyphClass: 2
Flags: W
HStem: 717 655
VStem: 1016 160<721.629 859.687>
LayerCount: 2
Fore
SplineSet
347 717 m 0
 320 717 294 731 294 761 c 0
 294 778 302 791 310 804 c 1
 450 996 581 1179 721 1372 c 1
 926 1372 l 1
 1006 1181 1091 1007 1172 815 c 0
 1173 813 1175 810 1175 808 c 2
 1175 802 l 2
 1176 797 1176 793 1176 788 c 0
 1176 744 1135 712 1088 712 c 0
 1055 712 1027 731 1016 762 c 1
 943 923 875 1084 802 1245 c 1
 692 1095 589 954 478 804 c 1
 450 761 409 717 347 717 c 0
EndSplineSet
EndChar

StartChar: underscore
Encoding: 66 95 66
Width: 1024
GlyphClass: 2
Flags: W
HStem: -143 115<3.875 1020.2>
LayerCount: 2
Fore
SplineSet
986 -28 m 2
 1012 -28 1026 -45 1026 -72 c 0
 1026 -112 989 -143 946 -143 c 2
 46 -143 l 2
 15 -143 -4 -133 -4 -101 c 0
 -4 -60 42 -28 86 -28 c 2
 986 -28 l 2
EndSplineSet
EndChar

StartChar: grave
Encoding: 67 96 67
Width: 1044
GlyphClass: 2
Flags: W
HStem: 826 481
VStem: 348 212<1117.61 1264.52>
LayerCount: 2
Fore
SplineSet
374 1144 m 0
 358 1168 348 1188 348 1220 c 0
 348 1269 380 1307 431 1307 c 0
 492 1307 533 1254 560 1192 c 1
 593 1108 624 1026 657 942 c 0
 665 922 674 899 674 873 c 0
 674 845 662 826 635 826 c 0
 597 826 564 862 544 894 c 1
 487 978 431 1060 374 1144 c 0
EndSplineSet
EndChar

StartChar: a
Encoding: 68 97 68
Width: 996
GlyphClass: 2
Flags: W
HStem: -25 155<331.9 551.863 879.156 1021.18> 577 124.111<438.014 671.973>
VStem: 144 152.09<164.156 427.432> 700 254<443.262 624.5> 721 153<124.861 373.869> 786 168<567.125 665.618>
LayerCount: 2
Back
SplineSet
688.924804688 450 m 4x6c
 688.924804688 530 644.924804688 576 543.924804688 576 c 4
 433.924804688 576 356.924804688 415 356.924804688 285 c 4
 356.924804688 199 389.924804688 131 471.924804688 131 c 4
 554.924804688 131 688.924804688 319 688.924804688 450 c 4x6c
904.924804688 -25 m 4x9c
 798.924804688 -25 737.924804688 113 737.924804688 240 c 4
 737.924804688 256 738.924804688 272 740.924804688 286 c 5
 703.924804688 142 605.924804688 -25 432.924804688 -25 c 4
 264.924804688 -25 167.924804688 122 167.924804688 304 c 4
 167.924804688 506 293.924804688 727 559.924804688 727 c 4x6c
 640.924804688 727 705.924804688 696 754.924804688 657 c 5
 777.924804688 670 806.924804688 692 841.924804688 692 c 4
 884.924804688 692 933.924804688 664 941.924804688 625 c 4
 945.924804688 604 940.924804688 590 937.924804688 566 c 4
 926.924804688 491 900.924804688 405 900.924804688 314 c 4
 900.924804688 254 909.924804688 158 967.924804688 158 c 4
 996.924804688 158 1022.92480469 178 1041.92480469 193 c 4
 1113.92480469 249 1159.92480469 312 1217.92480469 385 c 4
 1225.92480469 395 1236.92480469 398 1246.92480469 398 c 4
 1277.92480469 398 1309.92480469 357 1309.92480469 320 c 4
 1309.92480469 308 1305.92480469 297 1298.92480469 288 c 4
 1213.92480469 187 1097.92480469 -25 904.924804688 -25 c 4x9c
EndSplineSet
UndoRedoHistory
Layer: 1
Undoes
EndUndoes
Redoes
EndRedoes
EndUndoRedoHistory
Fore
SplineSet
442 130 m 0xf0
 554 130 611 242 652 315 c 0
 673 352 700 403 700 454 c 0
 700 525 648 577 575 577 c 0
 407.424130814 577 296.090043571 408.575529603 296.090043571 278.494918618 c 0
 296.090043571 196.65953614 340.154178638 130 442 130 c 0xf0
738 286 m 1
 696 139 586 -25 403 -25 c 0
 244 -25 144 111 144 272 c 0
 144 497.860586908 332.767442204 701.110756808 531.857980055 701.110756808 c 0
 619.667151231 701.110756808 709.484436885 661.573236011 786 567 c 1xe4
 790 619 822 687 884 687 c 0
 931 687 954 647 954 602 c 0xf0
 954 590 952 578 949 566 c 0
 920 456 874 352 874 219 c 0
 874 168 886 123 934 123 c 0
 1009 123 1081 195 1114 243 c 0
 1131 268 1159 319 1200 319 c 0
 1236 319 1259 288 1259 257 c 0
 1259 167 1164 114 1109 74 c 0
 1056 36 980 -14 896 -14 c 0
 780 -14 721 65 721 173 c 0xe8
 721 209 727 247 738 286 c 1
EndSplineSet
EndChar

StartChar: b
Encoding: 69 98 69
Width: 917
GlyphClass: 2
Flags: W
HStem: -25 152<396.206 634.705> 592 136<538.402 754.068>
VStem: 183 176<166.15 519.945> 789 171<281.357 555.861>
LayerCount: 2
Fore
SplineSet
789 433 m 0
 789 541 731 592 653 592 c 0
 608 592 557 575 515 541 c 0
 440 482 359 416 359 293 c 0
 359 177 422 127 500 127 c 0
 625 127 789 255 789 433 c 0
703 728 m 0
 864 728 960 603 960 455 c 0
 960 381 940 302 905 233 c 0
 840 105 677 -25 496 -25 c 0
 285 -25 183 122 183 323 c 0
 183 409 198 501 221 587 c 2
 383 1206 l 2
 396 1257 436 1334 499 1334 c 0
 566 1334 587 1301 587 1257 c 0
 587 1184 528 1082 519 1053 c 1
 376 546 l 1
 439 632 567 728 703 728 c 0
EndSplineSet
EndChar

StartChar: c
Encoding: 70 99 70
Width: 675
GlyphClass: 2
Flags: W
HStem: -25 126<384.38 682.714> 608 120<432.952 685.176>
VStem: 135 188<164.097 483.991>
LayerCount: 2
Fore
SplineSet
497 -25 m 0
 308 -25 135 69 135 315 c 0
 135 545 333 728 571 728 c 0
 653 728 766 704 766 620 c 0
 766 581 736 559 707 559 c 0
 700 559 693 560 686 563 c 0
 638 583 623 608 556 608 c 0
 413 608 323 456 323 319 c 0
 323 163 404 101 513 101 c 0
 640 101 762 183 826 258 c 0
 841 276 860 277 874 277 c 0
 906 277 923 246 923 213 c 0
 923 193 915 173 903 156 c 0
 828 52 672 -25 497 -25 c 0
EndSplineSet
EndChar

StartChar: d
Encoding: 71 100 71
Width: 941
GlyphClass: 2
Flags: W
HStem: -25 151<309.123 490.943 815.194 958.664> 581.034 127.483<432.872 630.781>
VStem: 108 180<144.869 419.054> 656 157<137.401 201.886>
LayerCount: 2
UndoRedoHistory
Layer: 1
Undoes
EndUndoes
Redoes
EndRedoes
EndUndoRedoHistory
Fore
SplineSet
973 1323 m 0
 1037 1323 1061 1284 1061 1231 c 0
 1061 1191 1048 1143 1029 1093 c 1
 952 811 864 557 814 203 c 0
 813 197 813 192 813 187 c 0
 813 138 852 136 864 136 c 0
 947 136 1031 229 1076 273 c 0
 1128 323 1178 388 1213 445 c 0
 1220 456 1231 462 1242 462 c 0
 1273 462 1292 424 1292 386 c 0
 1292 356 1281 330 1267 309 c 0
 1188 192 1092 81 958 15 c 0
 920 -4 882 -13 842 -13 c 0
 748 -13 656 41 656 180 c 0
 656 187 657 195 657 202 c 1
 624 105 487 -25 341 -25 c 0
 178.219178082 -25 108 100 108 270 c 0
 108 475.457536093 322.60673986 708.517626825 518.274861107 708.517626825 c 0
 591.170313828 708.517626825 661.437260243 676.171026969 717 598 c 1
 761.615384615 780.49452954 822.341880342 965.422319475 862 1154 c 0
 877 1227 893 1323 973 1323 c 0
395 126 m 0
 522.707317073 126 667 328 667 398 c 3
 667 527.213320728 612.261114411 581.034297716 544.389185467 581.034297716 c 0
 433.669188201 581.034297716 288 437.807815452 288 245 c 0
 288 177 322.516129032 126 395 126 c 0
EndSplineSet
EndChar

StartChar: e
Encoding: 72 101 72
Width: 774
GlyphClass: 2
Flags: W
HStem: -25 137<375.824 662.091> 608 120<430.192 623.717>
VStem: 630 147<459.221 600.589>
LayerCount: 2
Back
SplineSet
521 606 m 4
 408.193359375 606 289 496 289 328 c 5
 581 336 622.92578125 457.685546875 622.92578125 527.922851562 c 4
 622.92578125 572.30859375 584.893554688 606 521 606 c 4
524.055664062 736.364257812 m 4
 656.23046875 736.364257812 778.086914062 665.498046875 778.086914062 508.295898438 c 4
 778.086914062 344.1328125 591.200195312 218.725585938 331.163085938 218.725585938 c 4
 324.161132812 218.725585938 317.10546875 218.81640625 310 219 c 5
 333.65234375 149.072265625 394.146484375 124.309570312 466.955078125 124.309570312 c 4
 612.221679688 124.309570312 746.506835938 222.883789062 795 258 c 4
 809.760742188 268.1484375 824.913085938 272.555664062 838.813476562 272.555664062 c 4
 870.022460938 272.555664062 894.922851562 250.336914062 894.922851562 220.969726562 c 4
 894.922851562 207.349609375 889.567382812 192.19140625 877 177 c 4
 794.427734375 77.181640625 622.731445312 -27.484375 420.330078125 -27.484375 c 4
 235.442382812 -27.484375 75 59.8525390625 75 318 c 4
 75 573.69140625 322.587890625 736.364257812 524.055664062 736.364257812 c 4
EndSplineSet
Fore
SplineSet
630 535 m 0
 630 588 590 608 546 608 c 0
 422 608 340 473 333 362 c 1
 335 363 630 405 630 535 c 0
531 728 m 0
 669 728 777 662 777 534 c 0
 777 318 499 278 333 261 c 1
 346 156 407 112 486 112 c 0
 626 112 818 228 876 284 c 0
 901 309 927 320 948 320 c 0
 975 320 994 302 994 272 c 0
 994 242 971 200 924 161 c 0
 831 85 637 -25 496 -25 c 0
 264 -25 135 132 135 336 c 0
 135 557 307 728 531 728 c 0
EndSplineSet
EndChar

StartChar: f
Encoding: 73 102 73
Width: 584
GlyphClass: 2
Flags: W
HStem: 563 129<159.376 315 547 937.773> 1011 160<695.95 841.292>
VStem: 357 190<692 819.289>
LayerCount: 2
Fore
SplineSet
923 848 m 0
 821 848 884 1011 781 1011 c 0
 760 1011 739 1002 715 984 c 0
 633 922 570 805 547 692 c 1
 814 692 l 2
 871 692 942 688 942 624 c 0
 942 570 848 559 752 559 c 0
 691 559 629 563 591 563 c 2
 504 563 l 1
 431 319 370 47 299 -198 c 0
 286 -246 250 -303 183 -303 c 0
 145 -303 109 -281 109 -235 c 0
 109 -216 115 -200 120 -182 c 2
 315 566 l 1
 262 566 l 2
 206 566 154 580 154 634 c 0
 154 670 194 692 239 692 c 2
 357 692 l 1
 402 851 461 982 560 1075 c 0
 621 1132 690 1171 800 1171 c 0
 914 1171 987 1054 987 923 c 0
 987 881 972 848 923 848 c 0
EndSplineSet
EndChar

StartChar: g
Encoding: 74 103 74
Width: 938
GlyphClass: 2
Flags: W
HStem: 0 133<366.483 522.312> 608 120<411.44 615.833> 672 20G<762.5 808>
VStem: 135 192<168.823 516.036>
LayerCount: 2
Fore
SplineSet
383 0 m 0xb0
 227 0 135 176 135 352 c 0
 135 565 280 728 502 728 c 0xd0
 583 728 646 696 695 657 c 1
 716 673 743 692 782 692 c 0
 834 692 904 664 885 605 c 2
 745 162 l 1
 760 179 l 1
 867 250 943 300 1041 346 c 0
 1077 363 1093 374 1124 374 c 0
 1162 374 1186 335 1186 291 c 0
 1186 255 1167 226 1139 211 c 0
 991 131 823 58 712 -56 c 1
 592 -407 l 1
 575 -487 566 -594 463 -594 c 0
 392 -594 356 -527 356 -448 c 0
 356 -392 373 -340 389 -294 c 0
 422 -201 476 -114 526 -28 c 2
 616 130 l 1
 564 71 495 0 383 0 c 0xb0
327 341 m 0
 327 232 359 133 440 133 c 0
 480 133 572 210 585 245 c 0
 609 308 629 393 651 492 c 0
 651 494 650 497 650 499 c 0
 638 566 572 608 519 608 c 0
 400 608 327 486 327 341 c 0
EndSplineSet
EndChar

StartChar: h
Encoding: 75 104 75
Width: 875
GlyphClass: 2
Flags: W
HStem: -24 161<707.5 916.33> 529 199<604.545 770.5>
VStem: 589 210<76.5055 337.44> 682 204<376.291 636>
LayerCount: 2
Fore
SplineSet
886 586 m 0xd0
 886 483 799 266 799 194 c 0
 799 152 813 137 835 137 c 0
 910 137 1042 305 1042 305 c 1
 1052 315 1064 319 1076 319 c 0
 1113 319 1156 281 1156 232 c 0
 1156 214 1151 196 1137 179 c 0
 1086 115 900 -24 745 -24 c 0
 670 -24 589 16 589 142 c 0xe0
 589 274 682 432 682 498 c 0
 682 518 674 529 652 529 c 0
 558 529 333 209 205 9 c 4
 195 -7 180 -13 163 -13 c 4
 117 -13 59 33 59 75 c 4
 59 103 65 136 76 172 c 6
 414 1254 l 1
 426 1298 463 1319 500 1319 c 0
 548 1319 593 1285 593 1223 c 0
 593 1208 589 1191 584 1174 c 2
 344 382 l 1
 448 547 584 728 732 728 c 0
 809 728 886 686 886 586 c 0xd0
EndSplineSet
EndChar

StartChar: i
Encoding: 76 105 76
Width: 550
GlyphClass: 2
Flags: W
HStem: -25 139<378.807 568.374> 818 243<344.875 538.268>
VStem: 175 188<128.034 438.331> 311 260<853.12 1027.58>
LayerCount: 2
Fore
SplineSet
311 945 m 0xd0
 311 1012 370 1061 435 1061 c 0
 505 1061 571 1009 571 933 c 0
 571 867 514 818 447 818 c 0
 374 818 311 875 311 945 c 0xd0
448 553 m 0
 407 433 363 344 363 216 c 0
 363 156 397 114 456 114 c 0
 592 114 641 257 689 348 c 0
 700 369 721 393 747 393 c 0
 778 393 806 361 806 322 c 0
 806 299 800 280 791 261 c 0
 730 124 606 -25 416 -25 c 0
 260 -25 175 94 175 251 c 0xe0
 175 364 211 472 245 561 c 0
 261 603 296 667 352 667 c 0
 406 667 453 633 453 583 c 0
 453 574 452 564 448 553 c 0
EndSplineSet
EndChar

StartChar: j
Encoding: 77 106 77
Width: 486
GlyphClass: 2
Flags: W
HStem: -435 1127<-73 294> 794 209<295.188 494.059>
VStem: 276 235<811.139 982.53>
LayerCount: 2
Fore
SplineSet
392 1003 m 0
 465 1003 511 974 511 899 c 0
 511 838 472 794 405 794 c 0
 328 794 276 817 276 895 c 0
 276 958 320 1003 392 1003 c 0
-73 -435 m 0
 -131 -435 -175 -411 -175 -349 c 0
 -175 -276 -74 -209 -39 -166 c 0
 8 -110 16 -43 37 35 c 0
 89 229 138 433 197 619 c 0
 210 659 241 692 294 692 c 0
 355 692 391 647 391 579 c 0
 391 545 381 520 372 488 c 0
 335 370 298 260 259 127 c 1
 350 221 456 299 584 388 c 0
 592 394 602 397 611 397 c 0
 647 397 678 359 678 317 c 0
 678 275 642 249 611 224 c 2
 323 -8 l 1
 283 -53 243 -88 195 -127 c 1
 147 -256 114 -435 -73 -435 c 0
EndSplineSet
EndChar

StartChar: k
Encoding: 78 107 78
Width: 958
GlyphClass: 2
Flags: W
HStem: -24 143<632.882 893.171> 571 159<568.679 774.5>
VStem: 458 143<153.268 347.189> 685 225<485.319 640.5>
LayerCount: 2
Fore
SplineSet
329 462 m 1
 430 566 537 730 728 730 c 0
 821 730 910 684 910 597 c 0
 910 386 601 445 601 241 c 0
 601 170 664 119 741 119 c 0
 925 119 1017 283 1069 365 c 0
 1087 393 1111 407 1133 407 c 0
 1162 407 1188 383 1188 333 c 0
 1188 263 1139 213 1091 159 c 0
 1022 82 903 -24 760 -24 c 0
 553 -24 458 94 458 218 c 0
 458 303 503 390 587 445 c 0
 617 465 685 480 685 527 c 0
 685 553 670 571 647 571 c 0
 628 571 606 562 591 556 c 0
 499 521 449 463 391 384 c 0
 310 273 301 140 225 29 c 0
 204 -2 176 -16 149 -16 c 0
 109 -16 74 16 74 79 c 0
 74 112 85 134 92 161 c 2
 378 1211 l 1
 377 1276 425 1325 487 1325 c 0
 542 1325 579 1295 579 1246 c 0
 579 1172 513 1067 498 1029 c 0
 424 846 396 648 329 462 c 1
EndSplineSet
EndChar

StartChar: l
Encoding: 79 108 79
Width: 677
GlyphClass: 2
Flags: W
HStem: -25 158<350.594 608.974> 1196 150<574.114 659.31>
VStem: 115 186<181.642 485.684> 661 168<924.6 1195.14>
LayerCount: 2
UndoRedoHistory
Layer: 0
Undoes
EndUndoes
Redoes
EndRedoes
EndUndoRedoHistory
UndoRedoHistory
Layer: 1
Undoes
EndUndoes
Redoes
EndRedoes
EndUndoRedoHistory
Fore
SplineSet
970 362 m 0
 879 157 662 -25 426 -25 c 0
 218 -25 115 116 115 311 c 0
 115 609 315 1346 607 1346 c 0
 752 1346 829 1217 829 1073 c 0
 829 937 776 838 713 743 c 0
 609 587 466 458 310 353 c 1
 304 332 301 313 301 294 c 0
 301 203 368 133 457 133 c 0
 606 133 742 269 807 362 c 0
 855 431 895 454 924 454 c 0
 957 454 976 423 976 391 c 0
 976 381 974 371 970 362 c 0
612 1189 m 0
 477.83984375 1107.07324219 350.959960938 739.997070312 300 474 c 5
 658 882 661 1024.66015625 661 1138 c 0
 661 1175 649 1196 631 1196 c 0
 625 1196 619 1193 612 1189 c 0
EndSplineSet
EndChar

StartChar: m
Encoding: 80 109 80
Width: 1251
GlyphClass: 2
Flags: W
HStem: -25 145<1165.78 1342.32> 558 170<935.98 1130.5> 583 145<516.154 699>
VStem: 83 308 973 189<122.427 338.394> 1051 203<346.885 550.003>
LayerCount: 2
Fore
SplineSet
1162 180 m 0xd8
 1162 143 1182 120 1226 120 c 0
 1302 120 1388 194 1424 239 c 0
 1439 258 1460 266 1481 266 c 0
 1519 266 1557 239 1557 203 c 0
 1557 192 1553 180 1544 167 c 0
 1458 41 1318 -25 1189 -25 c 4
 1036 -25 973 49 973 164 c 0xd8
 973 227 991 301 1024 380 c 0
 1035 407 1051 443 1051 477 c 0
 1051 522 1017 558 974 558 c 0xd4
 930 558 898 526 876 500 c 0
 822 435 804 402 769 263 c 0
 743 162 742 28 622 28 c 0
 575 28 541 50 541 89 c 0
 541 99 543 110 547 121 c 0
 597 252 621 338 651 467 c 0
 653 476 654 486 654 494 c 0
 654 539 625 583 579 583 c 0
 463 583 316 247 278 94 c 1
 287 298 337 488 441 614 c 0
 487 669 557 728 651 728 c 0xb4
 747 728 824 662 824 567 c 0
 824 564 823 562 823 559 c 1
 869 640 954 728 1077 728 c 0
 1184 728 1254 651 1254 545 c 0xd4
 1254 463 1222 389 1201 321 c 0
 1193 297 1162 230 1162 180 c 0xd8
EndSplineSet
Refer: 268 -1 N 1 0 0 1 9 0 2
EndChar

StartChar: n
Encoding: 81 110 81
Width: 854
GlyphClass: 2
Flags: W
HStem: -25 147<678 875.385> 591 136<513.188 708.5>
VStem: 83 308 544 187<123.169 319.677> 637 187<349.689 588.407>
LayerCount: 2
Back
SplineSet
350.206054688 692 m 4
 403.206054688 692 444.206054688 630 426.206054688 563 c 5
 473.206054688 645 603.206054688 727 745.206054688 727 c 4
 820.206054688 727 877.206054688 693 893.206054688 615 c 4
 898.206054688 591 900.206054688 568 900.206054688 546 c 4
 900.206054688 455 863.206054688 378 836.206054688 315 c 5
 823.206054688 282 786.206054688 232 786.206054688 187 c 4
 786.206054688 167 793.206054688 152 812.206054688 152 c 4
 955.206054688 152 1115.20605469 327 1183.20605469 405 c 4
 1189.20605469 412 1199.20605469 418 1212.20605469 418 c 4
 1245.20605469 418 1261.20605469 381 1261.20605469 343 c 4
 1261.20605469 296 1237.20605469 258 1207.20605469 232 c 4
 1093.20605469 134 952.206054688 -25 734.206054688 -25 c 4
 641.206054688 -25 601.206054688 50 601.206054688 152 c 4
 601.206054688 276 672.206054688 374 698.206054688 471 c 4
 709.206054688 512 702.206054688 551 661.206054688 551 c 4
 467.206054688 551 394.206054688 314 342.206054688 191 c 4
 315.206054688 127 318.206054688 -25 220.206054688 -25 c 4
 172.206054688 -25 128.206054688 13 128.206054688 69 c 4
 128.206054688 79 129.206054688 91 131.206054688 106 c 4
 158.206054688 277 219.206054688 446 259.206054688 607 c 4
 269.206054688 650 297.206054688 692 350.206054688 692 c 4
EndSplineSet
Fore
SplineSet
731 170 m 4xf0
 731 143 743 122 777 122 c 4
 817 122 854 151 880 170 c 4
 911 193 940 219 963 250 c 4
 993 291 1017 366 1086 366 c 4
 1127 366 1158 331 1158 286 c 4
 1158 210 1090 157 1044 121 c 4
 965 60 859 -25 731 -25 c 4
 625 -25 544 52 544 158 c 4xf0
 544 280 637 407 637 527 c 4
 637 570 607 591 572 591 c 4
 427 591 310 216 278 94 c 5
 333 393 l 5
 363 542 475 727 657 727 c 4
 760 727 824 655 824 551 c 4xe8
 824 429 773 320 739 213 c 4
 735 199 731 184 731 170 c 4xf0
EndSplineSet
Refer: 268 -1 S 1 0 0 1 9 0 2
EndChar

StartChar: o
Encoding: 82 111 82
Width: 826
GlyphClass: 2
Flags: W
HStem: -25 137<371.096 594.167> 588 140<425.269 654.263>
VStem: 135 190<158.418 481.505> 694 189<230.865 547.227>
LayerCount: 2
UndoRedoHistory
Layer: 1
Undoes
EndUndoes
Redoes
EndRedoes
EndUndoRedoHistory
Fore
SplineSet
545 588 m 4
 404 588 325 452 325 305 c 4
 325 201 367 112 474 112 c 4
 620 112 694 267 694 417 c 4
 694 516 648 588 545 588 c 4
135 304 m 4
 135 546 321 728 553 728 c 4
 746 728 883 599 883 410 c 4
 883 147 678 -25 449 -25 c 4
 260 -25 135 119 135 304 c 4
EndSplineSet
EndChar

StartChar: p
Encoding: 83 112 83
Width: 978
GlyphClass: 2
Flags: W
HStem: -517 21G<2 62> -25 131<461.455 706.514> 569 160<488.901 701.313> 683 20G<279 328>
VStem: -100 209<-496.911 -417> 782 201<187.908 482.423>
LayerCount: 2
Fore
SplineSet
327 243 m 1xec
 411 199 479 106 597 106 c 0
 712 106 782 221 782 338 c 0
 782 445 710 569 586 569 c 0
 412 569 374 373 327 243 c 1xec
33 -517 m 0
 -29 -517 -100 -490 -100 -441 c 0
 -100 -434 -99 -426 -96 -417 c 2
 248 616 l 2
 258 648 249 703 309 703 c 0xdc
 347 703 363 662 363 617 c 0
 363 588 359 558 355 538 c 1
 399 643 512 729 656 729 c 0
 849 729 983 543 983 354 c 0
 983 144 820 -25 614 -25 c 4
 497 -25 364 31 272 106 c 1
 249 18 158 -252 109 -418 c 0
 92 -476 91 -517 33 -517 c 0
EndSplineSet
EndChar

StartChar: q
Encoding: 84 113 84
Width: 852
GlyphClass: 2
Flags: W
HStem: -594 211<411.5 554.37> -25 177<238.534 392.917> 573 154<306.287 531.44> 672 20G<647.5 690>
VStem: 41 176<166.283 475.679> 288 193<-471 -246.07>
LayerCount: 2
Fore
SplineSet
217 310 m 0xec
 217 239 234 152 297 152 c 0
 361 152 396 196 427 237 c 0
 480 310 516 401 553 502 c 1
 528 541 487 573 429 573 c 0
 293 573 217 447 217 310 c 0xec
290 -25 m 0
 130 -25 41 142 41 322 c 0
 41 493 136 603 248 671 c 0
 293 698 351 727 414 727 c 0xec
 493 727 555 685 594 637 c 1
 609 655 632 692 663 692 c 0xdc
 717 692 766 642 746 575 c 2
 497 -264 l 1
 494 -284 481 -318 481 -346 c 0
 481 -368 489 -383 508 -383 c 0
 519 -383 530 -376 540 -361 c 0
 648 -211 644 51 721 226 c 0
 762 320 885 365 967 428 c 0
 973 433 982 434 989 434 c 0
 1030 434 1050 377 1050 330 c 0
 1050 282 1028 245 998 224 c 2
 875 138 l 1
 842 109 830 43 819 -12 c 0
 772 -239 739 -594 461 -594 c 0
 362 -594 288 -527 288 -415 c 0
 288 -371 302 -343 315 -299 c 2
 415 37 l 1
 386 5 350 -25 290 -25 c 0
EndSplineSet
EndChar

StartChar: r
Encoding: 85 114 85
Width: 772
GlyphClass: 2
Flags: W
HStem: 142 149.478<737.842 884.173> 544.276 148.724<540.255 694.5>
VStem: 111 214<9.47852 271.885> 237.873 191.127<556 650.966> 550.176 174.328<305.172 519.777> 567.939 205.061<413.955 625.099>
LayerCount: 2
UndoRedoHistory
Layer: 1
Undoes
EndUndoes
Redoes
EndRedoes
EndUndoRedoHistory
Fore
SplineSet
204.398282297 652.296619363 m 0xd0
 204.398282297 682.425168815 257.191719528 694 295 694 c 0
 378 694 425 635 429 556 c 1
 485 607 564 693 661 693 c 0
 728 693 773 643 773 578 c 0xd4
 773 520.233009709 724.503440475 443.067395608 724.503440475 380.403665325 c 0
 724.503440475 340.71086618 758.630733363 291.477975162 809.324746224 291.477975162 c 0
 875.280868669 291.477975162 914.357563207 394.740468855 971.435029675 394.740468855 c 0
 1003.84656289 394.740468855 1030 366.722641368 1030 332 c 0
 1030 221 868 142 760 142 c 0
 639.037440706 142 550.175567753 234.569421078 550.175567753 357.141955265 c 0xc8
 550.175567753 404.983564643 567.938816966 448.74045729 567.938816966 498.18391131 c 0
 567.938816966 524.034027106 562.210768376 544.27637138 544.192549606 544.27637138 c 0
 532.370405266 544.27637138 515.257395685 535.562129498 491 514 c 0
 398 431 344 284 325 134 c 0
 316 61 294 -20 212 -20 c 0
 149 -20 111 38 111 101 c 0xe4
 111 158 135 211 153 264 c 1
 235 527 l 2
 237.008301134 533.407436953 237.873384172 539.814873906 237.873384172 546.186450678 c 0
 237.873384172 585.82146102 204.398282297 624.068832085 204.398282297 652.296619363 c 0xd0
EndSplineSet
EndChar

StartChar: s
Encoding: 86 115 86
Width: 631
GlyphClass: 2
Flags: W
HStem: -25 126<282.334 475.717> 597 131<411.075 577.698>
VStem: 213 197<495.758 596.072> 487 188<110.62 275.742>
LayerCount: 2
Fore
SplineSet
487 182 m 0
 487 323 213 380 213 558 c 0
 213 679 334 728 443 728 c 0
 532 728 613 695 613 641 c 0
 613 602 590 579 563 579 c 0
 540 579 490 597 453 597 c 0
 428 597 410 589 410 562 c 0
 410 534 446 490 547 429 c 0
 612 390 675 300 675 209 c 0
 675 49 553 -25 417 -25 c 0
 282 -25 134 47 82 178 c 0
 82 179 82 181 82 182 c 0
 81 187 80 191 80 196 c 0
 80 236 123 260 150 260 c 0
 153 260 156 260 158 259 c 0
 162 259 165 257 168 254 c 0
 252 146 338 101 399 101 c 0
 452 101 487 137 487 182 c 0
EndSplineSet
EndChar

StartChar: t
Encoding: 87 116 87
Width: 674
GlyphClass: 2
Flags: W
HStem: -25 158<377.092 632.826> 444 107<20.4259 343.048> 451 130<366.952 737.875> 1196 150<576.748 682.116>
VStem: 136 179<193.93 549.061> 684 158<994.977 1194.34>
LayerCount: 2
Back
SplineSet
993.466796875 342.810546875 m 4
 997.54296875 352.008789062 999.5 362.177734375 999.5 372.309570312 c 4
 999.5 404.056640625 980.28515625 435.4375 946.840820312 435.4375 c 4
 917.63671875 435.4375 877.58203125 411.508789062 829.99609375 343 c 4
 765.313476562 249.877929688 629.094726562 114.646484375 480.362304688 114.646484375 c 4
 391.13671875 114.646484375 323.609375 183.404296875 323.609375 274.650390625 c 4
 323.609375 293.6953125 326.55078125 313.720703125 332.8515625 334.3046875 c 5
 488.830078125 439.219726562 631.577148438 567.561523438 735.78515625 724.012695312 c 4
 799.137695312 819.127929688 851.635742188 918.025390625 851.635742188 1053.95117188 c 4
 851.635742188 1197.59472656 774.330078125 1327.35839844 629.649414062 1327.35839844 c 4
 337.813476562 1327.35839844 138 589.237304688 138 291.67578125 c 4
 138 96.673828125 241.310546875 -43.5888671875 449.3203125 -43.5888671875 c 4
 685.50390625 -43.5888671875 902.43359375 137.369140625 993.466796875 342.810546875 c 4
634.99609375 1170 m 4
 641.8828125 1174.10449219 648.841796875 1177.11132812 654.478515625 1177.11132812 c 4
 672.79296875 1177.11132812 683.721679688 1156.33789062 683.721679688 1119.08691406 c 4
 683.721679688 1012.875 594.877929688 772.709960938 335.080078125 498.16796875 c 5
 383.979492188 748.283203125 506.330078125 1093.3203125 634.99609375 1170 c 4
653.239257812 377.610351562 m 4
 653.239257812 418.491210938 579.8046875 422.802734375 530.004882812 422.802734375 c 4
 524.809570312 422.802734375 519.76171875 422.538085938 514.950195312 422 c 6
 34.9501953125 422 l 6
 -12.1572265625 422 -31.1318359375 403.383789062 -31.1318359375 371.678710938 c 4
 -31.1318359375 349.598632812 -17.080078125 330.87109375 14.6845703125 330.87109375 c 4
 15.982421875 330.87109375 17.3095703125 330.90234375 18.666015625 330.965820312 c 6
 544 318 l 6
 596 317 653.239257812 331.055259989 653.239257812 377.610351562 c 4
EndSplineSet
Fore
SplineSet
994 362 m 4x9c
 903 157 686 -25 450 -25 c 4
 253 -25 136 101 136 330 c 4
 136 623 335 1346 630 1346 c 4
 775 1346 842 1243 842 1099 c 4
 842 815 433 558 333 467 c 5
 321 427 315 387 315 349 c 4
 315 231 372 133 481 133 c 4
 630 133 765 269 830 362 c 4
 878 431 918 454 947 454 c 4
 980 454 1000 423 1000 391 c 4
 1000 381 998 371 994 362 c 4x9c
655 1196 m 4
 517 1196 375 746 336 607 c 5
 596 882 684 1032 684 1138 c 4
 684 1175 673 1196 655 1196 c 4
744 527 m 4
 744 480 710 452 658 451 c 6xbc
 69 444 l 6
 68 444 66 444 65 444 c 4
 33 444 19 479 19 501 c 4
 19 533 38 551 85 551 c 5xdc
 625 581 l 5xbc
 671 581 744 595 744 527 c 4
EndSplineSet
EndChar

StartChar: u
Encoding: 88 117 88
Width: 944
GlyphClass: 2
Flags: W
HStem: -25 154<340.585 531.888> -6 130<814.557 973.304> 698 20G<293.5 387.5 840 876.5>
VStem: 135 190<144.199 405.214> 693 118<129.803 177>
LayerCount: 2
Back
SplineSet
821.982421875 170.260742188 m 4xf0
 821.982421875 143.524414062 833.52734375 121.990234375 867.828125 121.990234375 c 4
 908.075195312 121.990234375 944.454101562 151.091796875 970.365234375 169.88671875 c 4
 1001.69433594 192.611328125 1030.94628906 218.706054688 1053.59375 250.091796875 c 4
 1083.45214844 291.470703125 1107.95117188 366.370117188 1176.96777344 366.370117188 c 4
 1217.52636719 366.370117188 1249 330.50390625 1249 285.829101562 c 4
 1249 209.87890625 1181.22070312 156.296875 1135.1484375 120.524414062 c 4
 1056.30175781 59.302734375 949.559570312 -27.00390625 821.797851562 -27.00390625 c 4
 715.918945312 -27.00390625 635.279296875 51.76171875 635.279296875 157.879882812 c 4xf0
 635.279296875 279.78515625 707.612304688 373.325195312 707.612304688 493.6796875 c 4
 707.612304688 536.391601562 677.416992188 558.29296875 642.431640625 558.29296875 c 4
 497.000976562 558.29296875 400.763671875 215.501953125 368.5390625 94 c 5
 423.5390625 393 l 5
 453.55078125 542.174804688 565.423828125 727.30078125 747.487304688 727.30078125 c 4
 850.817382812 727.30078125 914.317382812 655.186523438 914.317382812 551.436523438 c 4xe8
 914.317382812 429.298828125 862.826171875 319.57421875 829.311523438 212.634765625 c 4
 824.935546875 198.672851562 821.982421875 183.818359375 821.982421875 170.260742188 c 4xf0
  Spiro
    707.539 490 o
    700.849 526.656 o
    682.232 547.825 o
    594.093 544.586 o
    390.081 164.13 o
    368.539 94 v
    423.539 393 v
    736.539 727 o
    897.684 636.098 o
    913.539 530 o
    844.609 258.851 o
    820.539 165 o
    826.01 144.093 o
    841.744 128.247 o
    866.539 122 o
    1053.59 250.092 o
    1189.54 365 o
    1248.77 278.911 o
    966.688 12.0751 o
    820.539 -27 o
    635.539 147 o
    688.904 390.966 o
    0 0 z
  EndSpiro
EndSplineSet
Refer: 268 -1 S 1 0 0 1 99.5388 0 2
Fore
SplineSet
693 177 m 5x78
 671 116 561 -25 393 -25 c 4
 231 -25 135 87 135 250 c 4
 135 301 144 351 157 400 c 4
 185 508 227 718 360 718 c 4
 415 718 454 683 454 627 c 4
 454 579 431 541 415 505 c 4
 394 459 325 327 325 229 c 4
 325 170 362 129 427 129 c 4xb8
 484 129 542 176 568 209 c 4
 675 344 698 633 802 711 c 4
 816 721 833 722 847 722 c 4
 906 722 927 684 927 638 c 4
 927 612 920 584 911 559 c 4
 901 532 811 320 811 202 c 4
 811 156 826 124 864 124 c 4
 940 124 1011 194 1052 247 c 4
 1090 296 1101 367 1173 367 c 4
 1225 367 1248 339 1248 287 c 4
 1248 232 1200 176 1155 136 c 4
 1089 77 952 -6 844 -6 c 4
 764 -6 699 40 693 177 c 5x78
EndSplineSet
EndChar

StartChar: v
Encoding: 89 118 89
Width: 800
GlyphClass: 2
Flags: W
HStem: -25 179<289.41 386.366> 102 160<635.622 854.023> 694 34G<192.5 238.5 635 677>
VStem: 96 174<155.672 686.423>
LayerCount: 2
Fore
SplineSet
270 337 m 0xb0
 270 291 277 154 322 154 c 0xb0
 374 154 399 224 426 263 c 0
 507 383 513 576 600 690 c 0
 612 706 627 714 643 714 c 0
 711 714 742 648 742 575 c 0
 742 536 730 506 718 474 c 0
 693 411 662 355 635 283 c 1
 648 269 666 262 689 262 c 0
 818 262 899 329 962 388 c 0
 969 395 979 397 988 397 c 0
 1021 397 1043 357 1043 317 c 0
 1043 277 1021 247 996 224 c 0
 922 159 846 102 706 102 c 0x70
 648 102 618 123 565 152 c 1
 517 65 458 -25 332 -25 c 0
 152 -25 96 159 96 353 c 0
 96 461 113 562 127 649 c 0
 134 693 166 728 219 728 c 0
 258 728 316 699 309 649 c 0
 296 553 270 449 270 337 c 0xb0
EndSplineSet
EndChar

StartChar: w
Encoding: 90 119 90
Width: 1139
GlyphClass: 2
Flags: W
HStem: -25 151<193.096 350.499 655.369 789.331> 115 151<1011.98 1227.26> 678 28G<189 264.5 609.5 661.5 965 1017>
VStem: 72 190<126.367 248.012> 557 155<612.7 696.777>
LayerCount: 2
Fore
SplineSet
977 698 m 0xb8
 1057 698 1075 614 1075 532 c 0
 1075 434 1044 350 1011 287 c 1
 1018 273 1029 266 1044 266 c 0
 1162 266 1233 308 1299 354 c 0
 1308 361 1316 365 1327 365 c 0
 1360 365 1393 336 1393 296 c 0
 1393 193 1169 115 1060 115 c 0x78
 1023 115 981 126 937 147 c 1
 883 61 808 -25 674 -25 c 0
 578 -25 529 26 509 122 c 1
 449 45 388 -25 264 -25 c 0
 126 -25 72 66 72 216 c 0
 72 319 102 411 120 489 c 0
 139 569 140 706 238 706 c 0
 291 706 364 657 348 583 c 2
 262 181 l 1
 256 158 262 122 284 122 c 0
 306 122 316 132 329 144 c 0
 446 257 513 436 557 612 c 0
 568 658 578 706 641 706 c 0
 682 706 704 688 712 653 c 1
 712 638 714 627 712 612 c 2
 654 151 l 1
 658 134 668 126 685 126 c 0
 915 126 832 519 920 660 c 0
 934 684 953 698 977 698 c 0xb8
EndSplineSet
EndChar

StartChar: x
Encoding: 91 120 91
Width: 723
GlyphClass: 2
Flags: W
HStem: -25 160<493.963 658.43> 696 20G<221.5 286 651 686>
LayerCount: 2
Fore
SplineSet
41 -25 m 0
 3 -25 -48 0 -48 43 c 0
 -48 58 -39 72 -23 89 c 2
 229 357 l 1
 177 600 l 2
 174 614 173 627 173 639 c 0
 173 687 196 716 247 716 c 0
 325 716 352 679 368 600 c 2
 392 485 l 1
 576 671 l 2
 604 699 634 713 668 713 c 0
 704 713 751 693 751 651 c 0
 751 629 736 613 724 600 c 2
 452 320 l 1
 492 184 l 1
 498 151 514 135 537 135 c 0
 621 135 683 198 740 246 c 2
 839 330 l 1
 849 337 859 341 872 341 c 0
 909 341 935 308 935 266 c 0
 935 222 905 192 873 165 c 0
 775 85 685 -25 513 -25 c 0
 382 -25 318 52 288 191 c 1
 110 3 l 2
 94 -13 72 -25 41 -25 c 0
EndSplineSet
EndChar

StartChar: y
Encoding: 92 121 92
Width: 942
GlyphClass: 2
Flags: W
HStem: -25 217<220 387.151> 688 20G<338.5 385.5 824 871>
VStem: 405 327<-359.317 -239.284>
LayerCount: 2
Fore
SplineSet
524 -593 m 0
 437 -593 405 -507 405 -414 c 0
 405 -269 492 -167 551 -64 c 1
 665 341 l 1
 590 222 519 132 451 69 c 0
 383 6 314 -25 243 -25 c 0
 197 -25 157 -5 147 42 c 0
 143 60 141 78 141 96 c 0
 141 162 163 228 178 274 c 0
 214 388 238 504 265 634 c 0
 274 676 312 708 365 708 c 0
 406 708 457 685 449 634 c 1
 346 253 l 2
 339 228 335 192 358 192 c 0
 378 192 399 216 410 228 c 1
 737 634 l 1
 770 665 793 692 855 692 c 0
 887 692 910 656 905 618 c 1
 779 151 l 1
 855 219 973 284 1072 328 c 0
 1097 339 1112 345 1116 345 c 0
 1156 345 1195 306 1195 258 c 0
 1195 216 1162 189 1127 167 c 0
 980 74 838 7 732 -117 c 1
 708 -258 676 -593 524 -593 c 0
EndSplineSet
EndChar

StartChar: z
Encoding: 93 122 93
Width: 847
GlyphClass: 2
Flags: W
HStem: -446 122<225.247 399.364> 80 148<307 395.969> 543 145<15.5002 463>
VStem: 478 166<-207.31 -25.5>
LayerCount: 2
Fore
SplineSet
306 -324 m 0
 397 -324 478 -203 478 -107 c 0
 478 -86 473 -68 467 -53 c 1
 378 -104 282 -154 231 -228 c 1
 194 -280 257 -324 306 -324 c 0
630 47 m 1
 636 22 644 -11 644 -40 c 0
 644 -97 627 -148 608 -190 c 0
 561 -300 461 -446 289 -446 c 0
 175 -446 66 -397 42 -285 c 0
 40 -276 39 -268 39 -260 c 0
 39 -207 76 -167 110 -132 c 0
 186 -55 284 6 397 71 c 1
 375 79 353 80 326 80 c 0
 292 80 249 78 212 78 c 2
 185 78 l 2
 143 78 87 81 81 110 c 0
 79 118 78 125 78 132 c 0
 78 162 95 183 113 208 c 0
 160 273 211 328 284 392 c 2
 463 549 l 1
 355 549 232 543 71 543 c 0
 31 543 10 569 10 609 c 0
 10 649 30 688 71 688 c 0
 117 688 182 689 238 689 c 0
 311 689 399 691 471 691 c 0
 522 691 575 692 615 692 c 0
 659 692 687 659 687 610 c 0
 687 568 658 540 634 516 c 0
 532 413 420 326 307 228 c 1
 328 228 l 2
 415 228 499 201 556 161 c 1
 710 257 851 351 964 476 c 0
 972 484 981 487 995 487 c 0
 1025 487 1067 456 1067 421 c 0
 1067 412 1063 406 1058 399 c 0
 958 252 790 154 630 47 c 1
EndSplineSet
EndChar

StartChar: braceleft
Encoding: 94 123 94
Width: 810
GlyphClass: 2
Flags: W
HStem: -205 148<550.777 754.309> 618 140<405.714 517.422> 1361 152<985.915 1254.44>
VStem: 523 177<361.645 613.993>
LayerCount: 2
Fore
SplineSet
452 618 m 0
 419 618 397 642 397 679 c 0
 397 728 441 758 497 758 c 0
 611 758 642 841 671 924 c 1
 764 1226 l 1
 806 1357 840 1473 993 1502 c 0
 1034 1510 1086 1513 1148 1513 c 1
 1225 1509 l 1
 1252 1509 1264 1478 1264 1447 c 0
 1264 1397 1230 1361 1175 1361 c 0
 1054 1361 988 1349 955 1278 c 0
 945 1256 934 1228 923 1193 c 2
 834 916 l 1
 808 841 793 783 751 736 c 0
 722 704 690 692 632 684 c 1
 672 653 700 607 700 538 c 0
 700 501 690 468 680 438 c 2
 550 29 l 1
 527 -56 634 -57 716 -57 c 0
 748 -57 767 -81 767 -117 c 0
 767 -169 721 -205 665 -205 c 0
 514 -205 380 -168 380 -10 c 0
 380 26 389 54 397 86 c 0
 429 200 464 306 504 430 c 0
 512 458 523 496 523 534 c 0
 523 588 502 618 452 618 c 0
EndSplineSet
EndChar

StartChar: bar
Encoding: 95 124 95
Width: 918
GlyphClass: 2
Flags: W
VStem: 481 325
LayerCount: 2
Fore
SplineSet
806 1573 m 1
 637 -205 l 1
 481 -205 l 1
 642 1573 l 1
 806 1573 l 1
EndSplineSet
EndChar

StartChar: braceright
Encoding: 96 125 96
Width: 1018
GlyphClass: 2
Flags: W
HStem: -205 152<186.332 454.04> 550 140<911.814 1025.99> 1365 148<667.146 872>
VStem: 729 177<694.86 952.217>
LayerCount: 2
Fore
SplineSet
979 690 m 0
 1012 690 1034 664 1034 627 c 0
 1034 579 990 550 935 550 c 0
 892 550 857 537 832 511 c 0
 807 485 783 443 763 384 c 1
 673 82 l 2
 634 -51 599 -165 447 -194 c 0
 407 -202 355 -205 294 -205 c 1
 217 -201 l 1
 188 -201 177 -170 177 -139 c 0
 177 -89 210 -53 265 -53 c 0
 385 -53 450 -40 483 30 c 0
 493 52 504 80 514 115 c 2
 600 392 l 1
 616 439 630 476 642 505 c 0
 672 576 704 611 799 624 c 1
 759 656 729 698 729 768 c 0
 729 806 739 840 748 870 c 2
 874 1279 l 1
 902 1362 781 1365 706 1365 c 0
 674 1365 655 1391 655 1427 c 0
 655 1478 700 1513 756 1513 c 0
 910 1513 1042 1475 1042 1313 c 0
 1042 1280 1035 1253 1028 1222 c 0
 1000 1106 964 1002 925 878 c 0
 917 850 906 813 906 776 c 0
 906 721 927 690 979 690 c 0
EndSplineSet
EndChar

StartChar: asciitilde
Encoding: 97 126 97
Width: 1393
GlyphClass: 2
Flags: W
HStem: 1188 170<801.678 1071.33> 1321 174<399.868 666.874>
LayerCount: 2
Fore
SplineSet
1230 1391 m 1x80
 1175 1276 1104 1188 957 1188 c 0x80
 902 1188 829 1207 737 1245 c 1
 642 1291 573 1316 528 1321 c 1
 431 1321 388 1274 352 1220 c 1
 253 1297 l 1
 308 1412 373 1495 521 1495 c 0x40
 572 1495 646 1474 744 1431 c 1
 815 1394 887 1358 966 1358 c 0
 997 1358 1025 1366 1049 1382 c 0
 1073 1398 1099 1428 1127 1469 c 1
 1230 1391 l 1x80
EndSplineSet
EndChar

StartChar: exclamdown
Encoding: 98 161 98
Width: 545
GlyphClass: 2
Flags: W
HStem: 1004 270<417.135 586.225>
VStem: 21 211<4.125 159.636> 372 260<1049.95 1228.66>
LayerCount: 2
Fore
SplineSet
518 1274 m 0
 581 1274 632 1223 632 1151 c 0
 632 1087 589 1041 545 1019 c 0
 525 1009 505 1004 483 1004 c 0
 418 1004 372 1052 372 1124 c 0
 372 1190 416 1240 462 1262 c 0
 479 1270 498 1274 518 1274 c 0
407 818 m 0
 436 818 456 803 456 772 c 0
 456 768 455 764 454 760 c 0
 375 516 311 303 232 58 c 1
 219 13 171 -16 105 -16 c 0
 66 -16 21 -3 21 41 c 0
 21 47 22 52 24 58 c 0
 123 306 216 514 319 760 c 0
 331 791 363 818 407 818 c 0
EndSplineSet
EndChar

StartChar: cent
Encoding: 99 162 99
Width: 645
GlyphClass: 2
Flags: W
VStem: 25 183<155.942 324.08>
LayerCount: 2
Fore
SplineSet
255 153 m 1
 303 273 353 389 402 509 c 1
 326 450 254 356 220 264 c 0
 212 243 208 226 208 212 c 0
 208 180 226 163 255 153 c 1
184 -22 m 1
 96 -8 25 54 25 163 c 0
 25 261 70 332 114 398 c 0
 181 498 272 592 380 659 c 0
 415 680 449 697 484 709 c 1
 558 884 l 2
 567 904 586 925 614 925 c 0
 633 925 652 908 642 884 c 2
 577 727 l 1
 585 727 l 2
 642 727 688 703 688 637 c 0
 688 612 681 591 675 566 c 0
 663 517 638 470 603 441 c 0
 586 426 564 419 539 419 c 0
 515 419 510 425 510 448 c 0
 510 469 516 491 516 513 c 0
 516 529 513 540 503 545 c 1
 344 152 l 1
 508 185 622 290 737 365 c 0
 746 370 754 373 767 373 c 0
 795 373 809 349 809 320 c 0
 809 286 784 270 759 246 c 0
 663 155 533 65 391 10 c 0
 352 -5 312 -16 274 -21 c 1
 214 -173 l 1
 205 -193 183 -212 155 -212 c 0
 132 -212 108 -196 122 -173 c 1
 143 -122 162 -72 184 -22 c 1
EndSplineSet
EndChar

StartChar: sterling
Encoding: 100 163 100
Width: 912
GlyphClass: 2
Flags: W
HStem: -21 154<516.965 900.858> -20 200<40.9296 328.276 712.577 921.944> 381 139<235.839 407 628 833.422> 931 143<780.567 898.129>
VStem: 910 173<669.203 925.425>
LayerCount: 2
Fore
SplineSet
292 381 m 2x78
 254 381 229 405 229 446 c 0
 229 494 273 520 329 520 c 2
 448 520 l 1
 480 632 511 732 553 834 c 1
 606 966 696 1074 860 1074 c 0
 991 1074 1083 970 1083 822 c 0
 1083 786 1077 754 1067 727 c 0
 1050 675 1019 627 954 627 c 0
 918 627 872 647 884 690 c 1
 901 742 910 778 910 830 c 0
 910 884 890 931 844 931 c 0
 796 931 780 887 762 854 c 0
 740 813 716 761 698 715 c 0
 674 657 651 592 628 520 c 1
 779 520 l 2
 812 520 838 486 838 448 c 0
 838 402 793 381 738 381 c 2
 590 381 l 1
 513 147 l 1
 616 135 l 2
 624 134 632 133 640 133 c 2
 662 133 l 2
 748 133 818 153 890 167 c 0
 893 167 898 168 901 168 c 0
 941 168 967 137 967 94 c 0
 967 4 832 -4 742 -14 c 0
 704 -18 668 -21 631 -21 c 0xb8
 528 -21 441 -8 359 25 c 1
 304 -5 243 -20 178 -20 c 0
 98 -20 15 8 15 94 c 0
 15 154 79 180 148 180 c 0
 208 180 273 173 331 168 c 1
 407 381 l 1
 292 381 l 2x78
EndSplineSet
EndChar

StartChar: currency
Encoding: 101 164 101
Width: 1323
GlyphClass: 2
Flags: W
HStem: 558 141<707.581 1005.06> 1266 143<620.198 918.719>
VStem: 381 145<876.692 1167.42> 1100 144<797.253 1087.14>
LayerCount: 2
Fore
SplineSet
865 699 m 0
 996 699 1071 788 1093 880 c 0
 1097 900 1100 920 1100 940 c 0
 1100 956 1099 972 1095 989 c 0
 1069 1117 971 1204 872 1244 c 0
 835 1259 798 1266 760 1266 c 0
 628 1266 556 1177 533 1084 c 0
 529 1064 526 1044 526 1024 c 0
 526 1008 527 992 531 975 c 0
 557 847 655 759 755 720 c 0
 791 706 828 699 865 699 c 0
506 742 m 1
 446 811 408 887 390 970 c 0
 384 999 381 1027 381 1054 c 0
 381 1108 392 1159 415 1208 c 1
 179 1402 l 1
 277 1526 l 1
 513 1333 l 1
 577 1384 651 1409 736 1409 c 0
 819 1409 900 1386 979 1341 c 1
 1125 1526 l 1
 1275 1402 l 1
 1128 1215 l 1
 1182 1150 1217 1076 1235 993 c 0
 1241 965 1244 938 1244 911 c 0
 1244 858 1232 807 1209 757 c 1
 1453 555 l 1
 1357 430 l 1
 1110 633 l 1
 1047 583 975 558 892 558 c 0
 809 558 731 578 658 619 c 1
 509 430 l 1
 357 555 l 1
 506 742 l 1
EndSplineSet
EndChar

StartChar: yen
Encoding: 102 165 102
Width: 893
GlyphClass: 2
Flags: W
HStem: 586 142<148 494 913 1255> 854 142<167 311 1193 1275>
VStem: 238 225<1052.17 1366.4> 364 236<-69.8087 196.969> 1081 206<1085.81 1357.67>
LayerCount: 2
Fore
SplineSet
477 -99 m 0xd8
 413 -99 364 -49 364 26 c 0xd8
 364 46 369 61 376 84 c 0
 381 102 388 129 397 164 c 1
 532 586 l 1
 135 586 l 1
 148 728 l 1
 494 728 l 1
 457 766 423 808 392 854 c 1
 155 854 l 1
 167 996 l 1
 311 997 l 1
 273 1064 238 1138 238 1235 c 0
 238 1326 282 1404 374 1404 c 0
 432 1404 466 1364 466 1297 c 0
 466 1280 464 1262 464 1246 c 0
 464 1233 463 1218 463 1203 c 0xe8
 463 1181 464 1158 469 1134 c 0
 495 1009 567 910 636 834 c 0
 662 806 689 781 715 760 c 1
 779 808 l 2
 904 901 1029 1006 1072 1174 c 0
 1076 1191 1080 1205 1081 1216 c 2
 1082 1243 l 2
 1085 1305 1088 1350 1145 1366 c 0
 1162 1371 1188 1374 1221 1374 c 0
 1264 1374 1287 1323 1287 1264 c 0
 1287 1248 1285 1231 1282 1212 c 0
 1269 1132 1239 1067 1193 996 c 1
 1287 996 l 1
 1275 854 l 1
 1071 854 l 1
 1021 809 970 767 913 728 c 1
 1268 728 l 1
 1255 586 l 1
 736 586 l 1
 622 231 l 1
 607 179 594 150 594 105 c 1
 598 85 600 65 600 47 c 0
 600 -33 557 -99 477 -99 c 0xd8
EndSplineSet
EndChar

StartChar: brokenbar
Encoding: 103 166 103
Width: 867
GlyphClass: 2
Flags: W
HStem: 880 21G<578 736.049>
VStem: 480 325
LayerCount: 2
Fore
SplineSet
805 1573 m 1
 734 880 l 1
 578 880 l 1
 641 1573 l 1
 805 1573 l 1
703 488 m 1
 636 -205 l 1
 480 -205 l 1
 542 488 l 1
 703 488 l 1
EndSplineSet
EndChar

StartChar: section
Encoding: 104 167 104
Width: 1100
GlyphClass: 2
Flags: W
HStem: -8 147<223.006 751.557> 25 136<210.931 591.183> 1193 146<1082.54 1379.4> 1221 151<877.308 1326.73>
VStem: 451 172<602 792.804> 663 191<1021.72 1190.05> 780 194<167.026 341.651> 996 173<596.51 786.052>
LayerCount: 2
Fore
SplineSet
623 708 m 0x09
 623 615 692 574 759 541 c 1
 890 541 994 587 996 692 c 1
 996 754 962 780 926 808 c 0
 912 819 893 831 873 844 c 1
 756 844 661 818 631 748 c 0
 626 736 623 722 623 708 c 0x09
868 452 m 1
 920 401 974 345 974 249 c 0
 974 208 963 173 949 144 c 0
 899 42 777 -8 602 -8 c 0x9b
 480 -8 366 4 253 25 c 0
 223 31 202 46 202 83 c 0
 202 129 248 161 297 161 c 2
 305 161 l 2x4b
 308 161 311 161 314 160 c 0
 405 146 493 139 596 139 c 0
 715 139 780 169 780 260 c 0x8b
 780 264 780 266 779 272 c 0
 771 312 715 372 615 451 c 0
 522 524 469 595 455 663 c 0
 453 677 450 689 451 700 c 1
 450 860 568 933 748 947 c 1
 703 1001 663 1040 663 1124 c 0
 663 1290 801 1372 1078 1372 c 0x9d
 1175 1372 1264 1357 1353 1339 c 0
 1377 1334 1390 1310 1390 1279 c 0
 1390 1232 1355 1193 1305 1193 c 0x2d
 1297 1193 1290 1194 1284 1196 c 0
 1212 1213 1136 1221 1058 1221 c 0
 951 1221 854 1201 854 1119 c 0x1d
 854 1111 855 1102 857 1093 c 0
 867 1048 918 991 1011 921 c 0
 1100 854 1149 789 1163 725 c 0
 1167 707 1169 689 1169 673 c 0
 1169 578 1108 520 1033 486 c 0
 992 467 936 456 868 452 c 1
EndSplineSet
EndChar

StartChar: dieresis
Encoding: 105 168 105
Width: 1004
GlyphClass: 2
Flags: W
HStem: 887 225<726.131 890.296 1029.13 1193.3>
VStem: 700 218<913.138 1085.48> 1003 218<913.138 1085.48>
LayerCount: 2
Fore
SplineSet
700 992 m 0
 700 1061 753 1112 823 1112 c 0
 880 1112 918 1073 918 1009 c 0
 918 942 866 887 799 887 c 0
 741 887 700 926 700 992 c 0
1003 992 m 0
 1003 1061 1056 1112 1126 1112 c 0
 1183 1112 1221 1073 1221 1009 c 0
 1221 942 1169 887 1102 887 c 0
 1044 887 1003 926 1003 992 c 0
EndSplineSet
EndChar

StartChar: copyright
Encoding: 106 169 106
Width: 1685
GlyphClass: 2
Flags: W
HStem: 0 124<779.993 1243.46> 357 128<801.926 1178.49> 1003 128<711.422 1057.55> 1365 125<546.83 985.917>
VStem: 126 151<646.315 1094.51> 469 178<644.972 940.129> 1502 151<381.329 833.41>
LayerCount: 2
Fore
SplineSet
1270 437 m 1
 1193 390 1105 357 986 357 c 0
 792 357 634 460 543 594 c 0
 500 658 469 728 469 821 c 0
 469 904 501 971 543 1018 c 0
 599 1082 693 1131 822 1131 c 0
 941 1131 1045 1098 1142 1051 c 1
 1168 925 l 1
 1077 968 976 1003 865 1003 c 0
 727 1003 647 935 647 814 c 0
 647 792 650 769 655 744 c 0
 689 580 810 485 973 485 c 0
 1084 485 1172 520 1244 563 c 1
 1270 437 l 1
1045 0 m 0
 821 0 632 89 488 200 c 0
 332 320 196 497 144 743 c 0
 132 801 126 855 126 905 c 0
 126 1070 186 1195 267 1288 c 0
 364 1399 512 1490 733 1490 c 0
 953 1490 1141 1396 1284 1286 c 0
 1441 1165 1582 989 1634 743 c 0
 1647 683 1653 628 1653 576 c 0
 1653 417 1598 294 1521 204 c 0
 1424 89 1273 0 1045 0 c 0
1486 742 m 0
 1442 949 1328 1098 1197 1199 c 0
 1083 1288 935 1365 759 1365 c 0
 582 1365 464 1288 387 1198 c 0
 322 1122 277 1018 277 883 c 0
 277 839 281 792 292 742 c 0
 332 556 433 406 549 305 c 0
 667 202 828 124 1019 124 c 0
 1210 124 1340 202 1414 305 c 0
 1467 378 1502 477 1502 597 c 0
 1502 642 1497 691 1486 742 c 0
EndSplineSet
EndChar

StartChar: ordfeminine
Encoding: 107 170 107
Width: 870
GlyphClass: 2
Flags: W
HStem: 686 136<739 915.687> 687 150<374.315 517.334> 1172 154<405.426 617.546>
VStem: 197 152<857.54 1117.14> 631 215<1102 1226> 662 134<824.922 899.765>
LayerCount: 2
Fore
SplineSet
349 985 m 0x78
 349 910 380 837 447 837 c 0
 483 837 511 873 530 896 c 0
 569 943 607 1006 626 1067 c 0
 631 1083 633 1095 631 1102 c 0
 621 1146 556 1172 512 1172 c 0
 407 1172 349 1079 349 985 c 0x78
760 1296 m 0
 801 1296 846 1269 846 1226 c 0x78
 846 1207 840 1188 836 1162 c 0
 824 1081 808 981 796 901 c 1
 792 861 797 822 830 822 c 0
 843 822 859 828 879 840 c 0
 899 852 924 871 950 896 c 0
 955 902 962 907 972 907 c 0
 998 907 1026 872 1026 841 c 0
 1026 831 1022 822 1016 814 c 0
 977 767 915 722 848 698 c 0
 826 690 806 686 785 686 c 0
 693 686 662 777 662 882 c 0xb4
 662 889 662 895 663 900 c 1
 624 824 571 749 491 707 c 0
 465 694 440 687 411 687 c 0
 311 687 224 764 206 857 c 0
 200 887 197 915 197 943 c 0
 197 1021 219 1089 243 1144 c 0
 285 1239 365 1326 519 1326 c 0
 586 1326 646 1300 685 1266 c 1
 704 1277 730 1296 760 1296 c 0
EndSplineSet
EndChar

StartChar: guillemotleft
Encoding: 108 171 108
Width: 1333
GlyphClass: 2
Flags: W
HStem: 126 161<645.126 786.235 1104.85 1246.57> 488 189<1077.05 1200.1>
LayerCount: 2
Fore
SplineSet
722 677 m 0
 756 677 771 626 771 588 c 0
 771 552 753 534 719 520 c 1
 674 494 615 474 565 452 c 0
 533 439 500 425 466 411 c 0
 466 410 487 401 529 382 c 1
 572 364 640 332 734 287 c 1
 766 270 796 249 796 203 c 0
 796 163 769 126 730 126 c 0
 723 126 718 127 714 130 c 0
 566 205 425 278 288 352 c 0
 263 365 248 384 248 416 c 0
 248 451 276 473 306 487 c 0
 426 545 537 594 656 651 c 0
 674 660 691 667 705 672 c 0
 712 675 717 677 722 677 c 0
1256 205 m 0
 1256 166 1227 126 1190 126 c 0
 1183 126 1178 127 1174 130 c 0
 1025 205 886 277 748 352 c 0
 723 365 708 384 708 416 c 0
 708 451 736 473 766 487 c 0
 886 545 996 595 1115 651 c 0
 1133 660 1151 667 1164 672 c 0
 1172 675 1176 677 1181 677 c 0
 1214 677 1229 634 1229 596 c 0
 1229 526 1166 514 1108 488 c 0
 1048 461 988 437 926 411 c 0
 926 410 947 401 989 382 c 1
 1032 364 1099 332 1193 287 c 1
 1225 271 1256 250 1256 205 c 0
EndSplineSet
EndChar

StartChar: logicalnot
Encoding: 109 172 109
Width: 1636
GlyphClass: 2
Flags: W
HStem: 1018 151<36 1214>
LayerCount: 2
Fore
SplineSet
36 1018 m 1
 4 1169 l 1
 1358 1169 l 1
 1534 338 l 1
 1358 338 l 1
 1214 1018 l 1
 36 1018 l 1
EndSplineSet
EndChar

StartChar: registered
Encoding: 110 174 110
Width: 1695
GlyphClass: 2
Flags: W
HStem: 0 124<789.993 1253.46> 697 108<787 856> 1056 113<711 1000.09> 1365 125<556.83 995.917>
VStem: 136 151<646.315 1094.51> 1047 146<824.539 1009.93> 1512 151<381.329 833.41>
LayerCount: 2
Fore
SplineSet
736 1169 m 2
 971 1169 1193 1121 1193 874 c 0
 1193 768 1122 730 1014 706 c 1
 1276 426 l 1
 1160 353 l 1
 856 697 l 1
 787 697 l 1
 855 375 l 1
 709 375 l 1
 541 1169 l 1
 736 1169 l 2
1043 931 m 0
 1023 1028 952 1056 851 1056 c 2
 711 1056 l 1
 765 805 l 1
 896 804 l 2
 984 804 1047 829 1047 900 c 0
 1047 910 1045 920 1043 931 c 0
1055 0 m 0
 831 0 642 89 498 200 c 0
 342 320 206 497 154 743 c 0
 142 801 136 855 136 905 c 0
 136 1070 196 1195 277 1288 c 0
 374 1399 522 1490 743 1490 c 0
 963 1490 1151 1396 1294 1286 c 0
 1451 1165 1592 989 1644 743 c 0
 1657 683 1663 628 1663 576 c 0
 1663 417 1608 294 1531 204 c 0
 1434 89 1283 0 1055 0 c 0
1496 742 m 0
 1452 949 1338 1098 1207 1199 c 0
 1093 1288 945 1365 769 1365 c 0
 592 1365 474 1288 397 1198 c 0
 332 1122 287 1018 287 883 c 0
 287 839 291 792 302 742 c 0
 342 556 443 406 559 305 c 0
 677 202 838 124 1029 124 c 0
 1220 124 1350 202 1424 305 c 0
 1477 378 1512 477 1512 597 c 0
 1512 642 1507 691 1496 742 c 0
EndSplineSet
EndChar

StartChar: degree
Encoding: 111 176 111
Width: 1221
GlyphClass: 2
Flags: W
HStem: 852 93<769.157 928.786> 1122 92<780.656 942.085>
VStem: 667 378<987 1063>
LayerCount: 2
Fore
SplineSet
945 1024 m 0
 962 1085 920 1122 869 1122 c 0
 799 1122 754 1069 765 999 c 1
 773 963 801 945 841 945 c 0
 901 945 934 983 945 1024 c 0
827 852 m 0
 744 852 667 913 667 1008 c 0
 667 1063 695 1110 723 1140 c 0
 756 1176 812 1214 882 1214 c 0
 969 1214 1045 1154 1045 1054 c 0
 1045 987 1003 938 965 906 c 0
 932 879 886 852 827 852 c 0
EndSplineSet
EndChar

StartChar: plusminus
Encoding: 112 177 112
Width: 1076
GlyphClass: 2
Flags: W
HStem: -56 139<355 1028> 577 133<189 474 643 929>
LayerCount: 2
Fore
SplineSet
643 577 m 1
 715 233 l 1
 574 233 l 1
 502 577 l 1
 189 577 l 1
 161 710 l 1
 474 710 l 1
 402 1054 l 1
 543 1054 l 1
 615 710 l 1
 929 710 l 1
 957 577 l 1
 643 577 l 1
355 -56 m 1
 327 83 l 1
 1028 83 l 1
 1056 -56 l 1
 355 -56 l 1
EndSplineSet
EndChar

StartChar: acute
Encoding: 115 180 115
Width: 1044
GlyphClass: 2
Flags: W
HStem: 826 481
VStem: 663 211<1113.71 1269.04>
LayerCount: 2
Fore
SplineSet
595 826 m 0
 569 826 557 845 557 874 c 0
 557 892 561 914 571 942 c 0
 601 1026 634 1108 663 1192 c 1
 680 1234 698 1264 721 1281 c 0
 744 1298 768 1307 789 1307 c 0
 837 1307 874 1269 874 1214 c 0
 874 1187 863 1164 850 1144 c 0
 796 1060 739 978 685 894 c 1
 668 863 637 826 595 826 c 0
EndSplineSet
EndChar

StartChar: mu
Encoding: 116 181 116
AltUni2: 0003bc.ffffffff.0
Width: 928
GlyphClass: 2
Flags: W
HStem: -25 178<254.868 436.062> -25 160<743.835 901.571> 708 19G<238 288.5 725 766.5>
VStem: 171 194<525.961 715.076> 612 128<139.36 201>
LayerCount: 2
Fore
SplineSet
249 248 m 0xb8
 249 200 260 153 306 153 c 0xb8
 407 153 471 220 513 278 c 0
 559 341 599 430 623 506 c 1
 645 570 646 657 685 706 c 0
 696 721 714 728 736 728 c 0
 797 728 844 673 827 600 c 1
 803 488 753 381 742 256 c 0
 741 245 740 234 740 224 c 0
 740 174 748 135 798 135 c 0
 860 135 915 173 957 204 c 0
 1016 248 1076 310 1112 375 c 1
 1150 239 l 1
 1084 141 978 48 856 -2 c 0
 820 -17 785 -25 753 -25 c 0x78
 654 -25 612 55 612 171 c 0
 612 181 613 191 613 201 c 1
 557 82 443 -25 260 -25 c 0
 223 -25 191 -19 162 -8 c 1
 92 -371 l 1
 83 -407 46 -438 -6 -438 c 0
 -61 -438 -103 -415 -103 -357 c 0
 -103 -331 -94 -306 -87 -289 c 1
 -17 -63 34 134 85 366 c 0
 107 469 135 555 171 656 c 0
 185 697 211 727 265 727 c 0
 312 727 365 704 365 650 c 0
 365 634 359 623 352 604 c 0
 314 507 266 408 252 290 c 0
 250 276 249 262 249 248 c 0xb8
EndSplineSet
EndChar

StartChar: paragraph
Encoding: 117 182 117
Width: 1241
GlyphClass: 2
Flags: W
HStem: 1233 135<927 1131 1279 1406>
LayerCount: 2
Fore
SplineSet
597 647 m 1
 395 647 284 727 284 906 c 0
 284 978 309 1037 337 1092 c 0
 426 1262 586 1368 875 1368 c 2
 1448 1368 l 1
 1406 1233 l 1
 1279 1233 l 1
 837 -201 l 1
 689 -201 l 1
 1131 1233 l 1
 927 1233 l 1
 484 -201 l 1
 337 -201 l 1
 597 647 l 1
EndSplineSet
EndChar

StartChar: cedilla
Encoding: 119 184 119
Width: 1135
GlyphClass: 2
Flags: W
HStem: -459 98<320.248 505.772> -184 73<419.093 507.767>
VStem: 517 115<-349.635 -188.182>
LayerCount: 2
Fore
SplineSet
329 -212 m 0
 314 -212 305 -204 305 -189 c 0
 305 -176 310 -158 319 -131 c 2
 364 0 l 1
 478 0 l 1
 418 -131 l 1
 437 -124 466 -111 492 -111 c 0
 577 -111 632 -176 632 -273 c 0
 632 -383 549 -459 437 -459 c 0
 385 -459 312 -441 312 -387 c 0
 312 -366 326 -348 349 -348 c 0
 371 -348 403 -361 425 -361 c 0
 483 -361 517 -324 517 -271 c 0
 517 -220 499 -192 461 -184 c 1
 410 -184 376 -212 329 -212 c 0
EndSplineSet
EndChar

StartChar: ordmasculine
Encoding: 121 186 121
Width: 848
GlyphClass: 2
Flags: W
HStem: 688 148<423.191 604.474> 1174 149<447.124 631.177>
VStem: 229 165<859.917 1118.02> 657 166<890.246 1151.08>
LayerCount: 2
Fore
SplineSet
657 1026 m 0
 657 1106 626 1174 553 1174 c 0
 446 1174 394 1078 394 982 c 0
 394 906 431 836 499 836 c 0
 604 836 657 932 657 1026 c 0
567 1323 m 0
 681 1323 789 1267 813 1150 c 0
 820 1116 823 1084 823 1054 c 0
 823 960 792 882 750 826 c 0
 693 751 595 688 455 688 c 0
 326 688 229 795 229 934 c 0
 229 975 236 1014 244 1048 c 0
 277 1196 376 1323 567 1323 c 0
EndSplineSet
EndChar

StartChar: guillemotright
Encoding: 122 187 122
Width: 1570
GlyphClass: 2
Flags: W
HStem: 520 156<507.121 645.579 959.433 1101.04>
LayerCount: 2
Fore
SplineSet
499 589 m 0
 499 627 520 676 556 676 c 0
 577 676 599 660 620 650 c 0
 680 622 745 592 804 562 c 1
 852 539 903 514 956 487 c 1
 983 475 1009 456 1009 418 c 0
 1009 387 986 364 962 353 c 1
 924 333 883 311 836 288 c 2
 696 218 l 2
 643 191 586 163 524 132 c 0
 519 129 514 128 507 128 c 0
 474 128 447 165 447 205 c 0
 447 245 477 271 515 288 c 0
 615 335 699 371 791 412 c 1
 763 424 l 2
 701 451 608 493 548 520 c 0
 520 534 499 548 499 589 c 0
952 592 m 0
 952 629 974 676 1009 676 c 0
 1030 676 1051 660 1073 650 c 0
 1133 622 1198 592 1257 562 c 1
 1305 539 1357 514 1409 487 c 1
 1436 475 1462 456 1462 418 c 0
 1462 387 1440 364 1416 353 c 0
 1276 280 1128 207 977 132 c 0
 973 129 968 128 960 128 c 0
 927 128 901 165 901 205 c 0
 901 245 931 271 969 288 c 0
 1069 335 1152 371 1244 412 c 1
 1216 424 l 2
 1155 451 1061 493 1002 520 c 0
 972 534 952 549 952 592 c 0
EndSplineSet
EndChar

StartChar: questiondown
Encoding: 126 191 126
Width: 943
GlyphClass: 2
Flags: W
HStem: -25 151<423.537 627.612> 909 270<661.208 834.027>
VStem: 240 175<134.191 313.208> 618 255<948.706 1135.16> 660 122<758.094 804.309>
LayerCount: 2
Fore
SplineSet
873 1054 m 0xf0
 873 973 811 909 730 909 c 0
 664 909 618 957 618 1031 c 0
 618 1096 659 1144 704 1166 c 0
 721 1174 740 1179 759 1179 c 0
 823 1179 873 1127 873 1054 c 0xf0
798 332 m 0
 837 332 884 309 884 266 c 0
 884 250 876 238 869 225 c 0
 808 119 708 31 572 -8 c 0
 533 -19 496 -25 460 -25 c 0
 329 -25 240 50 240 199 c 0
 240 251 256 289 282 327 c 0
 335 403 412 458 498 523 c 1
 557 576 611 641 643 714 c 0
 652 735 657 754 660 773 c 0
 663 794 695 806 722 806 c 0
 749 806 776 793 782 767 c 0xe8
 782 763 783 760 783 758 c 0
 783 708 768 658 737 608 c 0
 706 558 667 510 618 464 c 1
 544 407 462 340 425 255 c 0
 418 240 415 225 415 211 c 0
 415 156 450 126 496 126 c 0
 550 126 598 150 633 174 c 0
 682 206 725 251 751 303 c 0
 760 322 776 332 798 332 c 0
EndSplineSet
EndChar

StartChar: AE
Encoding: 133 198 133
Width: 2029
GlyphClass: 2
Flags: W
HStem: -38 166<1463.05 1958.58> 283 177<726 1019.54> 678 147<1601 1907.2> 1288 181<1252.82 1482.04> 1335 169<1930.88 2315.91>
VStem: 1188 238<163.26 307.613> 2358 226<1101.88 1294.1>
LayerCount: 2
Fore
SplineSet
2584 1208 m 0xee
 2584 1125 2519 1058 2431 1058 c 0
 2344 1058 2373 1157 2358 1228 c 0
 2340 1316 2232 1335 2141 1335 c 0xee
 2044 1335 1950 1303 1883 1269 c 0
 1807 1231 1732 1173 1705 1099 c 1
 1601 825 l 1
 1797 825 l 2
 1856 825 1925 814 1925 759 c 0
 1925 710 1860 698 1813 688 c 0
 1773 680 1724 678 1670 678 c 0
 1632 678 1590 679 1548 679 c 1
 1514 585 1480 493 1451 399 c 1
 1433 346 1426 316 1426 264 c 0
 1426 137 1539 128 1647 128 c 0
 1671 128 1692 129 1716 129 c 0
 1935 129 2064 205 2141 319 c 0
 2180 377 2214 438 2262 481 c 0
 2283 500 2311 509 2344 509 c 0
 2397 509 2437 482 2437 422 c 0
 2437 401 2431 378 2422 353 c 0
 2389 270 2322 200 2246 142 c 0
 2119 45 1942 -38 1717 -38 c 0
 1528 -38 1326 -20 1229 96 c 0
 1203 127 1188 167 1188 221 c 0
 1188 248 1192 278 1201 309 c 1
 1183 309 1164 307 1150 307 c 2
 826 285 l 1
 660 283 l 1
 628 203 594 131 550 63 c 0
 528 30 506 -3 475 -24 c 0
 462 -33 449 -38 436 -38 c 0
 373 -38 331 -4 331 66 c 0
 331 101 343 134 356 156 c 2
 477 378 l 1
 508 432 540 508 576 581 c 0
 672 772 788 975 916 1144 c 0
 999 1253 1095 1359 1215 1426 c 0
 1267 1455 1320 1469 1373 1469 c 0xf6
 1507 1469 1596 1381 1647 1268 c 1
 1720 1375 1846 1453 2002 1488 c 0
 2050 1499 2096 1504 2143 1504 c 0
 2357 1504 2540 1425 2584 1213 c 0
 2584 1211 2584 1210 2584 1208 c 0xee
1216 483 m 1
 1289 671 1376 884 1458 1068 c 0
 1476 1108 1493 1146 1505 1184 c 0
 1508 1192 1509 1199 1509 1205 c 0
 1509 1209 1509 1211 1508 1214 c 0
 1508 1217 1508 1218 1507 1219 c 0
 1473 1259 1431 1288 1373 1288 c 0xf6
 1342 1288 1310 1278 1278 1260 c 0
 1203 1217 1143 1149 1089 1078 c 0
 949 891 841 665 726 460 c 1
 909 460 l 1
 1216 483 l 1
EndSplineSet
EndChar

StartChar: Eth
Encoding: 143 208 143
Width: 1216
GlyphClass: 2
Flags: W
HStem: 617 118<247.585 486 779 951.225> 1278 165<573.584 986.539>
VStem: 1166 254<639.864 1054.54>
LayerCount: 2
Fore
SplineSet
289 617 m 2
 261 617 245 643 245 673 c 0
 245 713 281 735 327 735 c 2
 521 735 l 1
 591 973 l 1
 613 1023 639 1060 677 1087 c 0
 698 1101 717 1111 744 1111 c 0
 812 1111 849 1057 849 982 c 0
 849 951 842 923 834 901 c 2
 779 735 l 1
 905 735 l 2
 931 735 954 704 954 672 c 0
 954 638 927 617 884 617 c 2
 736 617 l 1
 679 458 616 294 540 150 c 1
 694 166 812 235 901 314 c 0
 1034 433 1138 602 1162 806 c 0
 1165 828 1166 849 1166 870 c 0
 1166 905 1162 939 1156 972 c 0
 1118 1156 1003 1278 818 1278 c 0
 674 1278 554 1235 471 1182 c 0
 441 1163 417 1143 397 1121 c 1
 346 1047 322 950 251 897 c 0
 232 882 206 875 175 875 c 0
 106 875 70 913 70 986 c 0
 70 1008 74 1030 82 1054 c 0
 112 1141 179 1212 255 1270 c 0
 381 1366 560 1443 797 1443 c 0
 1125 1443 1345 1244 1405 950 c 0
 1415 900 1420 852 1420 806 c 0
 1420 693 1393 593 1358 508 c 0
 1228 193 912 -38 442 -38 c 0
 377 -38 334 15 334 87 c 0
 334 114 341 137 350 156 c 1
 486 617 l 1
 289 617 l 2
EndSplineSet
EndChar

StartChar: multiply
Encoding: 150 215 150
Width: 1261
GlyphClass: 2
Flags: W
LayerCount: 2
Fore
SplineSet
329 965 m 1
 712 648 l 1
 963 965 l 1
 1087 863 l 1
 836 546 l 1
 1219 229 l 1
 1139 127 l 1
 756 444 l 1
 505 127 l 1
 381 229 l 1
 632 546 l 1
 249 863 l 1
 329 965 l 1
EndSplineSet
EndChar

StartChar: Oslash
Encoding: 151 216 151
Width: 1160
GlyphClass: 2
Flags: W
HStem: -23 188<502.536 822.735> 1267 176<713.363 1014.61>
VStem: 84 237<387.352 853.774> 1031 197<425.574 939.678>
LayerCount: 2
Fore
SplineSet
496 214 m 1
 539 184 594 165 655 165 c 0
 818 165 912 264 965 372 c 0
 1008 460 1031 572 1031 702 c 0
 1031 777 1023 857 1007 943 c 1
 496 214 l 1
386 339 m 1
 594 643 810 951 1017 1255 c 1
 984 1263 950 1267 913 1267 c 0
 786 1267 685 1215 607 1160 c 0
 460 1056 351 897 325 693 c 0
 322 670 321 646 321 623 c 0
 321 517 349 408 386 339 c 1
1117 1101 m 1
 1192 1011 1228 812 1228 657 c 0
 1228 483 1182 342 1110 232 c 0
 1045 132 955 53 832 8 c 0
 776 -12 716 -23 655 -23 c 0
 550 -23 458 3 379 46 c 1
 344 -5 306 -57 272 -108 c 0
 258 -129 241 -139 216 -139 c 0
 177 -139 126 -113 118 -75 c 0
 116 -63 118 -53 122 -47 c 0
 166 18 209 80 254 146 c 1
 157 252 84 435 84 645 c 0
 84 773 114 882 156 974 c 0
 220 1114 327 1235 455 1318 c 0
 557 1384 687 1443 849 1443 c 0
 946 1443 1038 1425 1112 1392 c 1
 1183 1498 l 2
 1196 1517 1216 1527 1243 1527 c 0
 1295 1527 1362 1492 1347 1432 c 1
 1255 1300 l 1
 1307 1250 1369 1184 1387 1094 c 0
 1389 1087 1389 1080 1389 1074 c 0
 1389 1039 1367 1014 1332 1014 c 0
 1313 1014 1293 1024 1272 1045 c 0
 1251 1066 1229 1095 1206 1133 c 1
 1196 1147 1181 1161 1167 1175 c 1
 1117 1101 l 1
EndSplineSet
EndChar

StartChar: Thorn
Encoding: 157 222 157
Width: 1088
GlyphClass: 2
Flags: W
HStem: 405 163<705.184 904.667> 729 587<174 693>
VStem: 53 266<802.5 1011.59> 711 182<1315.4 1404.14> 1075 235<697.919 966.173>
LayerCount: 2
Fore
SplineSet
1070 858 m 0
 1042 995 953 1089 848 1132 c 1
 805 947 758 741 705 568 c 1
 867 581 1005 635 1057 738 c 0
 1068 761 1075 787 1075 815 c 0
 1075 829 1073 843 1070 858 c 0
711 1315 m 1
 734 1376 758 1443 835 1443 c 0
 874 1443 902 1406 893 1353 c 0
 890 1336 885 1315 881 1290 c 1
 1079 1234 1251 1099 1301 859 c 0
 1307 831 1310 803 1310 778 c 0
 1310 664 1254 582 1184 526 c 0
 1093 453 949 405 775 405 c 0
 738 405 704 406 670 411 c 1
 640 288 627 142 572 41 c 0
 551 3 519 -38 460 -38 c 0
 386 -38 332 11 332 94 c 0
 332 117 337 139 342 156 c 2
 660 1157 l 1
 462 1145 368 1064 319 933 c 0
 290 857 280 729 174 729 c 0
 96 729 53 783 53 870 c 0
 53 935 82 990 110 1035 c 0
 210 1196 420 1316 693 1316 c 0
 696 1316 701 1315 704 1315 c 2
 711 1315 l 1
EndSplineSet
EndChar

StartChar: germandbls
Encoding: 158 223 158
Width: 1044
GlyphClass: 2
Flags: W
HStem: -20 184<353.699 585.875> 1237 164<713.185 872.572>
VStem: -53 210<-391.522 -207.117> 743 203<335.671 607.895> 879 202<1013.16 1233.22>
LayerCount: 2
Fore
SplineSet
53 -410 m 0xe8
 -15 -410 -53 -361 -53 -288 c 0
 -53 -256 -45 -230 -36 -198 c 0
 -12 -115 18 -47 53 45 c 0
 167 345 277 631 378 942 c 0
 417 1063 472 1182 547 1269 c 0
 606 1338 683 1401 810 1401 c 0
 959 1401 1081 1330 1081 1160 c 0xe8
 1081 1111 1068 1067 1054 1029 c 0
 1017 928 948 838 866 774 c 0
 838 752 810 734 780 721 c 1
 877 692 946 628 946 502 c 0
 946 441 927 386 906 342 c 0
 872 271 819 203 757 156 c 1
 933 212 1054 289 1195 378 c 1
 1215 221 l 1
 1071 133 930 66 764 22 c 0
 661 -5 567 -20 451 -20 c 0
 392 -20 336 13 336 81 c 0
 336 133 381 164 437 164 c 0
 560 164 631 234 677 302 c 0
 714 356 743 418 743 499 c 0xf0
 743 563 720 616 669 616 c 0
 636 616 621 594 589 594 c 0
 556 594 524 630 524 668 c 0
 524 707 560 720 589 733 c 0
 602 739 614 747 626 758 c 0
 707 830 780 913 829 1002 c 0
 857 1053 879 1094 879 1156 c 0
 879 1207 856 1237 811 1237 c 0
 785 1237 759 1228 733 1210 c 0
 668 1165 623 1091 585 1012 c 0
 563 965 542 913 524 856 c 2
 250 -29 l 1
 217 -140 197 -240 157 -336 c 0
 139 -379 119 -410 53 -410 c 0xe8
EndSplineSet
EndChar

StartChar: ae
Encoding: 165 230 165
Width: 1357
GlyphClass: 2
Flags: W
HStem: -25 176<385.309 542.921 938.097 1227.56> 546 181<430.096 664.984> 591 137<991.235 1155.37>
VStem: 174 177<182.251 463.628>
LayerCount: 2
Fore
SplineSet
1151 512 m 0xb0
 1171 552 1155 591 1112 591 c 2
 1103 591 l 2
 987 591 946 496 920 420 c 0
 908 387 899 348 896 314 c 1
 956 349 1020 396 1071 437 c 0
 1102 463 1138 486 1151 512 c 0xb0
351 324 m 0
 351 236 388 151 466 151 c 0
 510 151 544 195 567 224 c 0
 614 284 659 363 682 439 c 0
 688 459 690 474 688 483 c 1
 652 514 604 546 543 546 c 0xd0
 470 546 420 502 392 459 c 0
 370 425 351 378 351 324 c 0
1528 343 m 0
 1561 343 1584 308 1584 271 c 0
 1584 246 1569 238 1547 217 c 0
 1448 125 1312 38 1152 -6 c 0
 1106 -18 1061 -25 1014 -25 c 0
 874 -25 774 85 735 212 c 1
 685 127 617 41 520 -4 c 0
 489 -18 458 -25 424 -25 c 0
 341 -25 266 25 222 82 c 0
 189 123 174 196 174 268 c 0
 174 312 179 354 187 392 c 0
 223 566 331 727 553 727 c 0xd0
 671 727 745 672 823 604 c 1
 890 671 985 728 1127 728 c 0xb0
 1231 728 1302 677 1324 577 c 0
 1327 562 1329 548 1329 535 c 0
 1329 477 1300 434 1264 396 c 0
 1186 312 1072 254 935 199 c 1
 951 157 997 137 1049 137 c 0
 1122 137 1187 162 1240 185 c 0
 1321 221 1403 270 1468 315 c 0
 1484 326 1494 332 1500 335 c 1
 1508 341 1515 343 1528 343 c 0
EndSplineSet
EndChar

StartChar: eth
Encoding: 175 240 175
Width: 981
GlyphClass: 2
Flags: W
HStem: -26 172<545.733 774.403> 626 150<476.056 725.529> 926 118<442.538 550 874 1002.41>
VStem: 241 191<273.395 583.101> 835 191<208.913 519.288>
LayerCount: 2
Fore
SplineSet
574 626 m 0
 477 626 432 538 432 448 c 0
 432 317 500 208 581 165 c 0
 604 152 629 146 655 146 c 0
 752 146 809 209 823 278 c 0
 831 313 835 351 835 392 c 0
 835 429 832 467 825 508 c 1
 765 566 669 626 574 626 c 0
486 926 m 2
 458 926 440 952 440 982 c 0
 440 1022 476 1044 522 1044 c 2
 550 1044 l 1
 517 1075 471 1106 439 1140 c 0
 425 1156 419 1163 419 1184 c 0
 419 1236 475 1282 526 1282 c 0
 540 1282 549 1282 557 1272 c 1
 645 1204 722 1130 790 1044 c 1
 956 1044 l 2
 983 1044 1005 1012 1005 980 c 0
 1005 946 980 926 937 926 c 2
 874 926 l 1
 955 793 1026 625 1026 422 c 0
 1026 263 970 147 878 66 c 0
 822 17 745 -26 639 -26 c 0
 433 -26 291 114 252 299 c 0
 245 334 241 368 241 401 c 0
 241 493 267 574 299 630 c 0
 345 708 413 776 543 776 c 0
 629 776 710 753 774 721 c 1
 742 793 709 859 658 926 c 1
 486 926 l 2
EndSplineSet
EndChar

StartChar: oslash
Encoding: 183 248 183
Width: 848
GlyphClass: 2
Flags: W
HStem: -25 175<345 526.016> 192 159<783.356 945.825> 551 176<368.324 494>
VStem: 95 194<243.78 471.759> 602 189<363.25 488.711>
LayerCount: 2
Fore
SplineSet
494 550 m 1
 489 550 484 551 479 551 c 0
 406 551 357 509 329 466 c 0
 307 432 289 386 289 331 c 0
 289 302 293 264 304 243 c 1
 494 550 l 1
575 490 m 1
 506 376 438 273 368 159 c 1
 380 153 395 150 413 150 c 0
 485 150 535 195 562 238 c 0
 584 272 602 320 602 375 c 0
 602 417 592 462 575 490 c 1
756 226 m 1
 696 87 570 -25 362 -25 c 0
 328 -25 295 -15 266 -3 c 1
 227 -64 l 2
 217 -81 204 -89 189 -89 c 0
 161 -89 120 -54 142 -21 c 1
 185 48 l 1
 132 95 95 168 95 272 c 0
 95 318 102 362 111 400 c 0
 152 573 266 727 493 727 c 0
 524 727 559 722 594 712 c 1
 635 782 l 1
 643 793 657 805 676 805 c 0
 700 805 726 786 730 763 c 0
 732 756 726 743 728 736 c 1
 686 669 l 1
 743 629 791 563 791 461 c 0
 791 430 787 400 783 373 c 1
 797 359 817 351 840 351 c 0
 886 351 920 377 949 398 c 0
 1020 450 1078 521 1130 587 c 0
 1133 592 1138 594 1145 594 c 0
 1177 594 1196 549 1196 511 c 0
 1196 469 1174 437 1148 408 c 1
 1096 342 1035 259 952 215 c 0
 924 200 893 192 862 192 c 0
 819 192 788 206 756 226 c 1
EndSplineSet
EndChar

StartChar: thorn
Encoding: 189 254 189
Width: 980
GlyphClass: 2
Flags: W
HStem: -39 189<438.73 661.3> 121 156<920.189 1142.71> 561 167<572.351 748.264>
VStem: 773 185<287.087 540.299>
LayerCount: 2
Fore
SplineSet
773 412 m 0xb0
 773 491 744 561 672 561 c 0
 582 561 517 510 477 461 c 0
 444 420 413 363 413 294 c 0
 413 207 450 150 529 150 c 0
 619 150 681 200 719 250 c 0
 748 290 773 346 773 412 c 0xb0
1275 401 m 0
 1309 401 1332 360 1332 320 c 0
 1332 293 1320 274 1305 252 c 1
 1215 190 1107 121 954 121 c 0x70
 908 121 869 135 840 158 c 1
 770 46 676 -39 495 -39 c 0xb0
 421 -39 364 -19 320 17 c 1
 258 -246 l 2
 249 -282 212 -313 160 -313 c 0
 107 -313 62 -291 62 -235 c 0
 62 -209 72 -183 77 -164 c 0
 145 88 213 351 275 607 c 2
 431 1256 l 2
 440 1292 477 1323 529 1323 c 0
 584 1323 628 1300 628 1242 c 0
 628 1216 619 1191 612 1174 c 1
 553 984 510 786 452 596 c 1
 505 646 570 692 652 716 c 0
 678 724 707 728 736 728 c 0
 815 728 882 679 921 624 c 0
 942 593 958 560 958 509 c 0
 958 432 945 350 919 293 c 1
 930 279 945 277 966 277 c 0x70
 1094 277 1181 339 1251 388 c 1
 1257 397 1266 401 1275 401 c 0
EndSplineSet
EndChar

StartChar: dotlessi
Encoding: 191 305 191
Width: 480
GlyphClass: 2
Flags: W
HStem: -22 176<288.484 454.373> 672 20G<235 279.5>
VStem: 85 599
LayerCount: 2
Fore
SplineSet
255 692 m 0
 304 692 368 652 368 595 c 0
 368 567 357 543 352 525 c 0
 326 437 295 348 284 249 c 0
 282 229 282 211 286 194 c 0
 294 158 312 154 346 154 c 0
 416 154 473 202 510 238 c 0
 551 277 596 332 624 375 c 1
 684 239 l 1
 612 145 530 50 410 0 c 0
 375 -14 341 -22 303 -22 c 0
 169 -22 85 66 85 221 c 0
 85 319 124 394 139 475 c 0
 148 530 168 586 183 640 c 1
 195 669 215 692 255 692 c 0
EndSplineSet
EndChar

StartChar: Lslash
Encoding: 192 321 192
Width: 1168
GlyphClass: 2
Flags: W
HStem: -30 159<333.969 563> 118 121<1352.82 1461.58> 228 136<245.958 451.473> 829 127<1116.89 1316.09>
LayerCount: 2
Fore
SplineSet
300 209 m 0xb0
 306 183 341 167 369 157 c 0
 422 137 489 130 563 129 c 1
 502 158 436 194 373 218 c 0
 356 224 343 228 332 228 c 0
 308 228 298 222 300 209 c 0xb0
1264 956 m 0
 1293 956 1321 921 1321 886 c 0
 1321 856 1299 837 1269 829 c 0
 1200 809 1116 784 1041 764 c 1
 988 591 933 412 869 257 c 0
 849 208 830 168 812 136 c 1
 1027 151 1186 196 1370 235 c 0
 1376 237 1382 239 1390 239 c 0
 1427 239 1475 198 1475 155 c 0
 1475 143 1466 131 1447 118 c 0x50
 1392 80 1306 57 1218 36 c 0
 1051 -4 846 -30 631 -30 c 0
 485 -30 359 -13 260 34 c 0
 184 70 109 127 109 235 c 0
 109 330 192 364 305 364 c 0
 367 364 429 339 479 314 c 0
 536 286 595 247 641 208 c 1
 668 361 709 517 751 664 c 0
 754 675 756 681 756 683 c 1
 720 672 675 660 648 652 c 0
 646 651 643 651 638 651 c 0
 611 651 590 685 590 717 c 0
 590 780 671 788 732 805 c 0
 753 811 776 817 799 824 c 1
 848 994 898 1165 955 1322 c 1
 973 1383 1021 1443 1108 1443 c 0
 1166 1443 1214 1397 1195 1324 c 0
 1160 1186 1122 1041 1083 906 c 1
 1141 922 1205 941 1256 955 c 0
 1258 956 1261 956 1264 956 c 0
EndSplineSet
EndChar

StartChar: lslash
Encoding: 193 322 193
Width: 528
GlyphClass: 2
Flags: W
HStem: -25 173<276 481.471>
VStem: 156 180<150.389 409.564>
LayerCount: 2
Fore
SplineSet
508 1323 m 0
 556 1323 608 1293 608 1234 c 0
 608 1210 598 1189 592 1170 c 0
 571 1110 548 1025 528 955 c 1
 554 962 580 970 607 978 c 0
 609 979 612 979 615 979 c 0
 644 979 672 943 672 908 c 0
 672 879 651 860 622 852 c 0
 577 839 533 827 489 814 c 1
 443 640 392 460 349 289 c 0
 344 270 336 238 336 208 c 0
 336 175 345 148 376 148 c 0
 418 148 456 175 486 194 c 0
 578 252 664 330 735 405 c 0
 742 412 755 418 769 418 c 0
 803 418 829 388 829 348 c 0
 829 314 808 288 784 269 c 1
 693 165 594 56 454 -1 c 0
 415 -17 376 -25 336 -25 c 0
 216 -25 156 55 156 189 c 0
 156 235 163 278 172 311 c 0
 195 407 222 516 245 607 c 1
 285 757 l 1
 261 750 235 743 211 736 c 0
 209 735 206 735 201 735 c 0
 174 735 153 770 153 802 c 0
 153 836 178 857 212 866 c 0
 249 876 285 886 321 896 c 1
 414 1252 l 2
 425 1294 454 1323 508 1323 c 0
EndSplineSet
EndChar

StartChar: OE
Encoding: 194 338 194
Width: 1581
GlyphClass: 2
Flags: W
HStem: -38 167<1203 1529.97> 679 146<1233 1591.95> 1267 176<868.072 1055 1230 1479.02>
VStem: 231 237<399.046 851.865> 1042 179<607.622 679 825 1267> 1042 161<150 567.044>
LayerCount: 2
Fore
SplineSet
482 486 m 0xf4
 508 358 593 278 687 228 c 0
 782 177 910 150 1042 150 c 1
 1055 1267 l 1
 928 1265 827 1214 750 1158 c 0
 605 1052 498 895 472 692 c 0
 469 669 468 646 468 623 c 0
 468 578 473 533 482 486 c 0xf4
1482 825 m 2
 1541 825 1608 814 1608 759 c 0
 1608 710 1545 698 1498 688 c 1
 1423 675 1327 679 1221 679 c 1xf8
 1203 129 l 1
 1401 129 1548 155 1641 234 c 0
 1698 282 1738 339 1842 339 c 0
 1896 339 1938 313 1950 260 c 0
 1951 257 1951 253 1951 249 c 0
 1951 235 1945 219 1934 202 c 0
 1897 147 1824 106 1748 72 c 0
 1589 2 1379 -38 1133 -38 c 0
 809 -38 523 30 358 228 c 0
 278 323 231 471 231 637 c 0
 231 770 266 881 315 974 c 0
 424 1181 625 1339 893 1410 c 0
 975 1432 1056 1443 1139 1443 c 0
 1426 1443 1693 1375 1773 1152 c 1
 1775 1143 1777 1132 1777 1123 c 0
 1777 1063 1707 1027 1640 1027 c 0
 1593 1027 1574 1047 1564 1093 c 2
 1554 1142 l 2
 1552 1148 1551 1155 1548 1161 c 1
 1516 1261 1343 1274 1230 1274 c 1
 1233 825 l 1
 1482 825 l 2
EndSplineSet
EndChar

StartChar: oe
Encoding: 195 339 195
Width: 1180
GlyphClass: 2
Flags: W
HStem: -25 162<822.273 1075.03> -8 158<326.68 508.373> 551 176<360.967 543.321> 568 159<864.541 1032.25>
VStem: 111 180<186.442 479.892> 1034 166<448.719 566.739>
LayerCount: 2
Fore
SplineSet
1034 516 m 0x1c
 1034 553 1008 568 976 568 c 0
 867 568 824 481 798 411 c 0
 787 381 779 345 774 314 c 1
 867 364 936 399 996 454 c 0
 1017 473 1034 489 1034 516 c 0x1c
577 369 m 0
 577 460 545 551 462 551 c 0
 393 551 350 506 325 464 c 0
 306 431 291 386 291 334 c 0
 291 244 324 150 407 150 c 0x6c
 475 150 520 196 544 239 c 0
 563 273 577 317 577 369 c 0
1350 373 m 0
 1383 373 1406 339 1406 302 c 0
 1406 277 1391 267 1371 244 c 0
 1284 145 1163 46 1015 -4 c 0
 974 -18 934 -25 892 -25 c 0x9c
 780 -25 692 38 640 117 c 1
 582 50 495 -8 361 -8 c 0
 207 -8 111 119 111 283 c 0
 111 326 116 367 124 403 c 0
 158 570 261 727 472 727 c 0x6c
 582 727 656 657 693 561 c 1
 753 645 845 727 995 727 c 0
 1107 727 1200 660 1200 532 c 0
 1200 478 1178 439 1146 400 c 0
 1119 367 1078 334 1026 300 c 0
 974 266 902 233 813 199 c 1
 829 157 873 137 925 137 c 0x9c
 992 137 1052 166 1096 192 c 0
 1169 234 1237 290 1294 342 c 0
 1316 362 1318 373 1350 373 c 0
EndSplineSet
EndChar

StartChar: florin
Encoding: 201 402 201
Width: 566
GlyphClass: 2
Flags: W
HStem: -245 136<13.0995 254.904> 957 105<277.474 545 761 1099.34> 1517 152<914.796 1166.5>
LayerCount: 2
Fore
SplineSet
274 996 m 0
 274 1029 299 1062 338 1062 c 2
 571 1062 l 1
 608 1299 702 1528 877 1626 c 0
 927 1654 978 1669 1033 1669 c 0
 1110 1669 1173 1644 1231 1608 c 2
 1278 1579 l 1
 1294 1567 1301 1553 1301 1537 c 0
 1301 1496 1255 1450 1220 1450 c 0
 1203 1450 1189 1461 1175 1468 c 0
 1117 1501 1065 1517 1024 1517 c 0
 940 1517 899 1463 867 1406 c 0
 815 1312 785 1193 761 1062 c 1
 1068 1062 l 2
 1095 1062 1104 1047 1104 1030 c 0
 1104 990 1078 957 1042 957 c 2
 735 957 l 1
 556 216 l 1
 518 63 463 -52 391 -129 c 0
 319 -206 240 -245 149 -245 c 0
 87 -245 22 -232 -48 -207 c 1
 -95 -179 l 1
 -115 -165 l 2
 -135 -151 -144 -135 -144 -117 c 0
 -144 -72 -108 -28 -57 -28 c 0
 -45 -28 -34 -32 -22 -40 c 2
 9 -62 l 2
 53 -93 97 -109 140 -109 c 0
 230 -109 277 -50 306 6 c 0
 319 32 332 63 340 98 c 2
 545 957 l 1
 312 957 l 2
 287 957 274 973 274 996 c 0
EndSplineSet
EndChar

StartChar: circumflex
Encoding: 230 710 230
Width: 1221
GlyphClass: 2
Flags: W
HStem: 850 349
VStem: 867 542<878 905>
LayerCount: 2
Fore
SplineSet
964 859 m 0
 927 859 867 878 867 920 c 0
 867 927 870 933 875 939 c 0
 950 1020 1008 1088 1080 1158 c 0
 1103 1181 1117 1199 1161 1199 c 0
 1205 1199 1224 1175 1250 1141 c 0
 1302 1071 1340 1005 1401 918 c 0
 1406 911 1409 905 1409 895 c 0
 1409 865 1368 850 1334 850 c 0
 1274 850 1261 882 1232 926 c 0
 1206 967 1182 1003 1154 1043 c 1
 1108 990 1062 933 1015 882 c 0
 1001 867 983 859 964 859 c 0
EndSplineSet
EndChar

StartChar: caron
Encoding: 231 711 231
Width: 1221
GlyphClass: 2
Flags: W
HStem: 851 349
VStem: 854 542<1152 1173>
LayerCount: 2
Fore
SplineSet
1303 1191 m 0
 1338 1191 1396 1173 1396 1133 c 0
 1396 1125 1393 1117 1387 1111 c 0
 1305 1029 1244 962 1165 892 c 0
 1140 870 1125 851 1081 851 c 0
 1037 851 1020 874 996 909 c 0
 949 978 917 1045 863 1132 c 0
 859 1139 855 1143 855 1146 c 0
 854 1149 854 1152 854 1154 c 0
 854 1185 900 1200 934 1200 c 0
 963 1200 993 1190 1005 1168 c 0
 1029 1126 1062 1067 1088 1026 c 2
 1100 1007 l 1
 1150 1060 1201 1116 1251 1168 c 0
 1265 1183 1284 1191 1303 1191 c 0
EndSplineSet
EndChar

StartChar: breve
Encoding: 232 728 232
Width: 1221
GlyphClass: 2
Flags: W
HStem: 834 111<728.813 929.686>
VStem: 608 120<953.617 1054.53>
LayerCount: 2
Fore
SplineSet
1015 1065 m 0
 1035 1065 1067 1057 1067 1035 c 0
 1067 1031 1065 1028 1064 1024 c 0
 1041 941 962 879 874 849 c 0
 844 839 813 834 784 834 c 0
 690 834 608 876 608 976 c 0
 608 1027 633 1060 685 1060 c 0
 704 1060 727 1054 731 1037 c 0
 733 1025 726 1005 728 993 c 0
 736 957 773 945 816 945 c 0
 887 945 937 980 951 1028 c 0
 957 1051 983 1065 1015 1065 c 0
EndSplineSet
EndChar

StartChar: dotaccent
Encoding: 233 729 233
Width: 448
GlyphClass: 2
Flags: W
HStem: -16 270<184.875 359.845>
VStem: 142 257<27.25 214.203>
LayerCount: 2
Fore
SplineSet
142 135 m 0
 142 205 189 254 261 254 c 0
 335 254 399 191 399 105 c 0
 399 36 354 -16 284 -16 c 0
 209 -16 142 49 142 135 c 0
EndSplineSet
EndChar

StartChar: ring
Encoding: 234 730 234
Width: 1221
GlyphClass: 2
Flags: W
HStem: 852 93<769.871 932.427> 1122 92<775.912 937.078>
VStem: 668 94<952.709 1107.24>
LayerCount: 2
Fore
SplineSet
762 1029 m 0
 762 974 796 945 848 945 c 0
 915 945 954 995 944 1059 c 1
 936 1100 906 1122 861 1122 c 0
 804 1122 762 1082 762 1029 c 0
843 852 m 0
 753 852 668 919 668 1024 c 0
 668 1075 692 1115 717 1144 c 0
 748 1179 800 1214 866 1214 c 0
 958 1214 1042 1147 1042 1040 c 0
 1042 980 1010 936 977 906 c 0
 947 879 901 852 843 852 c 0
EndSplineSet
EndChar

StartChar: tilde
Encoding: 235 732 235
Width: 1221
GlyphClass: 2
Flags: W
HStem: 807 141<1110.74 1293.87> 878 136<983.277 1148.06>
VStem: 843 581
LayerCount: 2
Fore
SplineSet
909 794 m 0x60
 882 794 843 804 843 833 c 0
 843 835 844 836 844 837 c 0
 862 907 894 970 957 1001 c 0
 974 1010 994 1014 1014 1014 c 0x60
 1048 1014 1087 993 1118 981 c 0
 1154 967 1197 948 1241 948 c 0
 1298 948 1286 1005 1319 1024 c 0
 1333 1032 1347 1035 1362 1035 c 0
 1389 1035 1419 1022 1425 997 c 1
 1427 995 l 1
 1427 991 1425 990 1424 986 c 0
 1402 905 1371 807 1265 807 c 0xa0
 1222 807 1182 826 1143 840 c 0
 1108 853 1060 871 1022 877 c 0
 1019 877 1017 878 1014 878 c 0
 989 878 989 852 983 837 c 1
 975 811 944 794 909 794 c 0x60
EndSplineSet
EndChar

StartChar: hungarumlaut
Encoding: 236 733 236
Width: 2088
GlyphClass: 2
Flags: W
HStem: 826 481
VStem: 799 211<1113.71 1269.04> 1155 211<1113.71 1269.04>
LayerCount: 2
Fore
SplineSet
1087 826 m 0
 1061 826 1049 845 1049 874 c 0
 1049 892 1053 914 1063 942 c 0
 1093 1026 1126 1108 1155 1192 c 1
 1172 1234 1190 1264 1213 1281 c 0
 1236 1298 1260 1307 1281 1307 c 0
 1329 1307 1366 1269 1366 1214 c 0
 1366 1187 1355 1164 1342 1144 c 0
 1288 1060 1231 978 1177 894 c 1
 1160 863 1129 826 1087 826 c 0
731 826 m 0
 705 826 693 845 693 874 c 0
 693 892 697 914 707 942 c 0
 737 1026 770 1108 799 1192 c 1
 816 1234 834 1264 857 1281 c 0
 880 1298 904 1307 925 1307 c 0
 973 1307 1010 1269 1010 1214 c 0
 1010 1187 999 1164 986 1144 c 0
 932 1060 875 978 821 894 c 1
 804 863 773 826 731 826 c 0
EndSplineSet
EndChar

StartChar: uni030F
Encoding: 237 783 237
Width: 2088
GlyphClass: 2
Flags: W
HStem: 826 481
LayerCount: 2
Fore
SplineSet
699 1144 m 0
 681 1166 665 1191 665 1229 c 0
 665 1273 695 1307 740 1307 c 0
 803 1307 849 1252 880 1192 c 1
 921 1107 960 1026 1002 942 c 1
 1012 917 1026 896 1026 864 c 0
 1026 841 1015 826 991 826 c 0
 952 826 915 862 893 894 c 1
 828 978 764 1060 699 1144 c 0
1055 1144 m 0
 1037 1166 1021 1191 1021 1229 c 0
 1021 1273 1051 1307 1096 1307 c 0
 1159 1307 1205 1252 1236 1192 c 1
 1277 1107 1316 1026 1358 942 c 1
 1368 917 1382 896 1382 864 c 0
 1382 841 1371 826 1347 826 c 0
 1308 826 1271 862 1249 894 c 1
 1184 978 1120 1060 1055 1144 c 0
EndSplineSet
EndChar

StartChar: uni0311
Encoding: 238 785 238
Width: 1221
GlyphClass: 2
Flags: W
HStem: 953 111<717.902 915.316>
VStem: 924 114<839.446 942.263>
LayerCount: 2
Fore
SplineSet
589 874 m 1
 597 982 705 1064 829 1064 c 0
 933 1064 1038 1007 1038 893 c 0
 1038 858 1019 838 975 838 c 0
 953 838 928 845 924 866 c 0
 922 874 924 885 922 893 c 0
 912 936 871 953 821 953 c 0
 755 953 706 922 703 870 c 1
 700 847 675 833 646 833 c 0
 622 833 593 841 589 864 c 1
 589 874 l 1
EndSplineSet
EndChar

StartChar: endash
Encoding: 239 8211 239
Width: 889
GlyphClass: 2
Flags: W
HStem: 555 144<313 751>
VStem: 281 502
LayerCount: 2
Fore
SplineSet
281 699 m 1
 751 699 l 1
 783 555 l 1
 313 555 l 1
 281 699 l 1
EndSplineSet
EndChar

StartChar: emdash
Encoding: 240 8212 240
Width: 1406
GlyphClass: 2
Flags: W
HStem: 555 144<361 1269>
LayerCount: 2
Fore
SplineSet
329 699 m 1
 1269 699 l 1
 1301 555 l 1
 361 555 l 1
 329 699 l 1
EndSplineSet
EndChar

StartChar: quoteleft
Encoding: 241 8216 241
Width: 529
GlyphClass: 2
Flags: W
HStem: 880 561<522 685>
VStem: 408 250<900.41 1043.23>
LayerCount: 2
Fore
SplineSet
522 880 m 0
 477 880 408 892 408 942 c 0
 408 948 409 954 412 961 c 0
 483 1110 557 1248 627 1398 c 0
 638 1420 654 1441 685 1441 c 0
 704 1441 727 1430 727 1408 c 0
 727 1405 727 1402 726 1398 c 0
 702 1250 683 1108 658 961 c 1
 652 907 592 880 522 880 c 0
EndSplineSet
EndChar

StartChar: quoteright
Encoding: 242 8217 242
Width: 612
GlyphClass: 2
Flags: W
HStem: 888 561<481 644>
VStem: 508 250<1285.31 1428.59>
LayerCount: 2
Fore
SplineSet
644 1449 m 0
 689 1449 758 1437 758 1387 c 0
 758 1381 757 1375 754 1368 c 0
 682 1219 610 1080 539 931 c 0
 528 909 512 888 481 888 c 0
 462 888 443 898 439 917 c 0
 439 921 440 926 440 931 c 0
 465 1078 484 1220 508 1368 c 1
 514 1422 574 1449 644 1449 c 0
EndSplineSet
EndChar

StartChar: quotesinglbase
Encoding: 243 8218 243
Width: 872
GlyphClass: 2
Flags: W
HStem: -476 561<373 536>
VStem: 400 250<-78.6897 64.5898>
LayerCount: 2
Fore
SplineSet
536 85 m 0
 581 85 650 73 650 23 c 0
 650 17 649 11 646 4 c 0
 574 -145 502 -284 431 -433 c 0
 420 -455 404 -476 373 -476 c 0
 354 -476 335 -466 331 -447 c 0
 331 -443 332 -438 332 -433 c 0
 357 -286 376 -144 400 4 c 1
 406 58 466 85 536 85 c 0
EndSplineSet
EndChar

StartChar: quotedblleft
Encoding: 244 8220 244
Width: 867
GlyphClass: 2
Flags: W
HStem: 880 561<480 643 861 1024>
VStem: 366 250<900.41 1043.23> 585 99<1308.46 1439.43> 747 250<900.41 1043.23>
LayerCount: 2
Fore
SplineSet
480 880 m 0xd0
 435 880 366 892 366 942 c 0xd0
 366 948 367 954 370 961 c 0
 441 1110 515 1248 585 1398 c 0
 596 1420 612 1441 643 1441 c 0
 667 1441 690 1426 684 1398 c 1xb0
 660 1250 641 1108 616 961 c 1
 610 907 550 880 480 880 c 0xd0
861 880 m 0
 816 880 747 892 747 942 c 0
 747 948 748 954 751 961 c 0
 822 1110 896 1248 966 1398 c 0
 977 1420 993 1441 1024 1441 c 0
 1043 1441 1066 1430 1066 1408 c 0
 1066 1405 1066 1402 1065 1398 c 0
 1041 1250 1022 1108 997 961 c 1
 991 907 931 880 861 880 c 0
EndSplineSet
EndChar

StartChar: quotedblright
Encoding: 245 8221 245
Width: 939
GlyphClass: 2
Flags: W
HStem: 888 561<440 603 819 982>
VStem: 467 246<1278.46 1428.43> 846 250<1285.31 1428.59>
LayerCount: 2
Fore
SplineSet
603 1449 m 0
 651 1449 738 1431 713 1368 c 1
 641 1219 569 1080 498 931 c 0
 487 909 471 888 440 888 c 0
 421 888 402 898 398 917 c 0
 398 921 399 926 399 931 c 0
 424 1078 443 1220 467 1368 c 1
 473 1422 533 1449 603 1449 c 0
982 1449 m 0
 1027 1449 1096 1437 1096 1387 c 0
 1096 1381 1095 1375 1092 1368 c 0
 1020 1219 948 1080 877 931 c 0
 866 909 850 888 819 888 c 0
 800 888 781 898 777 917 c 0
 777 921 778 926 778 931 c 0
 803 1078 822 1220 846 1368 c 1
 852 1422 912 1449 982 1449 c 0
EndSplineSet
EndChar

StartChar: quotedblbase
Encoding: 246 8222 246
Width: 1065
GlyphClass: 2
Flags: W
HStem: -476 561<192 355 571 734>
VStem: 219 246<-85.537 64.4341> 598 250<-78.6897 64.5898>
LayerCount: 2
Fore
SplineSet
355 85 m 0
 403 85 490 67 465 4 c 1
 393 -145 321 -284 250 -433 c 0
 239 -455 223 -476 192 -476 c 0
 173 -476 154 -466 150 -447 c 0
 150 -443 151 -438 151 -433 c 0
 176 -286 195 -144 219 4 c 1
 225 58 285 85 355 85 c 0
734 85 m 0
 779 85 848 73 848 23 c 0
 848 17 847 11 844 4 c 0
 772 -145 700 -284 629 -433 c 0
 618 -455 602 -476 571 -476 c 0
 552 -476 533 -466 529 -447 c 0
 529 -443 530 -438 530 -433 c 0
 555 -286 574 -144 598 4 c 1
 604 58 664 85 734 85 c 0
EndSplineSet
EndChar

StartChar: dagger
Encoding: 247 8224 247
Width: 1055
GlyphClass: 2
Flags: W
HStem: 1020 141<319.788 708 920 1308.77>
LayerCount: 2
Fore
SplineSet
1246 1161 m 2
 1287 1161 1317 1141 1317 1097 c 0
 1317 1052 1275 1020 1226 1020 c 2
 898 1020 l 1
 769 0 l 2
 762 -51 726 -96 661 -96 c 0
 609 -96 569 -62 579 0 c 1
 708 1020 l 1
 372 1020 l 2
 335 1020 311 1041 311 1080 c 0
 311 1125 346 1161 392 1161 c 2
 727 1161 l 1
 740 1264 752 1365 765 1468 c 0
 771 1522 806 1574 874 1574 c 0
 926 1574 968 1533 958 1468 c 1
 945 1365 933 1264 920 1161 c 1
 1246 1161 l 2
EndSplineSet
EndChar

StartChar: daggerdbl
Encoding: 248 8225 248
Width: 1055
GlyphClass: 2
Flags: W
HStem: 256 141<236.626 611 819 1226.11> 1020 141<319.788 708 920 1308.77>
LayerCount: 2
Fore
SplineSet
372 1020 m 2
 335 1020 311 1041 311 1080 c 0
 311 1125 346 1161 392 1161 c 2
 727 1161 l 1
 740 1264 752 1365 765 1468 c 0
 771 1522 806 1574 874 1574 c 0
 926 1574 968 1533 958 1468 c 1
 945 1365 933 1264 920 1161 c 1
 1246 1161 l 2
 1287 1161 1317 1141 1317 1097 c 0
 1317 1052 1275 1020 1226 1020 c 2
 898 1020 l 1
 819 397 l 1
 1163 397 l 2
 1205 397 1234 376 1234 332 c 0
 1234 287 1194 256 1145 256 c 2
 801 256 l 1
 769 0 l 2
 762 -51 726 -96 661 -96 c 0
 609 -96 569 -62 579 0 c 1
 611 256 l 1
 291 256 l 2
 254 256 228 276 228 316 c 0
 228 361 263 397 309 397 c 2
 629 397 l 1
 708 1020 l 1
 372 1020 l 2
EndSplineSet
EndChar

StartChar: bullet
Encoding: 249 8226 249
Width: 1083
GlyphClass: 2
Flags: W
HStem: 358 670<545.431 774.992>
VStem: 304 712<593.794 791.114>
LayerCount: 2
Fore
SplineSet
730 358 m 0
 569 358 441 447 367 561 c 0
 331 618 304 681 304 765 c 0
 304 882 371 963 458 1002 c 0
 497 1019 541 1028 590 1028 c 0
 752 1028 879 938 953 824 c 0
 989 767 1016 703 1016 619 c 0
 1016 502 949 423 861 384 c 0
 822 367 779 358 730 358 c 0
EndSplineSet
EndChar

StartChar: ellipsis
Encoding: 250 8230 250
Width: 1488
GlyphClass: 2
Flags: W
HStem: -16 270<328.875 503.845 776.875 951.845 1224.88 1399.84>
VStem: 286 257<27.25 214.203> 734 257<27.25 214.203> 1182 257<27.25 214.203>
CounterMasks: 1 70
LayerCount: 2
Fore
SplineSet
1182 135 m 0
 1182 205 1229 254 1301 254 c 0
 1375 254 1439 191 1439 105 c 0
 1439 36 1394 -16 1324 -16 c 0
 1249 -16 1182 49 1182 135 c 0
734 135 m 0
 734 205 781 254 853 254 c 0
 927 254 991 191 991 105 c 0
 991 36 946 -16 876 -16 c 0
 801 -16 734 49 734 135 c 0
286 135 m 0
 286 205 333 254 405 254 c 0
 479 254 543 191 543 105 c 0
 543 36 498 -16 428 -16 c 0
 353 -16 286 49 286 135 c 0
EndSplineSet
EndChar

StartChar: perthousand
Encoding: 251 8240 251
Width: 2241
GlyphClass: 2
Flags: W
HStem: -40 127<1148.99 1325.66 1841.36 2016.66> 407 123<230.807 406.605> 525 123<1176.06 1356.59 1867.06 2047.59> 980 119<251.922 432.035>
VStem: 52 134<574.463 910.245> 471 134<601.049 842.425> 965 144<127.353 446.755> 1391 143<159.862 493.779> 1656 144<127.397 446.755> 2082 143<159.862 493.779>
LayerCount: 2
Fore
SplineSet
1800 278 m 0xbfc0
 1800 184 1839 87 1923 87 c 0
 1996 87 2035 146 2056 196 c 0
 2072 234 2082 283 2082 338 c 0
 2082 439 2054 525 1958 525 c 0
 1890 525 1851 467 1830 420 c 0
 1813 383 1800 333 1800 278 c 0xbfc0
1933 -40 m 0
 1758 -40 1656 107 1656 303 c 0
 1656 443 1714 552 1802 610 c 0
 1841 636 1886 648 1937 648 c 0
 2078 648 2185 557 2212 431 c 0
 2221 389 2225 349 2225 312 c 0
 2225 168 2164 57 2073 -2 c 0
 2033 -28 1986 -40 1933 -40 c 0
1109 278 m 0
 1109 184 1148 87 1232 87 c 0
 1305 87 1344 146 1365 196 c 0
 1381 234 1391 283 1391 338 c 0
 1391 439 1363 525 1267 525 c 0
 1199 525 1160 467 1139 420 c 0
 1122 383 1109 333 1109 278 c 0
186 738 m 0
 186 642 223 530 310 530 c 0xdfc0
 383 530 423 586 445 636 c 0
 460 673 471 722 471 776 c 0
 471 876 439 980 351 980 c 0
 276 980 236 928 213 878 c 0
 197 842 186 792 186 738 c 0
997 127 m 1
 978 175 965 242 965 303 c 0
 965 443 1023 552 1111 610 c 0
 1150 636 1195 648 1246 648 c 0xbfc0
 1387 648 1494 557 1521 431 c 0
 1530 389 1534 349 1534 312 c 0
 1534 168 1473 57 1382 -2 c 0
 1342 -28 1295 -40 1242 -40 c 0
 1161 -40 1097 -6 1052 42 c 1
 888 -16 756 -77 638 -148 c 0
 589 -178 550 -206 521 -233 c 1
 514 -249 498 -259 473 -259 c 0
 417 -259 350 -210 377 -143 c 1
 893 932 l 1
 811 882 720 854 594 841 c 1
 602 804 605 770 605 737 c 0
 605 598 541 494 450 441 c 0
 411 418 369 407 324 407 c 0
 179 407 91 520 61 665 c 0
 54 696 52 725 52 753 c 0
 52 837 78 909 112 962 c 0
 158 1033 238 1099 360 1099 c 0
 465 1099 533 1030 572 939 c 1
 743 985 851 1070 973 1159 c 1
 990 1176 1013 1192 1045 1192 c 0
 1103 1192 1146 1130 1126 1060 c 1
 640 22 l 1
 754 61 876 99 997 127 c 1
EndSplineSet
EndChar

StartChar: guilsinglleft
Encoding: 252 8249 252
Width: 1060
GlyphClass: 2
Flags: W
HStem: 349 186<833.33 978.926> 768 217<797.23 920.28>
LayerCount: 2
Fore
SplineSet
993 441 m 0
 993 396 959 349 916 349 c 0
 907 349 901 351 897 354 c 0
 726 440 565 523 407 610 c 0
 378 626 360 647 360 682 c 0
 360 724 393 750 428 766 c 1
 583 841 725 913 886 980 c 0
 894 983 902 985 908 985 c 0
 947 985 964 934 964 891 c 0
 964 810 888 798 822 768 c 0
 752 736 685 708 612 678 c 0
 612 677 636 666 684 645 c 0
 733 624 813 587 921 535 c 0
 958 517 993 492 993 441 c 0
EndSplineSet
EndChar

StartChar: guilsinglright
Encoding: 253 8250 253
Width: 1173
GlyphClass: 2
Flags: W
HStem: 349 636
VStem: 535 651
LayerCount: 2
Fore
SplineSet
604 349 m 0
 567 349 535 392 535 437 c 0
 535 485 571 514 615 535 c 0
 705 577 781 611 859 645 c 2
 935 678 l 1
 901 692 l 2
 879 701 854 712 824 726 c 2
 653 804 l 2
 619 819 596 837 596 884 c 0
 596 922 614 956 634 973 c 0
 643 981 653 985 663 985 c 0
 669 985 675 983 682 980 c 0
 769 942 863 896 949 853 c 1
 1006 826 1066 797 1127 766 c 0
 1158 751 1186 728 1186 684 c 0
 1186 648 1161 623 1134 610 c 0
 972 525 801 440 626 354 c 0
 620 351 613 349 604 349 c 0
EndSplineSet
EndChar

StartChar: fraction
Encoding: 254 8260 254
Width: 835
GlyphClass: 2
Flags: W
VStem: 319 157<-175.033 -38.9487>
LayerCount: 2
Fore
SplineSet
408 -185 m 0
 369 -185 319 -161 319 -116 c 0
 319 -113 319 -111 320 -109 c 0
 520 435 714 966 914 1510 c 0
 924 1536 949 1554 987 1554 c 0
 1034 1554 1083 1527 1083 1476 c 1
 881 937 678 399 476 -140 c 1
 467 -167 445 -185 408 -185 c 0
EndSplineSet
EndChar

StartChar: Euro
Encoding: 256 8364 256
Width: 1128
GlyphClass: 2
Flags: W
HStem: -22 196<599.725 874.141> 512 94<110.357 305 553 1158.64> 693 94<124.986 342 615 1164.81> 1291 152<940.925 1125.46>
VStem: 298 228<251.111 512>
LayerCount: 2
Fore
SplineSet
167 693 m 2
 141 693 124 707 124 733 c 0
 124 766 157 787 194 787 c 2
 374 787 l 1
 440 960 538 1118 663 1242 c 0
 737 1316 824 1380 932 1418 c 0
 980 1435 1028 1443 1078 1443 c 0
 1224 1443 1331 1365 1331 1196 c 0
 1331 1136 1315 1082 1300 1038 c 0
 1276 971 1232 892 1143 892 c 0
 1096 892 1041 907 1041 962 c 0
 1041 981 1049 995 1059 1011 c 0
 1089 1056 1119 1114 1131 1175 c 0
 1145 1241 1115 1291 1058 1291 c 0
 993 1291 945 1251 905 1218 c 0
 810 1139 737 1025 677 914 c 0
 654 872 633 830 615 787 c 1
 1132 787 l 2
 1153 787 1166 772 1166 749 c 0
 1166 718 1140 693 1105 693 c 2
 579 693 l 1
 569 664 562 635 553 606 c 1
 1117 606 l 2
 1142 606 1159 589 1159 562 c 0
 1159 529 1128 512 1090 512 c 2
 534 512 l 1
 530 481 526 448 526 413 c 0
 526 263 597 174 736 174 c 0
 810 174 872 215 922 248 c 0
 1015 311 1105 393 1189 462 c 0
 1213 482 1234 496 1250 504 c 1
 1253 507 1255 508 1260 508 c 0
 1290 508 1308 428 1308 391 c 0
 1308 346 1287 321 1260 286 c 0
 1170 168 1042 54 874 0 c 0
 828 -15 777 -22 724 -22 c 0
 465 -22 298 121 298 412 c 0
 298 446 301 480 305 512 c 1
 152 512 l 2
 127 512 110 529 110 556 c 0
 110 589 141 606 179 606 c 2
 320 606 l 1
 326 636 334 664 342 693 c 1
 167 693 l 2
EndSplineSet
EndChar

StartChar: trademark
Encoding: 257 8482 257
Width: 1705
GlyphClass: 2
Flags: W
HStem: 1310 103<8 218 353 542>
LayerCount: 2
Fore
SplineSet
353 1310 m 1
 497 624 l 1
 362 624 l 1
 218 1310 l 1
 8 1310 l 1
 -12 1413 l 1
 542 1413 l 1
 562 1310 l 1
 353 1310 l 1
806 1288 m 1
 944 624 l 1
 816 624 l 1
 652 1413 l 1
 881 1413 l 1
 1201 758 l 1
 1249 1413 l 1
 1478 1413 l 1
 1642 624 l 1
 1515 624 l 1
 1377 1288 l 1
 1318 624 l 1
 1140 624 l 1
 806 1288 l 1
EndSplineSet
EndChar

StartChar: minus
Encoding: 258 8722 258
Width: 1157
GlyphClass: 2
Flags: W
HStem: 512 94<363 927>
VStem: 336 618
LayerCount: 2
Fore
SplineSet
927 512 m 1
 336 512 l 1
 363 606 l 1
 954 606 l 1
 927 512 l 1
EndSplineSet
EndChar

StartChar: fi
Encoding: 259 64257 259
Width: 986
GlyphClass: 2
Flags: W
HStem: -25 175<788.263 956.589> 563 129<59.3758 215 447 662> 1015 156<609.823 730.525>
VStem: 257 190<692 816.473> 692 303<808.5 1012.75>
LayerCount: 2
Fore
SplineSet
162 566 m 2
 106 566 54 580 54 634 c 0
 54 670 94 692 139 692 c 2
 257 692 l 1
 305 852 367 983 470 1075 c 0
 535 1132 607 1171 720 1171 c 0
 856 1171 960 1072 988 954 c 0
 993 933 995 913 995 895 c 0
 995 826 960 781 880 781 c 0
 791 781 692 793 692 891 c 0
 692 928 713 952 730 972 c 0
 747 992 730 1015 704 1015 c 0
 682 1015 658 1006 632 988 c 0
 542 926 471 811 447 692 c 1
 757 692 l 2
 806 692 868 652 868 595 c 0
 868 567 857 543 852 525 c 0
 826 437 795 348 784 249 c 0
 782 229 782 211 786 194 c 0
 794 159 814 150 848 150 c 0
 894 150 929 173 958 193 c 0
 1026 241 1079 308 1124 375 c 1
 1135 388 1147 394 1160 394 c 0
 1193 394 1215 355 1215 315 c 0
 1215 284 1202 258 1184 239 c 1
 1112 145 1032 48 912 -3 c 0
 878 -18 841 -25 803 -25 c 0
 664 -25 584 71 584 231 c 0
 584 301 601 363 615 417 c 0
 627 466 642 516 662 565 c 1
 629 564 597 564 565 564 c 1
 538 563 509 563 480 563 c 2
 404 563 l 1
 331 319 270 47 199 -198 c 1
 186 -248 149 -303 83 -303 c 0
 45 -303 9 -281 9 -235 c 0
 9 -216 15 -200 20 -182 c 2
 215 566 l 1
 162 566 l 2
EndSplineSet
EndChar

StartChar: fl
Encoding: 260 64258 260
Width: 1034
GlyphClass: 2
Flags: W
HStem: -25 173<752 958.464> 563 129<75.3758 231 463 711> 1038 143<591.512 824.596>
VStem: 632 182<150.39 418.082>
LayerCount: 2
Fore
SplineSet
745 692 m 1
 826 1006 l 1
 778 1027 737 1038 700 1038 c 0
 616 1038 576 985 548 932 c 0
 511 863 487 775 463 692 c 1
 557 692 651 692 745 692 c 1
178 566 m 2
 122 566 70 580 70 634 c 0
 70 670 110 692 155 692 c 2
 273 692 l 1
 321 844 372 973 459 1072 c 0
 512 1132 570 1181 675 1181 c 0
 745 1181 804 1159 860 1132 c 1
 890 1252 l 2
 901 1294 932 1323 986 1323 c 0
 1036 1323 1084 1291 1084 1231 c 0
 1084 1208 1076 1189 1070 1170 c 0
 980 891 898 580 825 289 c 0
 821 271 814 240 814 211 c 0
 814 178 820 148 852 148 c 0
 894 148 933 175 963 194 c 0
 1055 252 1140 330 1211 405 c 0
 1218 412 1233 418 1247 418 c 0
 1281 418 1305 387 1305 348 c 0
 1305 314 1284 288 1260 269 c 1
 1169 165 1071 56 931 -1 c 0
 892 -17 852 -25 812 -25 c 0
 692 -25 632 55 632 189 c 0
 632 235 639 278 648 311 c 0
 667 395 690 485 711 565 c 1
 659 564 610 563 563 563 c 2
 420 563 l 1
 347 319 286 47 215 -198 c 1
 202 -248 165 -303 99 -303 c 0
 61 -303 25 -281 25 -235 c 0
 25 -216 31 -200 36 -182 c 2
 231 566 l 1
 178 566 l 2
EndSplineSet
EndChar

StartChar: D.alt
Encoding: 261 -1 261
Width: 1216
GlyphClass: 2
Flags: W
HStem: 1206 165<553.88 973.92>
VStem: 1149 258<601.04 989.324>
LayerCount: 2
Fore
SplineSet
166 803 m 0
 96 803 57 845 57 922 c 0
 57 992 96 1051 131 1096 c 0
 254 1251 483 1371 771 1371 c 0
 1100 1371 1330 1188 1392 896 c 0
 1402 848 1407 801 1407 757 c 0
 1407 640 1375 539 1334 455 c 0
 1227 234 1023 72 740 -5 c 0
 644 -31 538 -44 424 -44 c 0
 265 -44 103 2 9 83 c 0
 -21 109 -42 135 -42 170 c 0
 -42 218 15 247 66 247 c 0
 113 247 156 231 197 216 c 0
 248 197 301 174 356 158 c 1
 580 943 l 1
 601 993 626 1030 663 1057 c 0
 683 1071 702 1081 729 1081 c 0
 801 1081 840 1022 840 944 c 0
 840 917 834 892 826 871 c 0
 743 630 663 368 551 150 c 1
 698 165 812 230 897 303 c 0
 1024 413 1123 574 1145 766 c 0
 1147 789 1149 811 1149 833 c 0
 1149 1069 1001 1206 795 1206 c 0
 651 1206 533 1163 451 1110 c 0
 422 1091 397 1071 379 1049 c 1
 329 975 310 879 241 825 c 0
 223 810 197 803 166 803 c 0
EndSplineSet
EndChar

StartChar: A.alt
Encoding: 262 -1 262
Width: 1005
GlyphClass: 2
Flags: W
HStem: -445 124<330.623 479.302> 541 161<298.715 547>
VStem: 170 158<-376.5 -230.558> 554 146<-243.769 -83.3917>
LayerCount: 2
Fore
SplineSet
328 -262 m 0
 328 -293 362 -321 387 -321 c 0
 437 -321 479 -280 504 -251 c 0
 527 -224 554 -183 554 -136 c 0
 554 -116 549 -98 542 -83 c 1
 468 -125 415 -162 378 -195 c 0
 345 -225 328 -247 328 -262 c 0
790 597 m 0
 790 547 746 524 708 499 c 1
 709 499 l 1
 689 475 l 1
 690 475 l 1
 648 429 608 399 557 348 c 2
 347 142 l 1
 425 142 508 128 567 101 c 1
 815 239 1010 407 1191 606 c 1
 1284 548 l 1
 1289 529 l 1
 1124 323 922 159 681 11 c 1
 694 -22 700 -76 700 -114 c 0
 700 -256 621 -348 521 -400 c 0
 473 -425 409 -445 338 -445 c 0
 263 -445 170 -418 170 -335 c 0
 170 -301 190 -259 232 -208 c 0
 281 -148 357 -81 461 -6 c 1
 410 49 253 24 180 48 c 0
 160 54 155 64 155 86 c 0
 155 111 167 128 182 149 c 0
 204 179 246 218 279 250 c 0
 319 289 369 342 403 382 c 1
 547 529 l 1
 487 529 436 538 371 541 c 1
 325 533 297 498 274 464 c 0
 241 416 211 361 180 307 c 0
 178 304 177 303 174 303 c 0
 143 303 115 376 115 414 c 0
 115 425 116 435 120 444 c 0
 172 562 225 661 372 690 c 0
 412 698 461 702 517 702 c 0
 604 702 666 694 746 694 c 1
 778 685 790 637 790 597 c 0
EndSplineSet
EndChar

StartChar: A.alt2
Encoding: 263 -1 263
Width: 1142
GlyphClass: 2
Flags: W
HStem: -40 182<361.903 570.991> -22 169<993.596 1122.76> 1219 166<704.015 1011.56>
VStem: 62 225<226.308 638.484>
LayerCount: 2
Fore
SplineSet
287 407 m 0xb0
 287 281 347 142 458 142 c 0xb0
 527 142 580 191 619 228 c 0
 697 302 769 401 822 494 c 0
 842 530 847 538 853 558 c 0
 872 629 926 789 962 895 c 1
 969 936 994 965 1043 965 c 0
 1111 965 1154 915 1138 832 c 0
 1103 650 1023 473 995 285 c 0
 993 269 990 245 990 222 c 0
 990 185 997 147 1031 147 c 0
 1048 147 1067 153 1088 166 c 0
 1171 217 1237 305 1295 382 c 0
 1336 438 1378 501 1412 559 c 1
 1470 426 l 1
 1386 271 1285 104 1139 15 c 0
 1098 -10 1054 -22 1009 -22 c 0
 908 -22 851 39 830 139 c 0
 826 160 822 179 819 198 c 1
 791 168 772 144 724 100 c 0
 670 51 608 5 533 -22 c 0x70
 498 -34 465 -40 430 -40 c 0
 241 -40 108 111 72 280 c 0
 65 314 62 347 62 379 c 0
 62 454 78 525 93 589 c 0
 142 790 236 973 356 1120 c 0
 434 1216 531 1301 656 1351 c 0
 713 1374 772 1385 834 1385 c 0
 954 1385 1054 1343 1144 1286 c 1
 1177 1264 1207 1227 1207 1174 c 0
 1207 1135 1187 1105 1146 1105 c 0
 1110 1105 1079 1125 1052 1147 c 0
 998 1190 941 1219 863 1219 c 0
 808 1219 753 1204 701 1173 c 0
 529 1071 410 879 342 688 c 0
 310 596 287 513 287 407 c 0xb0
EndSplineSet
EndChar

StartChar: S.alt
Encoding: 264 -1 264
Width: 1135
GlyphClass: 2
Flags: W
HStem: -20 188<392.874 831.574> 397 160<378.694 491.663> 1204 179<656.532 924.243>
VStem: 144 203<215.961 366.202> 926 178<1118.8 1200.52> 939 237<260.826 454.051>
LayerCount: 2
Fore
SplineSet
914 891 m 0xf8
 864 891 819 939 819 996 c 0
 819 1059 886 1076 914 1118 c 0
 925 1135 930 1151 926 1167 c 0
 920 1198 895 1204 865 1204 c 0
 755 1204 664 1168 594 1131 c 0
 545 1105 499 1072 476 1029 c 0
 445 969 483 917 525 880 c 0
 557 852 603 821 662 789 c 2
 926 646 l 1xf8
 997 605 1054 564 1094 522 c 0
 1146 467 1176 415 1176 329 c 0
 1176 232 1123 158 1063 108 c 0
 974 32 835 -20 654 -20 c 0
 508 -20 385 0 290 52 c 0
 216 92 144 156 144 266 c 0
 144 329 173 381 205 420 c 0
 254 482 335 532 431 557 c 1
 473 557 505 508 505 460 c 0
 505 422 474 412 443 397 c 0
 399 377 347 341 347 289 c 0
 347 211 441 187 505 176 c 0
 538 170 576 168 621 168 c 0
 767 168 882 216 925 302 c 0
 934 321 939 341 939 362 c 0xf4
 939 407 924 426 892 457 c 0
 868 480 831 503 781 527 c 0
 697 569 633 603 587 628 c 0
 483 685 404 739 345 812 c 0
 308 857 286 903 276 950 c 0
 272 967 271 983 271 998 c 0
 271 1067 304 1121 339 1164 c 0
 416 1258 546 1333 693 1367 c 0
 739 1378 784 1383 827 1383 c 0
 963 1383 1070 1324 1098 1188 c 0
 1102 1170 1104 1152 1104 1135 c 0
 1104 1055 1062 983 980 918 c 0
 957 900 935 891 914 891 c 0xf8
EndSplineSet
EndChar

StartChar: N.alt
Encoding: 265 -1 265
Width: 1248
GlyphClass: 2
Flags: W
HStem: -82 197<139.803 275.825>
LayerCount: 2
Fore
SplineSet
1396 1405 m 0
 1438 1405 1496 1380 1496 1332 c 0
 1496 1322 1493 1311 1487 1301 c 0
 1440 1210 1391 1138 1358 1034 c 0
 1347 998 1337 956 1329 905 c 1
 1282 687 1246 445 1213 224 c 0
 1204 166 1197 122 1190 91 c 1
 1181 29 1155 -32 1096 -32 c 2
 1093 -32 l 2
 970 -32 921 109 873 209 c 0
 758 452 647 697 538 956 c 1
 538 955 538 954 537 953 c 1
 538 916 539 880 539 843 c 0
 539 646 523 452 488 286 c 0
 462 160 420 41 342 -33 c 0
 307 -66 266 -82 219 -82 c 0
 182 -82 145 -73 110 -54 c 1
 64 -37 19 19 -8 64 c 0
 -22 88 -33 110 -33 141 c 0
 -33 189 -4 251 43 251 c 0
 83 251 106 202 128 174 c 0
 145 152 173 115 203 115 c 0
 226 115 247 126 266 147 c 0
 312 199 335 281 353 364 c 0
 414 638 426 963 430 1280 c 0
 430 1292 430 1303 430 1313 c 0
 430 1359 435 1390 492 1390 c 2
 502 1390 l 2
 517 1390 535 1382 554 1368 c 0
 573 1354 591 1329 609 1294 c 1
 756 984 904 656 1050 342 c 1
 1104 640 1158 956 1242 1206 c 0
 1267 1281 1293 1336 1319 1369 c 1
 1335 1391 1359 1405 1396 1405 c 0
EndSplineSet
EndChar

StartChar: notequal
Encoding: 266 8800 266
Width: 1510
Flags: W
HStem: 494 121<496.692 1457.35> 870 121<582.313 1570.1>
LayerCount: 2
Fore
SplineSet
1294 1554 m 0
 1341 1554 1390 1527 1390 1476 c 1
 1188 937 985 399 783 -140 c 1
 774 -167 752 -185 715 -185 c 0
 680 -185 636 -165 628 -131 c 0
 626 -123 625 -114 627 -109 c 0
 827 435 1021 966 1221 1510 c 0
 1231 1536 1256 1554 1294 1554 c 0
1463 565 m 0
 1463 524 1427 494 1377 494 c 2
 541 494 l 2
 512 494 492 516 492 546 c 0
 492 587 526 615 576 615 c 2
 1411 615 l 2
 1441 615 1463 595 1463 565 c 0
1578 945 m 0
 1578 903 1538 870 1488 870 c 2
 652 870 l 2
 617 870 580 895 579 930 c 1
 579 972 626 991 686 991 c 2
 1522 991 l 2
 1555 991 1578 974 1578 945 c 0
EndSplineSet
EndChar

StartChar: integral
Encoding: 267 8747 267
Width: 566
GlyphClass: 2
Flags: W
HStem: -245 136<13.0995 251.407> 1517 152<921.431 1166.5>
LayerCount: 2
Fore
SplineSet
-144 -117 m 0
 -144 -72 -108 -28 -57 -28 c 0
 -45 -28 -34 -32 -22 -40 c 2
 9 -62 l 2
 53 -93 97 -109 140 -109 c 256
 183 -109 224 -92 259 -58 c 0
 294 -24 322 27 340 98 c 2
 571 1062 l 2
 611 1227 668 1385 754 1502 c 1
 815 1588 903 1669 1033 1669 c 0
 1110 1669 1173 1644 1231 1608 c 2
 1278 1579 l 1
 1294 1567 1301 1553 1301 1537 c 0
 1301 1496 1255 1450 1220 1450 c 0
 1203 1450 1189 1461 1175 1468 c 0
 1117 1501 1065 1517 1024 1517 c 0
 941 1517 903 1461 872 1404 c 0
 821 1308 793 1190 761 1062 c 2
 556 216 l 2
 518 63 463 -52 391 -129 c 0
 319 -206 240 -245 149 -245 c 0
 87 -245 22 -232 -48 -207 c 1
 -95 -179 l 1
 -115 -165 l 2
 -135 -151 -144 -135 -144 -117 c 0
EndSplineSet
EndChar

StartChar: lc_xheight_stem
Encoding: 268 -1 268
Width: 921
Flags: W
VStem: 74 308
LayerCount: 2
Back
SplineSet
302 692 m 4
 355 692 396 630 378 563 c 5
 294 191 l 5
 267 127 270 -25 172 -25 c 4
 124 -25 80 13 80 69 c 4
 80 79 81 91 83 106 c 4
 110 277 171 446 211 607 c 4
 221 650 249 692 302 692 c 4
EndSplineSet
Fore
SplineSet
378 563 m 6
 263 69 l 6
 248 5 206 -22 165 -22 c 4
 119 -22 74 13 74 71 c 4
 74 82 76 93 79 105 c 6
 211 607 l 6
 225 661 265 687 303 687 c 4
 344 687 382 656 382 598 c 4
 382 587 381 576 378 563 c 6
EndSplineSet
EndChar
